G75*
%MOIN*%
%OFA0B0*%
%FSLAX25Y25*%
%IPPOS*%
%LPD*%
%AMOC8*
5,1,8,0,0,1.08239X$1,22.5*
%
%ADD10R,0.05906X0.01969*%
%ADD11R,0.01969X0.05906*%
%ADD12R,0.04500X0.00900*%
%ADD13R,0.00900X0.04500*%
%ADD14R,0.03000X0.03000*%
%ADD15R,0.02362X0.01200*%
%ADD16R,0.03150X0.04724*%
%ADD17R,0.04724X0.03150*%
%ADD18R,0.07098X0.06299*%
%ADD19R,0.06299X0.07098*%
%ADD20R,0.03937X0.07087*%
D10*
X0088965Y0098252D03*
X0088965Y0101402D03*
X0088965Y0104551D03*
X0088965Y0107701D03*
X0088965Y0110850D03*
X0088965Y0114000D03*
X0088965Y0117150D03*
X0088965Y0120299D03*
X0088965Y0123449D03*
X0088965Y0126598D03*
X0088965Y0129748D03*
X0134635Y0129748D03*
X0134635Y0126598D03*
X0134635Y0123449D03*
X0134635Y0120299D03*
X0134635Y0117150D03*
X0134635Y0114000D03*
X0134635Y0110850D03*
X0134635Y0107701D03*
X0134635Y0104551D03*
X0134635Y0101402D03*
X0134635Y0098252D03*
D11*
X0127548Y0091165D03*
X0124398Y0091165D03*
X0121249Y0091165D03*
X0118099Y0091165D03*
X0114950Y0091165D03*
X0111800Y0091165D03*
X0108650Y0091165D03*
X0105501Y0091165D03*
X0102351Y0091165D03*
X0099202Y0091165D03*
X0096052Y0091165D03*
X0096052Y0136835D03*
X0099202Y0136835D03*
X0102351Y0136835D03*
X0105501Y0136835D03*
X0108650Y0136835D03*
X0111800Y0136835D03*
X0114950Y0136835D03*
X0118099Y0136835D03*
X0121249Y0136835D03*
X0124398Y0136835D03*
X0127548Y0136835D03*
D12*
X0125580Y0172110D03*
X0125580Y0174079D03*
X0125580Y0176047D03*
X0125580Y0178016D03*
X0125580Y0179984D03*
X0125580Y0181953D03*
X0125580Y0183921D03*
X0125580Y0185890D03*
X0098020Y0185890D03*
X0098020Y0183921D03*
X0098020Y0181953D03*
X0098020Y0179984D03*
X0098020Y0178016D03*
X0098020Y0176047D03*
X0098020Y0174079D03*
X0098020Y0172110D03*
D13*
X0104910Y0165220D03*
X0106879Y0165220D03*
X0108847Y0165220D03*
X0110816Y0165220D03*
X0112784Y0165220D03*
X0114753Y0165220D03*
X0116721Y0165220D03*
X0118690Y0165220D03*
X0118690Y0192780D03*
X0116721Y0192780D03*
X0114753Y0192780D03*
X0112784Y0192780D03*
X0110816Y0192780D03*
X0108847Y0192780D03*
X0106879Y0192780D03*
X0104910Y0192780D03*
D14*
X0187464Y0232300D03*
X0187464Y0239855D03*
X0196000Y0235900D03*
D15*
X0150540Y0278441D03*
X0150540Y0281000D03*
X0150540Y0283559D03*
X0143060Y0283559D03*
X0143060Y0281000D03*
X0143060Y0278441D03*
D16*
X0144343Y0295000D03*
X0137257Y0295000D03*
X0163257Y0278500D03*
X0170343Y0278500D03*
X0155343Y0241000D03*
X0148257Y0241000D03*
X0146343Y0181000D03*
X0146343Y0171000D03*
X0139257Y0171000D03*
X0139257Y0181000D03*
X0108343Y0149000D03*
X0101257Y0149000D03*
X0097343Y0201000D03*
X0090257Y0201000D03*
X0050343Y0285000D03*
X0043257Y0285000D03*
D17*
X0077800Y0101457D03*
X0077800Y0108543D03*
X0095800Y0082543D03*
X0095800Y0075457D03*
X0102800Y0062543D03*
X0102800Y0055457D03*
X0105800Y0075457D03*
X0105800Y0082543D03*
X0125800Y0062543D03*
X0125800Y0055457D03*
X0156800Y0057457D03*
X0156800Y0064543D03*
X0150800Y0120457D03*
X0150800Y0127543D03*
X0088800Y0182457D03*
X0088800Y0189543D03*
X0079800Y0189543D03*
X0079800Y0182457D03*
D18*
X0027800Y0284402D03*
X0027800Y0295598D03*
X0171800Y0241598D03*
X0171800Y0230402D03*
D19*
X0172398Y0048000D03*
X0161202Y0048000D03*
X0136398Y0048000D03*
X0125202Y0048000D03*
X0114398Y0048000D03*
X0103202Y0048000D03*
D20*
X0165288Y0066000D03*
X0178312Y0066000D03*
M02*
