G75*
%MOIN*%
%OFA0B0*%
%FSLAX25Y25*%
%IPPOS*%
%LPD*%
%AMOC8*
5,1,8,0,0,1.08239X$1,22.5*
%
%ADD10R,0.16500X0.10500*%
%ADD11R,0.10500X0.16500*%
%ADD12C,0.05600*%
%ADD13C,0.13100*%
%ADD14C,0.17000*%
%ADD15C,0.06000*%
%ADD16R,0.06000X0.06000*%
%ADD17OC8,0.06000*%
%ADD18C,0.01600*%
%ADD19C,0.06600*%
%ADD20C,0.00900*%
D10*
X0213472Y0272242D03*
X0213472Y0299758D03*
D11*
X0165558Y0342672D03*
X0138042Y0342672D03*
D12*
X0181100Y0189750D03*
X0181100Y0179950D03*
X0181100Y0172050D03*
X0181100Y0162250D03*
D13*
X0191800Y0150150D03*
X0191800Y0201850D03*
D14*
X0189674Y0119504D03*
X0177863Y0101000D03*
X0201485Y0101000D03*
D15*
X0008800Y0019000D02*
X0008800Y0013000D01*
X0018800Y0012000D02*
X0018800Y0018000D01*
X0028800Y0019000D02*
X0028800Y0013000D01*
X0153800Y0161000D02*
X0159800Y0161000D01*
X0160800Y0171000D02*
X0154800Y0171000D01*
X0153800Y0181000D02*
X0159800Y0181000D01*
X0160800Y0191000D02*
X0154800Y0191000D01*
X0212800Y0236000D02*
X0218800Y0236000D01*
X0219800Y0246000D02*
X0213800Y0246000D01*
X0213800Y0226000D02*
X0219800Y0226000D01*
X0161800Y0318000D02*
X0161800Y0324000D01*
X0151800Y0323000D02*
X0151800Y0317000D01*
X0141800Y0318000D02*
X0141800Y0324000D01*
D16*
X0031800Y0196000D03*
D17*
X0031800Y0186000D03*
X0031800Y0176000D03*
X0031800Y0166000D03*
X0031800Y0156000D03*
X0031800Y0146000D03*
X0031800Y0136000D03*
X0031800Y0126000D03*
X0031800Y0116000D03*
X0031800Y0106000D03*
X0041800Y0106000D03*
X0041800Y0116000D03*
X0041800Y0126000D03*
X0041800Y0136000D03*
X0041800Y0146000D03*
X0041800Y0156000D03*
X0041800Y0166000D03*
X0041800Y0176000D03*
X0041800Y0186000D03*
X0041800Y0196000D03*
D18*
X0036800Y0191000D01*
X0036800Y0121000D01*
X0031800Y0116000D01*
X0031800Y0106000D01*
X0031600Y0106130D02*
X0015400Y0106130D01*
X0015400Y0105491D02*
X0015400Y0201509D01*
X0020291Y0206400D01*
X0051200Y0206400D01*
X0051200Y0179600D01*
X0046402Y0179600D01*
X0045002Y0181000D01*
X0047600Y0183598D01*
X0047600Y0188402D01*
X0044295Y0191707D01*
X0046600Y0194012D01*
X0046600Y0195800D01*
X0042000Y0195800D01*
X0042000Y0196200D01*
X0041600Y0196200D01*
X0041600Y0200800D01*
X0039812Y0200800D01*
X0037600Y0198588D01*
X0037600Y0199557D01*
X0037174Y0200586D01*
X0036386Y0201374D01*
X0035357Y0201800D01*
X0028243Y0201800D01*
X0027214Y0201374D01*
X0026426Y0200586D01*
X0026000Y0199557D01*
X0026000Y0192443D01*
X0026426Y0191414D01*
X0027214Y0190626D01*
X0027928Y0190330D01*
X0026000Y0188402D01*
X0026000Y0183598D01*
X0028598Y0181000D01*
X0026000Y0178402D01*
X0026000Y0173598D01*
X0028598Y0171000D01*
X0026000Y0168402D01*
X0026000Y0163598D01*
X0028598Y0161000D01*
X0026000Y0158402D01*
X0026000Y0153598D01*
X0028598Y0151000D01*
X0026000Y0148402D01*
X0026000Y0143598D01*
X0028598Y0141000D01*
X0026000Y0138402D01*
X0026000Y0133598D01*
X0028598Y0131000D01*
X0026000Y0128402D01*
X0026000Y0123598D01*
X0029305Y0120293D01*
X0027000Y0117988D01*
X0027000Y0116200D01*
X0031600Y0116200D01*
X0031600Y0115800D01*
X0032000Y0115800D01*
X0032000Y0111200D01*
X0033788Y0111200D01*
X0036093Y0113505D01*
X0038598Y0111000D01*
X0036093Y0108495D01*
X0033788Y0110800D01*
X0032000Y0110800D01*
X0032000Y0106200D01*
X0031600Y0106200D01*
X0031600Y0110800D01*
X0029812Y0110800D01*
X0027000Y0107988D01*
X0027000Y0106200D01*
X0031600Y0106200D01*
X0031600Y0105800D01*
X0032000Y0105800D01*
X0032000Y0101200D01*
X0033788Y0101200D01*
X0036093Y0103505D01*
X0039398Y0100200D01*
X0044202Y0100200D01*
X0047600Y0103598D01*
X0047600Y0108402D01*
X0045002Y0111000D01*
X0047600Y0113598D01*
X0047600Y0118402D01*
X0045002Y0121000D01*
X0046402Y0122400D01*
X0060327Y0122400D01*
X0112700Y0070946D01*
X0112700Y0068787D01*
X0113629Y0066545D01*
X0115345Y0064829D01*
X0117587Y0063900D01*
X0120013Y0063900D01*
X0122255Y0064829D01*
X0123971Y0066545D01*
X0124900Y0068787D01*
X0124900Y0071213D01*
X0123971Y0073455D01*
X0122255Y0075171D01*
X0120013Y0076100D01*
X0117728Y0076100D01*
X0064335Y0128557D01*
X0063839Y0129052D01*
X0063824Y0129058D01*
X0063812Y0129070D01*
X0063163Y0129332D01*
X0062516Y0129600D01*
X0062500Y0129600D01*
X0062484Y0129606D01*
X0061784Y0129600D01*
X0046402Y0129600D01*
X0045002Y0131000D01*
X0046402Y0132400D01*
X0069309Y0132400D01*
X0120700Y0081009D01*
X0120700Y0078787D01*
X0121629Y0076545D01*
X0123345Y0074829D01*
X0125587Y0073900D01*
X0128013Y0073900D01*
X0130255Y0074829D01*
X0131971Y0076545D01*
X0132900Y0078787D01*
X0132900Y0081213D01*
X0131971Y0083455D01*
X0130255Y0085171D01*
X0128013Y0086100D01*
X0125791Y0086100D01*
X0072839Y0139052D01*
X0071516Y0139600D01*
X0046402Y0139600D01*
X0045002Y0141000D01*
X0046402Y0142400D01*
X0109309Y0142400D01*
X0114748Y0136961D01*
X0115761Y0135948D01*
X0117084Y0135400D01*
X0128773Y0135400D01*
X0130345Y0133829D01*
X0132587Y0132900D01*
X0135013Y0132900D01*
X0137255Y0133829D01*
X0138971Y0135545D01*
X0139900Y0137787D01*
X0139900Y0139809D01*
X0144700Y0135009D01*
X0144700Y0132787D01*
X0145629Y0130545D01*
X0147345Y0128829D01*
X0149587Y0127900D01*
X0152013Y0127900D01*
X0153030Y0128321D01*
X0144809Y0120100D01*
X0142587Y0120100D01*
X0140345Y0119171D01*
X0138629Y0117455D01*
X0137700Y0115213D01*
X0137700Y0112787D01*
X0138629Y0110545D01*
X0140173Y0109000D01*
X0139629Y0108455D01*
X0138700Y0106213D01*
X0138700Y0103787D01*
X0139629Y0101545D01*
X0141345Y0099829D01*
X0143587Y0098900D01*
X0146013Y0098900D01*
X0148255Y0099829D01*
X0149971Y0101545D01*
X0150900Y0103787D01*
X0150900Y0105720D01*
X0171768Y0124918D01*
X0171839Y0124948D01*
X0172293Y0125401D01*
X0172764Y0125835D01*
X0172797Y0125906D01*
X0172852Y0125961D01*
X0173097Y0126553D01*
X0173367Y0127135D01*
X0173370Y0127212D01*
X0173400Y0127284D01*
X0173400Y0127925D01*
X0173427Y0128566D01*
X0173400Y0128638D01*
X0173400Y0216716D01*
X0172852Y0218039D01*
X0158839Y0232052D01*
X0157516Y0232600D01*
X0153827Y0232600D01*
X0152255Y0234171D01*
X0150013Y0235100D01*
X0147587Y0235100D01*
X0145345Y0234171D01*
X0143629Y0232455D01*
X0142700Y0230213D01*
X0142700Y0227787D01*
X0143629Y0225545D01*
X0145345Y0223829D01*
X0147587Y0222900D01*
X0150013Y0222900D01*
X0152255Y0223829D01*
X0153827Y0225400D01*
X0155309Y0225400D01*
X0166200Y0214509D01*
X0166200Y0173119D01*
X0165717Y0174285D01*
X0164085Y0175917D01*
X0163261Y0176259D01*
X0164717Y0177715D01*
X0165600Y0179846D01*
X0165600Y0182154D01*
X0164717Y0184285D01*
X0163085Y0185917D01*
X0162032Y0186353D01*
X0162643Y0186552D01*
X0163316Y0186895D01*
X0163927Y0187339D01*
X0164461Y0187873D01*
X0164905Y0188484D01*
X0165248Y0189157D01*
X0165482Y0189876D01*
X0165600Y0190622D01*
X0165600Y0190800D01*
X0158000Y0190800D01*
X0158000Y0191200D01*
X0157600Y0191200D01*
X0157600Y0195800D01*
X0154422Y0195800D01*
X0153676Y0195682D01*
X0152957Y0195448D01*
X0152284Y0195105D01*
X0151673Y0194661D01*
X0151139Y0194127D01*
X0150695Y0193516D01*
X0150352Y0192843D01*
X0150118Y0192124D01*
X0150000Y0191378D01*
X0150000Y0191200D01*
X0157600Y0191200D01*
X0157600Y0190800D01*
X0150000Y0190800D01*
X0150000Y0190622D01*
X0150118Y0189876D01*
X0150352Y0189157D01*
X0150695Y0188484D01*
X0151139Y0187873D01*
X0151673Y0187339D01*
X0152284Y0186895D01*
X0152549Y0186760D01*
X0150515Y0185917D01*
X0148883Y0184285D01*
X0148000Y0182154D01*
X0148000Y0179846D01*
X0148883Y0177715D01*
X0150515Y0176083D01*
X0151339Y0175741D01*
X0149883Y0174285D01*
X0149000Y0172154D01*
X0149000Y0169846D01*
X0149883Y0167715D01*
X0151339Y0166259D01*
X0150515Y0165917D01*
X0148883Y0164285D01*
X0148000Y0162154D01*
X0148000Y0159846D01*
X0148883Y0157715D01*
X0150515Y0156083D01*
X0152646Y0155200D01*
X0160954Y0155200D01*
X0163085Y0156083D01*
X0164717Y0157715D01*
X0165600Y0159846D01*
X0165600Y0162154D01*
X0164717Y0164285D01*
X0163261Y0165741D01*
X0164085Y0166083D01*
X0165717Y0167715D01*
X0166200Y0168881D01*
X0166200Y0129580D01*
X0149900Y0114584D01*
X0149900Y0115009D01*
X0159839Y0124948D01*
X0160852Y0125961D01*
X0161400Y0127284D01*
X0161400Y0139716D01*
X0160852Y0141039D01*
X0145350Y0156541D01*
X0144971Y0157455D01*
X0143255Y0159171D01*
X0141013Y0160100D01*
X0138587Y0160100D01*
X0136345Y0159171D01*
X0134629Y0157455D01*
X0133986Y0155905D01*
X0122852Y0167039D01*
X0121839Y0168052D01*
X0120516Y0168600D01*
X0084291Y0168600D01*
X0079900Y0172991D01*
X0079900Y0175113D01*
X0155352Y0251461D01*
X0155852Y0251961D01*
X0155856Y0251971D01*
X0155864Y0251979D01*
X0156130Y0252631D01*
X0156400Y0253284D01*
X0156400Y0253295D01*
X0156404Y0253305D01*
X0156400Y0254010D01*
X0156400Y0286973D01*
X0157971Y0288545D01*
X0158900Y0290787D01*
X0158900Y0293213D01*
X0157971Y0295455D01*
X0156255Y0297171D01*
X0154013Y0298100D01*
X0151587Y0298100D01*
X0149345Y0297171D01*
X0147629Y0295455D01*
X0146700Y0293213D01*
X0146700Y0290787D01*
X0147629Y0288545D01*
X0149200Y0286973D01*
X0149200Y0255479D01*
X0140902Y0247083D01*
X0141400Y0248284D01*
X0141400Y0280973D01*
X0142971Y0282545D01*
X0143900Y0284787D01*
X0143900Y0287213D01*
X0142971Y0289455D01*
X0141255Y0291171D01*
X0139013Y0292100D01*
X0136587Y0292100D01*
X0134345Y0291171D01*
X0132629Y0289455D01*
X0131700Y0287213D01*
X0131700Y0284787D01*
X0132629Y0282545D01*
X0134200Y0280973D01*
X0134200Y0250491D01*
X0088028Y0204319D01*
X0087971Y0204455D01*
X0086255Y0206171D01*
X0084013Y0207100D01*
X0081587Y0207100D01*
X0079345Y0206171D01*
X0077629Y0204455D01*
X0076700Y0202213D01*
X0076700Y0199787D01*
X0077629Y0197545D01*
X0079345Y0195829D01*
X0079481Y0195772D01*
X0063309Y0179600D01*
X0058400Y0179600D01*
X0058400Y0209716D01*
X0057852Y0211039D01*
X0056839Y0212052D01*
X0055839Y0213052D01*
X0054516Y0213600D01*
X0018084Y0213600D01*
X0016761Y0213052D01*
X0015748Y0212039D01*
X0008748Y0205039D01*
X0008200Y0203716D01*
X0008200Y0103284D01*
X0008748Y0101961D01*
X0009761Y0100948D01*
X0027761Y0082948D01*
X0029084Y0082400D01*
X0063369Y0082400D01*
X0080291Y0066418D01*
X0080761Y0065948D01*
X0080810Y0065928D01*
X0080849Y0065891D01*
X0081470Y0065654D01*
X0082084Y0065400D01*
X0082137Y0065400D01*
X0082187Y0065381D01*
X0082851Y0065400D01*
X0099773Y0065400D01*
X0101345Y0063829D01*
X0103587Y0062900D01*
X0106013Y0062900D01*
X0108255Y0063829D01*
X0109971Y0065545D01*
X0110900Y0067787D01*
X0110900Y0070213D01*
X0109971Y0072455D01*
X0108255Y0074171D01*
X0106013Y0075100D01*
X0103587Y0075100D01*
X0101345Y0074171D01*
X0099773Y0072600D01*
X0084231Y0072600D01*
X0067309Y0088582D01*
X0066839Y0089052D01*
X0066790Y0089072D01*
X0066751Y0089109D01*
X0066130Y0089346D01*
X0065516Y0089600D01*
X0065463Y0089600D01*
X0065413Y0089619D01*
X0064749Y0089600D01*
X0031291Y0089600D01*
X0015400Y0105491D01*
X0016360Y0104532D02*
X0027000Y0104532D01*
X0027000Y0104012D02*
X0029812Y0101200D01*
X0031600Y0101200D01*
X0031600Y0105800D01*
X0027000Y0105800D01*
X0027000Y0104012D01*
X0028079Y0102933D02*
X0017958Y0102933D01*
X0019557Y0101334D02*
X0029677Y0101334D01*
X0031600Y0101334D02*
X0032000Y0101334D01*
X0032000Y0102933D02*
X0031600Y0102933D01*
X0031600Y0104532D02*
X0032000Y0104532D01*
X0032000Y0107729D02*
X0031600Y0107729D01*
X0031600Y0109327D02*
X0032000Y0109327D01*
X0031600Y0111200D02*
X0031600Y0115800D01*
X0027000Y0115800D01*
X0027000Y0114012D01*
X0029812Y0111200D01*
X0031600Y0111200D01*
X0031600Y0112524D02*
X0032000Y0112524D01*
X0032000Y0114123D02*
X0031600Y0114123D01*
X0031600Y0115721D02*
X0032000Y0115721D01*
X0035112Y0112524D02*
X0037073Y0112524D01*
X0038523Y0110926D02*
X0015400Y0110926D01*
X0015400Y0112524D02*
X0028488Y0112524D01*
X0027000Y0114123D02*
X0015400Y0114123D01*
X0015400Y0115721D02*
X0027000Y0115721D01*
X0027000Y0117320D02*
X0015400Y0117320D01*
X0015400Y0118918D02*
X0027930Y0118918D01*
X0029081Y0120517D02*
X0015400Y0120517D01*
X0015400Y0122115D02*
X0027482Y0122115D01*
X0026000Y0123714D02*
X0015400Y0123714D01*
X0015400Y0125312D02*
X0026000Y0125312D01*
X0026000Y0126911D02*
X0015400Y0126911D01*
X0015400Y0128509D02*
X0026107Y0128509D01*
X0027705Y0130108D02*
X0015400Y0130108D01*
X0015400Y0131706D02*
X0027891Y0131706D01*
X0026293Y0133305D02*
X0015400Y0133305D01*
X0015400Y0134903D02*
X0026000Y0134903D01*
X0026000Y0136502D02*
X0015400Y0136502D01*
X0015400Y0138100D02*
X0026000Y0138100D01*
X0027296Y0139699D02*
X0015400Y0139699D01*
X0015400Y0141297D02*
X0028300Y0141297D01*
X0026702Y0142896D02*
X0015400Y0142896D01*
X0015400Y0144494D02*
X0026000Y0144494D01*
X0026000Y0146093D02*
X0015400Y0146093D01*
X0015400Y0147691D02*
X0026000Y0147691D01*
X0026887Y0149290D02*
X0015400Y0149290D01*
X0015400Y0150888D02*
X0028486Y0150888D01*
X0027111Y0152487D02*
X0015400Y0152487D01*
X0015400Y0154085D02*
X0026000Y0154085D01*
X0026000Y0155684D02*
X0015400Y0155684D01*
X0015400Y0157282D02*
X0026000Y0157282D01*
X0026478Y0158881D02*
X0015400Y0158881D01*
X0015400Y0160479D02*
X0028077Y0160479D01*
X0027520Y0162078D02*
X0015400Y0162078D01*
X0015400Y0163676D02*
X0026000Y0163676D01*
X0026000Y0165275D02*
X0015400Y0165275D01*
X0015400Y0166873D02*
X0026000Y0166873D01*
X0026070Y0168472D02*
X0015400Y0168472D01*
X0015400Y0170070D02*
X0027668Y0170070D01*
X0027929Y0171669D02*
X0015400Y0171669D01*
X0015400Y0173268D02*
X0026330Y0173268D01*
X0026000Y0174866D02*
X0015400Y0174866D01*
X0015400Y0176465D02*
X0026000Y0176465D01*
X0026000Y0178063D02*
X0015400Y0178063D01*
X0015400Y0179662D02*
X0027259Y0179662D01*
X0028337Y0181260D02*
X0015400Y0181260D01*
X0015400Y0182859D02*
X0026739Y0182859D01*
X0026000Y0184457D02*
X0015400Y0184457D01*
X0015400Y0186056D02*
X0026000Y0186056D01*
X0026000Y0187654D02*
X0015400Y0187654D01*
X0015400Y0189253D02*
X0026850Y0189253D01*
X0026989Y0190851D02*
X0015400Y0190851D01*
X0015400Y0192450D02*
X0026000Y0192450D01*
X0026000Y0194048D02*
X0015400Y0194048D01*
X0015400Y0195647D02*
X0026000Y0195647D01*
X0026000Y0197245D02*
X0015400Y0197245D01*
X0015400Y0198844D02*
X0026000Y0198844D01*
X0026367Y0200442D02*
X0015400Y0200442D01*
X0015932Y0202041D02*
X0051200Y0202041D01*
X0051200Y0203639D02*
X0017530Y0203639D01*
X0019129Y0205238D02*
X0051200Y0205238D01*
X0051200Y0200442D02*
X0044146Y0200442D01*
X0043788Y0200800D02*
X0042000Y0200800D01*
X0042000Y0196200D01*
X0046600Y0196200D01*
X0046600Y0197988D01*
X0043788Y0200800D01*
X0042000Y0200442D02*
X0041600Y0200442D01*
X0041600Y0198844D02*
X0042000Y0198844D01*
X0042000Y0197245D02*
X0041600Y0197245D01*
X0039454Y0200442D02*
X0037233Y0200442D01*
X0037600Y0198844D02*
X0037855Y0198844D01*
X0037600Y0193412D02*
X0039305Y0191707D01*
X0036800Y0189202D01*
X0035672Y0190330D01*
X0036386Y0190626D01*
X0037174Y0191414D01*
X0037600Y0192443D01*
X0037600Y0193412D01*
X0037600Y0192450D02*
X0038562Y0192450D01*
X0038449Y0190851D02*
X0036611Y0190851D01*
X0036750Y0189253D02*
X0036850Y0189253D01*
X0032800Y0186000D02*
X0031800Y0186000D01*
X0041800Y0176000D02*
X0054800Y0176000D01*
X0054800Y0209000D01*
X0053800Y0210000D01*
X0018800Y0210000D01*
X0011800Y0203000D01*
X0011800Y0104000D01*
X0029800Y0086000D01*
X0064800Y0086000D01*
X0082800Y0069000D01*
X0104800Y0069000D01*
X0108267Y0074160D02*
X0109429Y0074160D01*
X0109865Y0072561D02*
X0111056Y0072561D01*
X0110590Y0070963D02*
X0112683Y0070963D01*
X0112700Y0069364D02*
X0110900Y0069364D01*
X0110891Y0067766D02*
X0113123Y0067766D01*
X0114006Y0066167D02*
X0110229Y0066167D01*
X0108995Y0064569D02*
X0115972Y0064569D01*
X0118800Y0070000D02*
X0061800Y0126000D01*
X0041800Y0126000D01*
X0038598Y0121000D02*
X0036093Y0118495D01*
X0034295Y0120293D01*
X0036800Y0122798D01*
X0038598Y0121000D01*
X0038114Y0120517D02*
X0034519Y0120517D01*
X0035670Y0118918D02*
X0036516Y0118918D01*
X0036118Y0122115D02*
X0037482Y0122115D01*
X0036925Y0109327D02*
X0035261Y0109327D01*
X0035521Y0102933D02*
X0036665Y0102933D01*
X0038263Y0101334D02*
X0033923Y0101334D01*
X0029148Y0091743D02*
X0091531Y0091743D01*
X0089904Y0093342D02*
X0027549Y0093342D01*
X0025951Y0094940D02*
X0088277Y0094940D01*
X0086650Y0096539D02*
X0024352Y0096539D01*
X0022754Y0098137D02*
X0085023Y0098137D01*
X0083396Y0099736D02*
X0021155Y0099736D01*
X0015768Y0094940D02*
X0006600Y0094940D01*
X0006600Y0093342D02*
X0017367Y0093342D01*
X0018965Y0091743D02*
X0006600Y0091743D01*
X0006600Y0090145D02*
X0020564Y0090145D01*
X0022162Y0088546D02*
X0006600Y0088546D01*
X0006600Y0086948D02*
X0023761Y0086948D01*
X0025359Y0085349D02*
X0006600Y0085349D01*
X0006600Y0083751D02*
X0026958Y0083751D01*
X0030746Y0090145D02*
X0093159Y0090145D01*
X0094786Y0088546D02*
X0067347Y0088546D01*
X0069039Y0086948D02*
X0096413Y0086948D01*
X0098040Y0085349D02*
X0070732Y0085349D01*
X0072424Y0083751D02*
X0099667Y0083751D01*
X0101294Y0082152D02*
X0074117Y0082152D01*
X0075810Y0080554D02*
X0102921Y0080554D01*
X0104548Y0078955D02*
X0077502Y0078955D01*
X0079195Y0077357D02*
X0106175Y0077357D01*
X0107802Y0075758D02*
X0080887Y0075758D01*
X0082580Y0074160D02*
X0101333Y0074160D01*
X0100605Y0064569D02*
X0043344Y0064569D01*
X0042616Y0066164D02*
X0042616Y0066164D01*
X0039111Y0070208D01*
X0034610Y0073101D01*
X0029476Y0074609D01*
X0024124Y0074609D01*
X0018990Y0073101D01*
X0014489Y0070208D01*
X0014489Y0070208D01*
X0010984Y0066164D01*
X0008762Y0061297D01*
X0008762Y0061297D01*
X0008000Y0056000D01*
X0008000Y0056000D01*
X0008762Y0050703D01*
X0010984Y0045836D01*
X0014489Y0041792D01*
X0018990Y0038899D01*
X0018990Y0038899D01*
X0024124Y0037391D01*
X0029476Y0037391D01*
X0034610Y0038899D01*
X0039111Y0041792D01*
X0042616Y0045836D01*
X0044838Y0050703D01*
X0045600Y0056000D01*
X0044838Y0061297D01*
X0042616Y0066164D01*
X0042613Y0066167D02*
X0080542Y0066167D01*
X0078864Y0067766D02*
X0041228Y0067766D01*
X0039843Y0069364D02*
X0077171Y0069364D01*
X0075479Y0070963D02*
X0037937Y0070963D01*
X0039111Y0070208D02*
X0039111Y0070208D01*
X0035450Y0072561D02*
X0073786Y0072561D01*
X0072094Y0074160D02*
X0031004Y0074160D01*
X0034610Y0073101D02*
X0034610Y0073101D01*
X0044074Y0062970D02*
X0103417Y0062970D01*
X0106183Y0062970D02*
X0189526Y0062970D01*
X0188796Y0061372D02*
X0044804Y0061372D01*
X0044838Y0061297D02*
X0044838Y0061297D01*
X0045057Y0059773D02*
X0188543Y0059773D01*
X0188762Y0061297D02*
X0188000Y0056000D01*
X0188000Y0056000D01*
X0188762Y0050703D01*
X0190984Y0045836D01*
X0194489Y0041792D01*
X0198990Y0038899D01*
X0198990Y0038899D01*
X0204124Y0037391D01*
X0209476Y0037391D01*
X0214610Y0038899D01*
X0219111Y0041792D01*
X0222616Y0045836D01*
X0224838Y0050703D01*
X0225600Y0056000D01*
X0225600Y0056000D01*
X0224838Y0061297D01*
X0222616Y0066164D01*
X0219111Y0070208D01*
X0214610Y0073101D01*
X0209476Y0074609D01*
X0204124Y0074609D01*
X0198990Y0073101D01*
X0194489Y0070208D01*
X0194489Y0070208D01*
X0190984Y0066164D01*
X0188762Y0061297D01*
X0188762Y0061297D01*
X0188313Y0058175D02*
X0045287Y0058175D01*
X0045517Y0056576D02*
X0188083Y0056576D01*
X0188147Y0054978D02*
X0045453Y0054978D01*
X0045223Y0053379D02*
X0188377Y0053379D01*
X0188607Y0051781D02*
X0044993Y0051781D01*
X0044838Y0050703D02*
X0044838Y0050703D01*
X0044600Y0050182D02*
X0189000Y0050182D01*
X0188762Y0050703D02*
X0188762Y0050703D01*
X0189730Y0048584D02*
X0043870Y0048584D01*
X0043140Y0046985D02*
X0190460Y0046985D01*
X0190984Y0045836D02*
X0190984Y0045836D01*
X0191374Y0045387D02*
X0042226Y0045387D01*
X0042616Y0045836D02*
X0042616Y0045836D01*
X0040841Y0043788D02*
X0192759Y0043788D01*
X0194144Y0042190D02*
X0039456Y0042190D01*
X0039111Y0041792D02*
X0039111Y0041792D01*
X0039111Y0041792D01*
X0037243Y0040591D02*
X0196357Y0040591D01*
X0194489Y0041792D02*
X0194489Y0041792D01*
X0198844Y0038993D02*
X0034755Y0038993D01*
X0034610Y0038899D02*
X0034610Y0038899D01*
X0029485Y0037394D02*
X0204115Y0037394D01*
X0209485Y0037394D02*
X0227000Y0037394D01*
X0227000Y0035800D02*
X0006600Y0035800D01*
X0006600Y0356200D01*
X0227000Y0356200D01*
X0227000Y0035800D01*
X0227000Y0038993D02*
X0214755Y0038993D01*
X0214610Y0038899D02*
X0214610Y0038899D01*
X0217243Y0040591D02*
X0227000Y0040591D01*
X0227000Y0042190D02*
X0219456Y0042190D01*
X0219111Y0041792D02*
X0219111Y0041792D01*
X0219111Y0041792D01*
X0220841Y0043788D02*
X0227000Y0043788D01*
X0227000Y0045387D02*
X0222226Y0045387D01*
X0222616Y0045836D02*
X0222616Y0045836D01*
X0223140Y0046985D02*
X0227000Y0046985D01*
X0227000Y0048584D02*
X0223870Y0048584D01*
X0224600Y0050182D02*
X0227000Y0050182D01*
X0227000Y0051781D02*
X0224993Y0051781D01*
X0224838Y0050703D02*
X0224838Y0050703D01*
X0225223Y0053379D02*
X0227000Y0053379D01*
X0227000Y0054978D02*
X0225453Y0054978D01*
X0225517Y0056576D02*
X0227000Y0056576D01*
X0227000Y0058175D02*
X0225287Y0058175D01*
X0225057Y0059773D02*
X0227000Y0059773D01*
X0227000Y0061372D02*
X0224804Y0061372D01*
X0224074Y0062970D02*
X0227000Y0062970D01*
X0227000Y0064569D02*
X0223344Y0064569D01*
X0222613Y0066167D02*
X0227000Y0066167D01*
X0227000Y0067766D02*
X0221228Y0067766D01*
X0219843Y0069364D02*
X0227000Y0069364D01*
X0227000Y0070963D02*
X0217937Y0070963D01*
X0219111Y0070208D02*
X0219111Y0070208D01*
X0215450Y0072561D02*
X0227000Y0072561D01*
X0227000Y0074160D02*
X0211004Y0074160D01*
X0214610Y0073101D02*
X0214610Y0073101D01*
X0202596Y0074160D02*
X0128641Y0074160D01*
X0131185Y0075758D02*
X0227000Y0075758D01*
X0227000Y0077357D02*
X0132308Y0077357D01*
X0132900Y0078955D02*
X0227000Y0078955D01*
X0227000Y0080554D02*
X0132900Y0080554D01*
X0132511Y0082152D02*
X0227000Y0082152D01*
X0227000Y0083751D02*
X0131676Y0083751D01*
X0129825Y0085349D02*
X0227000Y0085349D01*
X0227000Y0086948D02*
X0124943Y0086948D01*
X0123345Y0088546D02*
X0227000Y0088546D01*
X0227000Y0090145D02*
X0181011Y0090145D01*
X0182225Y0090470D02*
X0184801Y0091958D01*
X0186905Y0094062D01*
X0188393Y0096638D01*
X0189163Y0099512D01*
X0189163Y0102488D01*
X0188393Y0105362D01*
X0186905Y0107938D01*
X0184801Y0110042D01*
X0182225Y0111530D01*
X0179351Y0112300D01*
X0176375Y0112300D01*
X0173501Y0111530D01*
X0170925Y0110042D01*
X0168821Y0107938D01*
X0167333Y0105362D01*
X0166563Y0102488D01*
X0166563Y0099512D01*
X0167333Y0096638D01*
X0168821Y0094062D01*
X0170925Y0091958D01*
X0173501Y0090470D01*
X0176375Y0089700D01*
X0179351Y0089700D01*
X0182225Y0090470D01*
X0184430Y0091743D02*
X0196967Y0091743D01*
X0196495Y0091971D02*
X0197537Y0091469D01*
X0198629Y0091087D01*
X0199757Y0090830D01*
X0200685Y0090725D01*
X0200685Y0100200D01*
X0191210Y0100200D01*
X0191315Y0099272D01*
X0191572Y0098144D01*
X0191954Y0097052D01*
X0192456Y0096010D01*
X0193072Y0095030D01*
X0193793Y0094126D01*
X0194611Y0093308D01*
X0195515Y0092586D01*
X0196495Y0091971D01*
X0194577Y0093342D02*
X0186186Y0093342D01*
X0187413Y0094940D02*
X0193143Y0094940D01*
X0192201Y0096539D02*
X0188336Y0096539D01*
X0188795Y0098137D02*
X0191574Y0098137D01*
X0191262Y0099736D02*
X0189163Y0099736D01*
X0189163Y0101334D02*
X0200685Y0101334D01*
X0200685Y0101800D02*
X0200685Y0100200D01*
X0202285Y0100200D01*
X0202285Y0090725D01*
X0203213Y0090830D01*
X0204341Y0091087D01*
X0205433Y0091469D01*
X0206475Y0091971D01*
X0207455Y0092586D01*
X0208359Y0093308D01*
X0209177Y0094126D01*
X0209899Y0095030D01*
X0210514Y0096010D01*
X0211016Y0097052D01*
X0211398Y0098144D01*
X0211655Y0099272D01*
X0211760Y0100200D01*
X0202285Y0100200D01*
X0202285Y0101800D01*
X0200685Y0101800D01*
X0191210Y0101800D01*
X0191315Y0102728D01*
X0191572Y0103856D01*
X0191954Y0104948D01*
X0192456Y0105990D01*
X0193072Y0106970D01*
X0193793Y0107874D01*
X0194611Y0108692D01*
X0195515Y0109414D01*
X0196495Y0110029D01*
X0197537Y0110531D01*
X0198629Y0110913D01*
X0199757Y0111170D01*
X0200685Y0111275D01*
X0200685Y0101800D01*
X0200685Y0102933D02*
X0202285Y0102933D01*
X0202285Y0101800D02*
X0202285Y0111275D01*
X0203213Y0111170D01*
X0204341Y0110913D01*
X0205433Y0110531D01*
X0206475Y0110029D01*
X0207455Y0109414D01*
X0208359Y0108692D01*
X0209177Y0107874D01*
X0209899Y0106970D01*
X0210514Y0105990D01*
X0211016Y0104948D01*
X0211398Y0103856D01*
X0211655Y0102728D01*
X0211760Y0101800D01*
X0202285Y0101800D01*
X0202285Y0101334D02*
X0227000Y0101334D01*
X0227000Y0099736D02*
X0211708Y0099736D01*
X0211396Y0098137D02*
X0227000Y0098137D01*
X0227000Y0096539D02*
X0210769Y0096539D01*
X0209827Y0094940D02*
X0227000Y0094940D01*
X0227000Y0093342D02*
X0208393Y0093342D01*
X0206003Y0091743D02*
X0227000Y0091743D01*
X0227000Y0102933D02*
X0211609Y0102933D01*
X0211162Y0104532D02*
X0227000Y0104532D01*
X0227000Y0106130D02*
X0210426Y0106130D01*
X0209293Y0107729D02*
X0227000Y0107729D01*
X0227000Y0109327D02*
X0207563Y0109327D01*
X0204286Y0110926D02*
X0227000Y0110926D01*
X0227000Y0112524D02*
X0197261Y0112524D01*
X0197366Y0112630D02*
X0198088Y0113534D01*
X0198703Y0114514D01*
X0199205Y0115556D01*
X0199587Y0116648D01*
X0199844Y0117776D01*
X0199949Y0118704D01*
X0190474Y0118704D01*
X0190474Y0120304D01*
X0188874Y0120304D01*
X0188874Y0129779D01*
X0187946Y0129674D01*
X0186818Y0129417D01*
X0185726Y0129035D01*
X0184684Y0128533D01*
X0183704Y0127917D01*
X0182800Y0127196D01*
X0181982Y0126378D01*
X0181260Y0125474D01*
X0180645Y0124494D01*
X0180143Y0123452D01*
X0179761Y0122360D01*
X0179504Y0121232D01*
X0179399Y0120304D01*
X0188874Y0120304D01*
X0188874Y0118704D01*
X0179399Y0118704D01*
X0179504Y0117776D01*
X0179761Y0116648D01*
X0180143Y0115556D01*
X0180645Y0114514D01*
X0181260Y0113534D01*
X0181982Y0112630D01*
X0182800Y0111812D01*
X0183704Y0111090D01*
X0184684Y0110475D01*
X0185726Y0109973D01*
X0186818Y0109591D01*
X0187946Y0109333D01*
X0188874Y0109229D01*
X0188874Y0118704D01*
X0190474Y0118704D01*
X0190474Y0109229D01*
X0191402Y0109333D01*
X0192530Y0109591D01*
X0193622Y0109973D01*
X0194664Y0110475D01*
X0195644Y0111090D01*
X0196548Y0111812D01*
X0197366Y0112630D01*
X0198457Y0114123D02*
X0227000Y0114123D01*
X0227000Y0115721D02*
X0199263Y0115721D01*
X0199740Y0117320D02*
X0227000Y0117320D01*
X0227000Y0118918D02*
X0190474Y0118918D01*
X0190474Y0120304D02*
X0199949Y0120304D01*
X0199844Y0121232D01*
X0199587Y0122360D01*
X0199205Y0123452D01*
X0198703Y0124494D01*
X0198088Y0125474D01*
X0197366Y0126378D01*
X0196548Y0127196D01*
X0195644Y0127917D01*
X0194664Y0128533D01*
X0193622Y0129035D01*
X0192530Y0129417D01*
X0191402Y0129674D01*
X0190474Y0129779D01*
X0190474Y0120304D01*
X0190474Y0120517D02*
X0188874Y0120517D01*
X0188874Y0122115D02*
X0190474Y0122115D01*
X0190474Y0123714D02*
X0188874Y0123714D01*
X0188874Y0125312D02*
X0190474Y0125312D01*
X0190474Y0126911D02*
X0188874Y0126911D01*
X0188874Y0128509D02*
X0190474Y0128509D01*
X0194702Y0128509D02*
X0227000Y0128509D01*
X0227000Y0126911D02*
X0196834Y0126911D01*
X0198189Y0125312D02*
X0227000Y0125312D01*
X0227000Y0123714D02*
X0199079Y0123714D01*
X0199643Y0122115D02*
X0227000Y0122115D01*
X0227000Y0120517D02*
X0199925Y0120517D01*
X0200685Y0110926D02*
X0202285Y0110926D01*
X0202285Y0109327D02*
X0200685Y0109327D01*
X0200685Y0107729D02*
X0202285Y0107729D01*
X0202285Y0106130D02*
X0200685Y0106130D01*
X0200685Y0104532D02*
X0202285Y0104532D01*
X0202285Y0099736D02*
X0200685Y0099736D01*
X0200685Y0098137D02*
X0202285Y0098137D01*
X0202285Y0096539D02*
X0200685Y0096539D01*
X0200685Y0094940D02*
X0202285Y0094940D01*
X0202285Y0093342D02*
X0200685Y0093342D01*
X0200685Y0091743D02*
X0202285Y0091743D01*
X0191808Y0104532D02*
X0188615Y0104532D01*
X0189044Y0102933D02*
X0191361Y0102933D01*
X0192544Y0106130D02*
X0187949Y0106130D01*
X0187026Y0107729D02*
X0193677Y0107729D01*
X0195407Y0109327D02*
X0191345Y0109327D01*
X0190474Y0109327D02*
X0188874Y0109327D01*
X0188003Y0109327D02*
X0185517Y0109327D01*
X0183967Y0110926D02*
X0183271Y0110926D01*
X0182087Y0112524D02*
X0158295Y0112524D01*
X0156558Y0110926D02*
X0172455Y0110926D01*
X0170209Y0109327D02*
X0154820Y0109327D01*
X0153083Y0107729D02*
X0168700Y0107729D01*
X0167777Y0106130D02*
X0151345Y0106130D01*
X0150900Y0104532D02*
X0167111Y0104532D01*
X0166682Y0102933D02*
X0150546Y0102933D01*
X0149761Y0101334D02*
X0166563Y0101334D01*
X0166563Y0099736D02*
X0148032Y0099736D01*
X0144800Y0105000D02*
X0169800Y0128000D01*
X0169800Y0216000D01*
X0156800Y0229000D01*
X0148800Y0229000D01*
X0145184Y0234011D02*
X0138107Y0234011D01*
X0139687Y0235609D02*
X0207000Y0235609D01*
X0207000Y0234846D02*
X0207883Y0232715D01*
X0209515Y0231083D01*
X0211549Y0230240D01*
X0211284Y0230105D01*
X0210673Y0229661D01*
X0210139Y0229127D01*
X0209695Y0228516D01*
X0209352Y0227843D01*
X0209118Y0227124D01*
X0209000Y0226378D01*
X0209000Y0226200D01*
X0216600Y0226200D01*
X0216600Y0225800D01*
X0217000Y0225800D01*
X0217000Y0226200D01*
X0224600Y0226200D01*
X0224600Y0226378D01*
X0224482Y0227124D01*
X0224248Y0227843D01*
X0223905Y0228516D01*
X0223461Y0229127D01*
X0222927Y0229661D01*
X0222316Y0230105D01*
X0221643Y0230448D01*
X0221032Y0230647D01*
X0222085Y0231083D01*
X0223717Y0232715D01*
X0224600Y0234846D01*
X0224600Y0237154D01*
X0223717Y0239285D01*
X0222085Y0240917D01*
X0221032Y0241353D01*
X0221643Y0241552D01*
X0222316Y0241895D01*
X0222927Y0242339D01*
X0223461Y0242873D01*
X0223905Y0243484D01*
X0224248Y0244157D01*
X0224482Y0244876D01*
X0224600Y0245622D01*
X0224600Y0245800D01*
X0217000Y0245800D01*
X0217000Y0246200D01*
X0216600Y0246200D01*
X0216600Y0250800D01*
X0213422Y0250800D01*
X0212676Y0250682D01*
X0211957Y0250448D01*
X0211284Y0250105D01*
X0210673Y0249661D01*
X0210139Y0249127D01*
X0209695Y0248516D01*
X0209352Y0247843D01*
X0209118Y0247124D01*
X0209000Y0246378D01*
X0209000Y0246200D01*
X0216600Y0246200D01*
X0216600Y0245800D01*
X0209000Y0245800D01*
X0209000Y0245622D01*
X0209118Y0244876D01*
X0209352Y0244157D01*
X0209695Y0243484D01*
X0210139Y0242873D01*
X0210673Y0242339D01*
X0211284Y0241895D01*
X0211549Y0241760D01*
X0209515Y0240917D01*
X0207883Y0239285D01*
X0207000Y0237154D01*
X0207000Y0234846D01*
X0207346Y0234011D02*
X0152416Y0234011D01*
X0157969Y0232412D02*
X0208185Y0232412D01*
X0210164Y0230814D02*
X0160077Y0230814D01*
X0161676Y0229215D02*
X0210227Y0229215D01*
X0209278Y0227617D02*
X0163274Y0227617D01*
X0164873Y0226018D02*
X0216600Y0226018D01*
X0216600Y0225800D02*
X0209000Y0225800D01*
X0209000Y0225622D01*
X0209118Y0224876D01*
X0209352Y0224157D01*
X0209695Y0223484D01*
X0210139Y0222873D01*
X0210673Y0222339D01*
X0211284Y0221895D01*
X0211957Y0221552D01*
X0212676Y0221318D01*
X0213422Y0221200D01*
X0216600Y0221200D01*
X0216600Y0225800D01*
X0217000Y0225800D02*
X0217000Y0221200D01*
X0220178Y0221200D01*
X0220924Y0221318D01*
X0221643Y0221552D01*
X0222316Y0221895D01*
X0222927Y0222339D01*
X0223461Y0222873D01*
X0223905Y0223484D01*
X0224248Y0224157D01*
X0224482Y0224876D01*
X0224600Y0225622D01*
X0224600Y0225800D01*
X0217000Y0225800D01*
X0217000Y0226018D02*
X0227000Y0226018D01*
X0227000Y0224420D02*
X0224334Y0224420D01*
X0223410Y0222821D02*
X0227000Y0222821D01*
X0227000Y0221223D02*
X0220322Y0221223D01*
X0217000Y0221223D02*
X0216600Y0221223D01*
X0216600Y0222821D02*
X0217000Y0222821D01*
X0217000Y0224420D02*
X0216600Y0224420D01*
X0213278Y0221223D02*
X0169668Y0221223D01*
X0168070Y0222821D02*
X0210190Y0222821D01*
X0209266Y0224420D02*
X0166471Y0224420D01*
X0171267Y0219624D02*
X0227000Y0219624D01*
X0227000Y0218026D02*
X0172857Y0218026D01*
X0173400Y0216427D02*
X0227000Y0216427D01*
X0227000Y0214829D02*
X0173400Y0214829D01*
X0173400Y0213230D02*
X0227000Y0213230D01*
X0227000Y0211632D02*
X0173400Y0211632D01*
X0173400Y0210033D02*
X0190079Y0210033D01*
X0190167Y0210057D02*
X0189110Y0209774D01*
X0188099Y0209355D01*
X0187151Y0208808D01*
X0186283Y0208141D01*
X0185509Y0207367D01*
X0184842Y0206499D01*
X0184295Y0205551D01*
X0183876Y0204540D01*
X0183593Y0203482D01*
X0183483Y0202650D01*
X0191000Y0202650D01*
X0191000Y0210167D01*
X0190167Y0210057D01*
X0191000Y0210033D02*
X0192600Y0210033D01*
X0192600Y0210167D02*
X0192600Y0202650D01*
X0191000Y0202650D01*
X0191000Y0201050D01*
X0183483Y0201050D01*
X0183593Y0200217D01*
X0183876Y0199160D01*
X0184295Y0198149D01*
X0184842Y0197201D01*
X0185509Y0196333D01*
X0186283Y0195559D01*
X0187151Y0194892D01*
X0188099Y0194345D01*
X0189110Y0193926D01*
X0190167Y0193643D01*
X0191000Y0193533D01*
X0191000Y0201050D01*
X0192600Y0201050D01*
X0192600Y0202650D01*
X0200117Y0202650D01*
X0200007Y0203482D01*
X0199724Y0204540D01*
X0199305Y0205551D01*
X0198758Y0206499D01*
X0198091Y0207367D01*
X0197317Y0208141D01*
X0196449Y0208808D01*
X0195501Y0209355D01*
X0194490Y0209774D01*
X0193432Y0210057D01*
X0192600Y0210167D01*
X0193521Y0210033D02*
X0227000Y0210033D01*
X0227000Y0208435D02*
X0196935Y0208435D01*
X0198499Y0206836D02*
X0227000Y0206836D01*
X0227000Y0205238D02*
X0199435Y0205238D01*
X0199965Y0203639D02*
X0227000Y0203639D01*
X0227000Y0202041D02*
X0192600Y0202041D01*
X0192600Y0201050D02*
X0200117Y0201050D01*
X0200007Y0200217D01*
X0199724Y0199160D01*
X0199305Y0198149D01*
X0198758Y0197201D01*
X0198091Y0196333D01*
X0197317Y0195559D01*
X0196449Y0194892D01*
X0195501Y0194345D01*
X0194490Y0193926D01*
X0193432Y0193643D01*
X0192600Y0193533D01*
X0192600Y0201050D01*
X0192600Y0200442D02*
X0191000Y0200442D01*
X0191000Y0198844D02*
X0192600Y0198844D01*
X0192600Y0197245D02*
X0191000Y0197245D01*
X0191000Y0195647D02*
X0192600Y0195647D01*
X0192600Y0194048D02*
X0191000Y0194048D01*
X0188816Y0194048D02*
X0182758Y0194048D01*
X0182866Y0194013D02*
X0182177Y0194237D01*
X0181462Y0194350D01*
X0181200Y0194350D01*
X0181200Y0189850D01*
X0185700Y0189850D01*
X0185700Y0190112D01*
X0185587Y0190827D01*
X0185363Y0191516D01*
X0185034Y0192161D01*
X0184609Y0192747D01*
X0184097Y0193259D01*
X0183511Y0193684D01*
X0182866Y0194013D01*
X0181200Y0194048D02*
X0181000Y0194048D01*
X0181000Y0194350D02*
X0180738Y0194350D01*
X0180023Y0194237D01*
X0179334Y0194013D01*
X0178689Y0193684D01*
X0178103Y0193259D01*
X0177591Y0192747D01*
X0177166Y0192161D01*
X0176837Y0191516D01*
X0176613Y0190827D01*
X0176500Y0190112D01*
X0176500Y0189850D01*
X0181000Y0189850D01*
X0181000Y0194350D01*
X0179442Y0194048D02*
X0173400Y0194048D01*
X0173400Y0192450D02*
X0177376Y0192450D01*
X0176621Y0190851D02*
X0173400Y0190851D01*
X0173400Y0189253D02*
X0176521Y0189253D01*
X0176500Y0189388D02*
X0176613Y0188673D01*
X0176837Y0187984D01*
X0177166Y0187339D01*
X0177591Y0186753D01*
X0178103Y0186241D01*
X0178689Y0185816D01*
X0179334Y0185487D01*
X0179614Y0185396D01*
X0177928Y0184697D01*
X0176353Y0183122D01*
X0175500Y0181064D01*
X0175500Y0178836D01*
X0176353Y0176778D01*
X0177130Y0176000D01*
X0176353Y0175222D01*
X0175500Y0173164D01*
X0175500Y0170936D01*
X0176353Y0168878D01*
X0177928Y0167303D01*
X0178296Y0167150D01*
X0177928Y0166997D01*
X0176353Y0165422D01*
X0175500Y0163364D01*
X0175500Y0161136D01*
X0176353Y0159078D01*
X0177928Y0157503D01*
X0179986Y0156650D01*
X0182214Y0156650D01*
X0184272Y0157503D01*
X0185847Y0159078D01*
X0186700Y0161136D01*
X0186700Y0163364D01*
X0185847Y0165422D01*
X0184272Y0166997D01*
X0183904Y0167150D01*
X0184272Y0167303D01*
X0185847Y0168878D01*
X0186700Y0170936D01*
X0186700Y0173164D01*
X0185847Y0175222D01*
X0185070Y0176000D01*
X0185847Y0176778D01*
X0186700Y0178836D01*
X0186700Y0181064D01*
X0185847Y0183122D01*
X0184272Y0184697D01*
X0182586Y0185396D01*
X0182866Y0185487D01*
X0183511Y0185816D01*
X0184097Y0186241D01*
X0184609Y0186753D01*
X0185034Y0187339D01*
X0185363Y0187984D01*
X0185587Y0188673D01*
X0185700Y0189388D01*
X0185700Y0189650D01*
X0181200Y0189650D01*
X0181200Y0189850D01*
X0181000Y0189850D01*
X0181000Y0189650D01*
X0176500Y0189650D01*
X0176500Y0189388D01*
X0177005Y0187654D02*
X0173400Y0187654D01*
X0173400Y0186056D02*
X0178359Y0186056D01*
X0177687Y0184457D02*
X0173400Y0184457D01*
X0173400Y0182859D02*
X0176243Y0182859D01*
X0175581Y0181260D02*
X0173400Y0181260D01*
X0173400Y0179662D02*
X0175500Y0179662D01*
X0175820Y0178063D02*
X0173400Y0178063D01*
X0173400Y0176465D02*
X0176666Y0176465D01*
X0176205Y0174866D02*
X0173400Y0174866D01*
X0173400Y0173268D02*
X0175543Y0173268D01*
X0175500Y0171669D02*
X0173400Y0171669D01*
X0173400Y0170070D02*
X0175859Y0170070D01*
X0176758Y0168472D02*
X0173400Y0168472D01*
X0173400Y0166873D02*
X0177804Y0166873D01*
X0176292Y0165275D02*
X0173400Y0165275D01*
X0173400Y0163676D02*
X0175629Y0163676D01*
X0175500Y0162078D02*
X0173400Y0162078D01*
X0173400Y0160479D02*
X0175772Y0160479D01*
X0176549Y0158881D02*
X0173400Y0158881D01*
X0173400Y0157282D02*
X0178459Y0157282D01*
X0183741Y0157282D02*
X0187454Y0157282D01*
X0187151Y0157108D02*
X0186283Y0156441D01*
X0185509Y0155667D01*
X0184842Y0154799D01*
X0184295Y0153851D01*
X0183876Y0152840D01*
X0183593Y0151782D01*
X0183483Y0150950D01*
X0191000Y0150950D01*
X0191000Y0158467D01*
X0190167Y0158357D01*
X0189110Y0158074D01*
X0188099Y0157655D01*
X0187151Y0157108D01*
X0185525Y0155684D02*
X0173400Y0155684D01*
X0173400Y0154085D02*
X0184430Y0154085D01*
X0183782Y0152487D02*
X0173400Y0152487D01*
X0173400Y0150888D02*
X0191000Y0150888D01*
X0191000Y0150950D02*
X0191000Y0149350D01*
X0183483Y0149350D01*
X0183593Y0148517D01*
X0183876Y0147460D01*
X0184295Y0146449D01*
X0184842Y0145501D01*
X0185509Y0144633D01*
X0186283Y0143859D01*
X0187151Y0143192D01*
X0188099Y0142645D01*
X0189110Y0142226D01*
X0190167Y0141943D01*
X0191000Y0141833D01*
X0191000Y0149350D01*
X0192600Y0149350D01*
X0192600Y0150950D01*
X0191000Y0150950D01*
X0191000Y0152487D02*
X0192600Y0152487D01*
X0192600Y0150950D02*
X0192600Y0158467D01*
X0193432Y0158357D01*
X0194490Y0158074D01*
X0195501Y0157655D01*
X0196449Y0157108D01*
X0197317Y0156441D01*
X0198091Y0155667D01*
X0198758Y0154799D01*
X0199305Y0153851D01*
X0199724Y0152840D01*
X0200007Y0151782D01*
X0200117Y0150950D01*
X0192600Y0150950D01*
X0192600Y0150888D02*
X0227000Y0150888D01*
X0227000Y0149290D02*
X0200109Y0149290D01*
X0200117Y0149350D02*
X0192600Y0149350D01*
X0192600Y0141833D01*
X0193432Y0141943D01*
X0194490Y0142226D01*
X0195501Y0142645D01*
X0196449Y0143192D01*
X0197317Y0143859D01*
X0198091Y0144633D01*
X0198758Y0145501D01*
X0199305Y0146449D01*
X0199724Y0147460D01*
X0200007Y0148517D01*
X0200117Y0149350D01*
X0199786Y0147691D02*
X0227000Y0147691D01*
X0227000Y0146093D02*
X0199099Y0146093D01*
X0197953Y0144494D02*
X0227000Y0144494D01*
X0227000Y0142896D02*
X0195935Y0142896D01*
X0192600Y0142896D02*
X0191000Y0142896D01*
X0191000Y0144494D02*
X0192600Y0144494D01*
X0192600Y0146093D02*
X0191000Y0146093D01*
X0191000Y0147691D02*
X0192600Y0147691D01*
X0192600Y0149290D02*
X0191000Y0149290D01*
X0191000Y0154085D02*
X0192600Y0154085D01*
X0192600Y0155684D02*
X0191000Y0155684D01*
X0191000Y0157282D02*
X0192600Y0157282D01*
X0196146Y0157282D02*
X0227000Y0157282D01*
X0227000Y0155684D02*
X0198075Y0155684D01*
X0199170Y0154085D02*
X0227000Y0154085D01*
X0227000Y0152487D02*
X0199818Y0152487D01*
X0187665Y0142896D02*
X0173400Y0142896D01*
X0173400Y0144494D02*
X0185647Y0144494D01*
X0184501Y0146093D02*
X0173400Y0146093D01*
X0173400Y0147691D02*
X0183814Y0147691D01*
X0183491Y0149290D02*
X0173400Y0149290D01*
X0166200Y0149290D02*
X0152601Y0149290D01*
X0151003Y0150888D02*
X0166200Y0150888D01*
X0166200Y0152487D02*
X0149404Y0152487D01*
X0147806Y0154085D02*
X0166200Y0154085D01*
X0166200Y0155684D02*
X0162122Y0155684D01*
X0164285Y0157282D02*
X0166200Y0157282D01*
X0166200Y0158881D02*
X0165200Y0158881D01*
X0165600Y0160479D02*
X0166200Y0160479D01*
X0166200Y0162078D02*
X0165600Y0162078D01*
X0166200Y0163676D02*
X0164969Y0163676D01*
X0166200Y0165275D02*
X0163727Y0165275D01*
X0164876Y0166873D02*
X0166200Y0166873D01*
X0166200Y0168472D02*
X0166031Y0168472D01*
X0166139Y0173268D02*
X0166200Y0173268D01*
X0166200Y0174866D02*
X0165136Y0174866D01*
X0166200Y0176465D02*
X0163467Y0176465D01*
X0164861Y0178063D02*
X0166200Y0178063D01*
X0166200Y0179662D02*
X0165523Y0179662D01*
X0165600Y0181260D02*
X0166200Y0181260D01*
X0166200Y0182859D02*
X0165308Y0182859D01*
X0164545Y0184457D02*
X0166200Y0184457D01*
X0166200Y0186056D02*
X0162751Y0186056D01*
X0164242Y0187654D02*
X0166200Y0187654D01*
X0166200Y0189253D02*
X0165279Y0189253D01*
X0166200Y0190851D02*
X0158000Y0190851D01*
X0158000Y0191200D02*
X0165600Y0191200D01*
X0165600Y0191378D01*
X0165482Y0192124D01*
X0165248Y0192843D01*
X0164905Y0193516D01*
X0164461Y0194127D01*
X0163927Y0194661D01*
X0163316Y0195105D01*
X0162643Y0195448D01*
X0161924Y0195682D01*
X0161178Y0195800D01*
X0158000Y0195800D01*
X0158000Y0191200D01*
X0157600Y0190851D02*
X0095454Y0190851D01*
X0097033Y0192450D02*
X0150224Y0192450D01*
X0151082Y0194048D02*
X0098613Y0194048D01*
X0100193Y0195647D02*
X0153568Y0195647D01*
X0150321Y0189253D02*
X0093874Y0189253D01*
X0092294Y0187654D02*
X0151358Y0187654D01*
X0150849Y0186056D02*
X0090714Y0186056D01*
X0089135Y0184457D02*
X0149055Y0184457D01*
X0148292Y0182859D02*
X0087555Y0182859D01*
X0085975Y0181260D02*
X0148000Y0181260D01*
X0148077Y0179662D02*
X0084395Y0179662D01*
X0082816Y0178063D02*
X0148739Y0178063D01*
X0150133Y0176465D02*
X0081236Y0176465D01*
X0079900Y0174866D02*
X0150464Y0174866D01*
X0149461Y0173268D02*
X0079900Y0173268D01*
X0081222Y0171669D02*
X0149000Y0171669D01*
X0149000Y0170070D02*
X0082821Y0170070D01*
X0082800Y0165000D02*
X0073800Y0174000D01*
X0071800Y0172000D01*
X0063800Y0166000D01*
X0041800Y0166000D01*
X0041800Y0156000D02*
X0116800Y0156000D01*
X0126800Y0146000D01*
X0133800Y0139000D02*
X0117800Y0139000D01*
X0110800Y0146000D01*
X0041800Y0146000D01*
X0045300Y0141297D02*
X0110412Y0141297D01*
X0112010Y0139699D02*
X0046304Y0139699D01*
X0041800Y0136000D02*
X0070800Y0136000D01*
X0126800Y0080000D01*
X0122415Y0075758D02*
X0120838Y0075758D01*
X0121292Y0077357D02*
X0116449Y0077357D01*
X0114822Y0078955D02*
X0120700Y0078955D01*
X0120700Y0080554D02*
X0113195Y0080554D01*
X0111567Y0082152D02*
X0119556Y0082152D01*
X0117958Y0083751D02*
X0109940Y0083751D01*
X0108313Y0085349D02*
X0116359Y0085349D01*
X0114761Y0086948D02*
X0106686Y0086948D01*
X0105059Y0088546D02*
X0113162Y0088546D01*
X0111564Y0090145D02*
X0103432Y0090145D01*
X0101805Y0091743D02*
X0109965Y0091743D01*
X0108367Y0093342D02*
X0100178Y0093342D01*
X0098551Y0094940D02*
X0106768Y0094940D01*
X0105170Y0096539D02*
X0096924Y0096539D01*
X0095297Y0098137D02*
X0103571Y0098137D01*
X0101973Y0099736D02*
X0093670Y0099736D01*
X0092043Y0101334D02*
X0100374Y0101334D01*
X0098776Y0102933D02*
X0090416Y0102933D01*
X0088789Y0104532D02*
X0097177Y0104532D01*
X0095579Y0106130D02*
X0087162Y0106130D01*
X0085535Y0107729D02*
X0093980Y0107729D01*
X0092382Y0109327D02*
X0083907Y0109327D01*
X0082280Y0110926D02*
X0090783Y0110926D01*
X0089185Y0112524D02*
X0080653Y0112524D01*
X0079026Y0114123D02*
X0087586Y0114123D01*
X0085988Y0115721D02*
X0077399Y0115721D01*
X0075772Y0117320D02*
X0084389Y0117320D01*
X0082791Y0118918D02*
X0074145Y0118918D01*
X0072518Y0120517D02*
X0081192Y0120517D01*
X0079594Y0122115D02*
X0070891Y0122115D01*
X0069264Y0123714D02*
X0077995Y0123714D01*
X0076397Y0125312D02*
X0067637Y0125312D01*
X0066010Y0126911D02*
X0074798Y0126911D01*
X0073200Y0128509D02*
X0064383Y0128509D01*
X0070003Y0131706D02*
X0045709Y0131706D01*
X0045895Y0130108D02*
X0071601Y0130108D01*
X0076988Y0134903D02*
X0129270Y0134903D01*
X0131610Y0133305D02*
X0078586Y0133305D01*
X0080185Y0131706D02*
X0145148Y0131706D01*
X0144700Y0133305D02*
X0135990Y0133305D01*
X0138330Y0134903D02*
X0144700Y0134903D01*
X0143207Y0136502D02*
X0139368Y0136502D01*
X0139900Y0138100D02*
X0141609Y0138100D01*
X0140010Y0139699D02*
X0139900Y0139699D01*
X0146066Y0130108D02*
X0081783Y0130108D01*
X0083382Y0128509D02*
X0148116Y0128509D01*
X0150021Y0125312D02*
X0086579Y0125312D01*
X0088177Y0123714D02*
X0148423Y0123714D01*
X0146824Y0122115D02*
X0089776Y0122115D01*
X0091375Y0120517D02*
X0145225Y0120517D01*
X0140091Y0118918D02*
X0092973Y0118918D01*
X0094572Y0117320D02*
X0138572Y0117320D01*
X0137910Y0115721D02*
X0096170Y0115721D01*
X0097769Y0114123D02*
X0137700Y0114123D01*
X0137809Y0112524D02*
X0099367Y0112524D01*
X0100966Y0110926D02*
X0138471Y0110926D01*
X0139846Y0109327D02*
X0102564Y0109327D01*
X0104163Y0107729D02*
X0139328Y0107729D01*
X0138700Y0106130D02*
X0105761Y0106130D01*
X0107360Y0104532D02*
X0138700Y0104532D01*
X0139054Y0102933D02*
X0108958Y0102933D01*
X0110557Y0101334D02*
X0139839Y0101334D01*
X0141568Y0099736D02*
X0112155Y0099736D01*
X0113754Y0098137D02*
X0166931Y0098137D01*
X0167390Y0096539D02*
X0115352Y0096539D01*
X0116951Y0094940D02*
X0168313Y0094940D01*
X0169540Y0093342D02*
X0118549Y0093342D01*
X0120148Y0091743D02*
X0171296Y0091743D01*
X0174715Y0090145D02*
X0121746Y0090145D01*
X0123267Y0074160D02*
X0124959Y0074160D01*
X0124342Y0072561D02*
X0198150Y0072561D01*
X0198990Y0073101D02*
X0198990Y0073101D01*
X0195663Y0070963D02*
X0124900Y0070963D01*
X0124900Y0069364D02*
X0193757Y0069364D01*
X0194489Y0070208D02*
X0194489Y0070208D01*
X0192372Y0067766D02*
X0124477Y0067766D01*
X0123594Y0066167D02*
X0190987Y0066167D01*
X0190984Y0066164D02*
X0190984Y0066164D01*
X0190256Y0064569D02*
X0121628Y0064569D01*
X0143800Y0114000D02*
X0157800Y0128000D01*
X0157800Y0139000D01*
X0142800Y0154000D01*
X0146207Y0155684D02*
X0151478Y0155684D01*
X0149315Y0157282D02*
X0145043Y0157282D01*
X0143546Y0158881D02*
X0148400Y0158881D01*
X0148000Y0160479D02*
X0129412Y0160479D01*
X0131010Y0158881D02*
X0136054Y0158881D01*
X0134557Y0157282D02*
X0132609Y0157282D01*
X0127813Y0162078D02*
X0148000Y0162078D01*
X0148631Y0163676D02*
X0126215Y0163676D01*
X0124616Y0165275D02*
X0149873Y0165275D01*
X0150724Y0166873D02*
X0123018Y0166873D01*
X0120825Y0168472D02*
X0149569Y0168472D01*
X0154200Y0147691D02*
X0166200Y0147691D01*
X0166200Y0146093D02*
X0155798Y0146093D01*
X0157397Y0144494D02*
X0166200Y0144494D01*
X0166200Y0142896D02*
X0158995Y0142896D01*
X0160594Y0141297D02*
X0166200Y0141297D01*
X0166200Y0139699D02*
X0161400Y0139699D01*
X0161400Y0138100D02*
X0166200Y0138100D01*
X0166200Y0136502D02*
X0161400Y0136502D01*
X0161400Y0134903D02*
X0166200Y0134903D01*
X0166200Y0133305D02*
X0161400Y0133305D01*
X0161400Y0131706D02*
X0166200Y0131706D01*
X0166200Y0130108D02*
X0161400Y0130108D01*
X0161400Y0128509D02*
X0165036Y0128509D01*
X0163299Y0126911D02*
X0161245Y0126911D01*
X0161561Y0125312D02*
X0160203Y0125312D01*
X0159824Y0123714D02*
X0158605Y0123714D01*
X0158086Y0122115D02*
X0157006Y0122115D01*
X0156349Y0120517D02*
X0155408Y0120517D01*
X0154611Y0118918D02*
X0153809Y0118918D01*
X0152874Y0117320D02*
X0152211Y0117320D01*
X0151136Y0115721D02*
X0150612Y0115721D01*
X0151620Y0126911D02*
X0084980Y0126911D01*
X0075389Y0136502D02*
X0115207Y0136502D01*
X0113609Y0138100D02*
X0073791Y0138100D01*
X0062244Y0120517D02*
X0045486Y0120517D01*
X0046118Y0122115D02*
X0060617Y0122115D01*
X0063872Y0118918D02*
X0047084Y0118918D01*
X0047600Y0117320D02*
X0065499Y0117320D01*
X0067126Y0115721D02*
X0047600Y0115721D01*
X0047600Y0114123D02*
X0068753Y0114123D01*
X0070380Y0112524D02*
X0046526Y0112524D01*
X0045077Y0110926D02*
X0072007Y0110926D01*
X0073634Y0109327D02*
X0046675Y0109327D01*
X0047600Y0107729D02*
X0075261Y0107729D01*
X0076888Y0106130D02*
X0047600Y0106130D01*
X0047600Y0104532D02*
X0078515Y0104532D01*
X0080142Y0102933D02*
X0046935Y0102933D01*
X0045337Y0101334D02*
X0081769Y0101334D01*
X0067016Y0078955D02*
X0006600Y0078955D01*
X0006600Y0077357D02*
X0068709Y0077357D01*
X0070401Y0075758D02*
X0006600Y0075758D01*
X0006600Y0074160D02*
X0022596Y0074160D01*
X0018990Y0073101D02*
X0018990Y0073101D01*
X0018150Y0072561D02*
X0006600Y0072561D01*
X0006600Y0070963D02*
X0015663Y0070963D01*
X0014489Y0070208D02*
X0014489Y0070208D01*
X0013757Y0069364D02*
X0006600Y0069364D01*
X0006600Y0067766D02*
X0012372Y0067766D01*
X0010987Y0066167D02*
X0006600Y0066167D01*
X0006600Y0064569D02*
X0010256Y0064569D01*
X0010984Y0066164D02*
X0010984Y0066164D01*
X0009526Y0062970D02*
X0006600Y0062970D01*
X0006600Y0061372D02*
X0008796Y0061372D01*
X0008543Y0059773D02*
X0006600Y0059773D01*
X0006600Y0058175D02*
X0008313Y0058175D01*
X0008083Y0056576D02*
X0006600Y0056576D01*
X0006600Y0054978D02*
X0008147Y0054978D01*
X0008377Y0053379D02*
X0006600Y0053379D01*
X0006600Y0051781D02*
X0008607Y0051781D01*
X0008762Y0050703D02*
X0008762Y0050703D01*
X0009000Y0050182D02*
X0006600Y0050182D01*
X0006600Y0048584D02*
X0009730Y0048584D01*
X0010460Y0046985D02*
X0006600Y0046985D01*
X0006600Y0045387D02*
X0011374Y0045387D01*
X0010984Y0045836D02*
X0010984Y0045836D01*
X0012759Y0043788D02*
X0006600Y0043788D01*
X0006600Y0042190D02*
X0014144Y0042190D01*
X0014489Y0041792D02*
X0014489Y0041792D01*
X0016357Y0040591D02*
X0006600Y0040591D01*
X0006600Y0038993D02*
X0018844Y0038993D01*
X0024115Y0037394D02*
X0006600Y0037394D01*
X0006600Y0080554D02*
X0065323Y0080554D01*
X0063631Y0082152D02*
X0006600Y0082152D01*
X0006600Y0096539D02*
X0014170Y0096539D01*
X0012571Y0098137D02*
X0006600Y0098137D01*
X0006600Y0099736D02*
X0010973Y0099736D01*
X0009374Y0101334D02*
X0006600Y0101334D01*
X0006600Y0102933D02*
X0008345Y0102933D01*
X0008200Y0104532D02*
X0006600Y0104532D01*
X0006600Y0106130D02*
X0008200Y0106130D01*
X0008200Y0107729D02*
X0006600Y0107729D01*
X0006600Y0109327D02*
X0008200Y0109327D01*
X0008200Y0110926D02*
X0006600Y0110926D01*
X0006600Y0112524D02*
X0008200Y0112524D01*
X0008200Y0114123D02*
X0006600Y0114123D01*
X0006600Y0115721D02*
X0008200Y0115721D01*
X0008200Y0117320D02*
X0006600Y0117320D01*
X0006600Y0118918D02*
X0008200Y0118918D01*
X0008200Y0120517D02*
X0006600Y0120517D01*
X0006600Y0122115D02*
X0008200Y0122115D01*
X0008200Y0123714D02*
X0006600Y0123714D01*
X0006600Y0125312D02*
X0008200Y0125312D01*
X0008200Y0126911D02*
X0006600Y0126911D01*
X0006600Y0128509D02*
X0008200Y0128509D01*
X0008200Y0130108D02*
X0006600Y0130108D01*
X0006600Y0131706D02*
X0008200Y0131706D01*
X0008200Y0133305D02*
X0006600Y0133305D01*
X0006600Y0134903D02*
X0008200Y0134903D01*
X0008200Y0136502D02*
X0006600Y0136502D01*
X0006600Y0138100D02*
X0008200Y0138100D01*
X0008200Y0139699D02*
X0006600Y0139699D01*
X0006600Y0141297D02*
X0008200Y0141297D01*
X0008200Y0142896D02*
X0006600Y0142896D01*
X0006600Y0144494D02*
X0008200Y0144494D01*
X0008200Y0146093D02*
X0006600Y0146093D01*
X0006600Y0147691D02*
X0008200Y0147691D01*
X0008200Y0149290D02*
X0006600Y0149290D01*
X0006600Y0150888D02*
X0008200Y0150888D01*
X0008200Y0152487D02*
X0006600Y0152487D01*
X0006600Y0154085D02*
X0008200Y0154085D01*
X0008200Y0155684D02*
X0006600Y0155684D01*
X0006600Y0157282D02*
X0008200Y0157282D01*
X0008200Y0158881D02*
X0006600Y0158881D01*
X0006600Y0160479D02*
X0008200Y0160479D01*
X0008200Y0162078D02*
X0006600Y0162078D01*
X0006600Y0163676D02*
X0008200Y0163676D01*
X0008200Y0165275D02*
X0006600Y0165275D01*
X0006600Y0166873D02*
X0008200Y0166873D01*
X0008200Y0168472D02*
X0006600Y0168472D01*
X0006600Y0170070D02*
X0008200Y0170070D01*
X0008200Y0171669D02*
X0006600Y0171669D01*
X0006600Y0173268D02*
X0008200Y0173268D01*
X0008200Y0174866D02*
X0006600Y0174866D01*
X0006600Y0176465D02*
X0008200Y0176465D01*
X0008200Y0178063D02*
X0006600Y0178063D01*
X0006600Y0179662D02*
X0008200Y0179662D01*
X0008200Y0181260D02*
X0006600Y0181260D01*
X0006600Y0182859D02*
X0008200Y0182859D01*
X0008200Y0184457D02*
X0006600Y0184457D01*
X0006600Y0186056D02*
X0008200Y0186056D01*
X0008200Y0187654D02*
X0006600Y0187654D01*
X0006600Y0189253D02*
X0008200Y0189253D01*
X0008200Y0190851D02*
X0006600Y0190851D01*
X0006600Y0192450D02*
X0008200Y0192450D01*
X0008200Y0194048D02*
X0006600Y0194048D01*
X0006600Y0195647D02*
X0008200Y0195647D01*
X0008200Y0197245D02*
X0006600Y0197245D01*
X0006600Y0198844D02*
X0008200Y0198844D01*
X0008200Y0200442D02*
X0006600Y0200442D01*
X0006600Y0202041D02*
X0008200Y0202041D01*
X0008200Y0203639D02*
X0006600Y0203639D01*
X0006600Y0205238D02*
X0008947Y0205238D01*
X0010545Y0206836D02*
X0006600Y0206836D01*
X0006600Y0208435D02*
X0012144Y0208435D01*
X0013742Y0210033D02*
X0006600Y0210033D01*
X0006600Y0211632D02*
X0015341Y0211632D01*
X0017191Y0213230D02*
X0006600Y0213230D01*
X0006600Y0214829D02*
X0098538Y0214829D01*
X0100136Y0216427D02*
X0006600Y0216427D01*
X0006600Y0218026D02*
X0101735Y0218026D01*
X0103333Y0219624D02*
X0006600Y0219624D01*
X0006600Y0221223D02*
X0104932Y0221223D01*
X0106530Y0222821D02*
X0006600Y0222821D01*
X0006600Y0224420D02*
X0108129Y0224420D01*
X0109727Y0226018D02*
X0006600Y0226018D01*
X0006600Y0227617D02*
X0111326Y0227617D01*
X0112924Y0229215D02*
X0006600Y0229215D01*
X0006600Y0230814D02*
X0114523Y0230814D01*
X0116121Y0232412D02*
X0006600Y0232412D01*
X0006600Y0234011D02*
X0117720Y0234011D01*
X0119318Y0235609D02*
X0006600Y0235609D01*
X0006600Y0237208D02*
X0120917Y0237208D01*
X0122515Y0238806D02*
X0006600Y0238806D01*
X0006600Y0240405D02*
X0124114Y0240405D01*
X0125712Y0242003D02*
X0006600Y0242003D01*
X0006600Y0243602D02*
X0127311Y0243602D01*
X0128909Y0245201D02*
X0006600Y0245201D01*
X0006600Y0246799D02*
X0130508Y0246799D01*
X0132106Y0248398D02*
X0006600Y0248398D01*
X0006600Y0249996D02*
X0133705Y0249996D01*
X0134200Y0251595D02*
X0006600Y0251595D01*
X0006600Y0253193D02*
X0134200Y0253193D01*
X0134200Y0254792D02*
X0006600Y0254792D01*
X0006600Y0256390D02*
X0134200Y0256390D01*
X0134200Y0257989D02*
X0006600Y0257989D01*
X0006600Y0259587D02*
X0134200Y0259587D01*
X0134200Y0261186D02*
X0006600Y0261186D01*
X0006600Y0262784D02*
X0134200Y0262784D01*
X0134200Y0264383D02*
X0006600Y0264383D01*
X0006600Y0265981D02*
X0134200Y0265981D01*
X0134200Y0267580D02*
X0006600Y0267580D01*
X0006600Y0269178D02*
X0134200Y0269178D01*
X0134200Y0270777D02*
X0006600Y0270777D01*
X0006600Y0272375D02*
X0134200Y0272375D01*
X0134200Y0273974D02*
X0006600Y0273974D01*
X0006600Y0275572D02*
X0134200Y0275572D01*
X0134200Y0277171D02*
X0006600Y0277171D01*
X0006600Y0278769D02*
X0134200Y0278769D01*
X0134200Y0280368D02*
X0006600Y0280368D01*
X0006600Y0281966D02*
X0133207Y0281966D01*
X0132206Y0283565D02*
X0006600Y0283565D01*
X0006600Y0285163D02*
X0131700Y0285163D01*
X0131700Y0286762D02*
X0006600Y0286762D01*
X0006600Y0288360D02*
X0132175Y0288360D01*
X0133132Y0289959D02*
X0006600Y0289959D01*
X0006600Y0291557D02*
X0135277Y0291557D01*
X0140323Y0291557D02*
X0146700Y0291557D01*
X0146700Y0293156D02*
X0006600Y0293156D01*
X0006600Y0294754D02*
X0147338Y0294754D01*
X0148526Y0296353D02*
X0006600Y0296353D01*
X0006600Y0297951D02*
X0151228Y0297951D01*
X0154372Y0297951D02*
X0203422Y0297951D01*
X0203422Y0298958D02*
X0203422Y0294271D01*
X0203544Y0293813D01*
X0203781Y0293403D01*
X0204116Y0293068D01*
X0204527Y0292831D01*
X0204985Y0292708D01*
X0212672Y0292708D01*
X0212672Y0298958D01*
X0214272Y0298958D01*
X0214272Y0300558D01*
X0223522Y0300558D01*
X0223522Y0305245D01*
X0223399Y0305703D01*
X0223162Y0306113D01*
X0222827Y0306449D01*
X0222416Y0306686D01*
X0221959Y0306808D01*
X0214272Y0306808D01*
X0214272Y0300558D01*
X0212672Y0300558D01*
X0212672Y0306808D01*
X0204985Y0306808D01*
X0204527Y0306686D01*
X0204116Y0306449D01*
X0203781Y0306113D01*
X0203544Y0305703D01*
X0203422Y0305245D01*
X0203422Y0300558D01*
X0212672Y0300558D01*
X0212672Y0298958D01*
X0203422Y0298958D01*
X0203422Y0301148D02*
X0006600Y0301148D01*
X0006600Y0299550D02*
X0212672Y0299550D01*
X0213472Y0299758D02*
X0183042Y0299758D01*
X0161800Y0321000D01*
X0165558Y0324758D01*
X0165558Y0342672D01*
X0164758Y0342710D02*
X0138842Y0342710D01*
X0138842Y0343472D02*
X0145092Y0343472D01*
X0145092Y0351159D01*
X0144969Y0351616D01*
X0144732Y0352027D01*
X0144397Y0352362D01*
X0143987Y0352599D01*
X0143529Y0352722D01*
X0138842Y0352722D01*
X0138842Y0343472D01*
X0137242Y0343472D01*
X0137242Y0352722D01*
X0132555Y0352722D01*
X0132097Y0352599D01*
X0131687Y0352362D01*
X0131351Y0352027D01*
X0131114Y0351616D01*
X0130992Y0351159D01*
X0130992Y0343472D01*
X0137242Y0343472D01*
X0137242Y0341872D01*
X0130992Y0341872D01*
X0130992Y0334185D01*
X0131114Y0333727D01*
X0131351Y0333316D01*
X0131687Y0332981D01*
X0132097Y0332744D01*
X0132555Y0332622D01*
X0137242Y0332622D01*
X0137242Y0341872D01*
X0138842Y0341872D01*
X0138842Y0343472D01*
X0138842Y0344308D02*
X0137242Y0344308D01*
X0137242Y0342710D02*
X0044193Y0342710D01*
X0044838Y0341297D02*
X0042616Y0346164D01*
X0039111Y0350208D01*
X0034610Y0353101D01*
X0029476Y0354609D01*
X0024124Y0354609D01*
X0018990Y0353101D01*
X0014489Y0350208D01*
X0014489Y0350208D01*
X0010984Y0346164D01*
X0008762Y0341297D01*
X0008762Y0341297D01*
X0008000Y0336000D01*
X0008000Y0336000D01*
X0008762Y0330703D01*
X0010984Y0325836D01*
X0014489Y0321792D01*
X0018990Y0318899D01*
X0018990Y0318899D01*
X0024124Y0317391D01*
X0029476Y0317391D01*
X0034610Y0318899D01*
X0039111Y0321792D01*
X0042616Y0325836D01*
X0044838Y0330703D01*
X0045600Y0336000D01*
X0044838Y0341297D01*
X0044838Y0341297D01*
X0044865Y0341111D02*
X0130992Y0341111D01*
X0130992Y0339513D02*
X0045095Y0339513D01*
X0045325Y0337914D02*
X0130992Y0337914D01*
X0130992Y0336316D02*
X0045555Y0336316D01*
X0045416Y0334717D02*
X0130992Y0334717D01*
X0131549Y0333119D02*
X0045186Y0333119D01*
X0044956Y0331520D02*
X0188644Y0331520D01*
X0188762Y0330703D02*
X0190984Y0325836D01*
X0190984Y0325836D01*
X0194489Y0321792D01*
X0198990Y0318899D01*
X0204124Y0317391D01*
X0209476Y0317391D01*
X0214610Y0318899D01*
X0219111Y0321792D01*
X0222616Y0325836D01*
X0224838Y0330703D01*
X0225600Y0336000D01*
X0224838Y0341297D01*
X0222616Y0346164D01*
X0219111Y0350208D01*
X0214610Y0353101D01*
X0209476Y0354609D01*
X0204124Y0354609D01*
X0198990Y0353101D01*
X0194489Y0350208D01*
X0194489Y0350208D01*
X0190984Y0346164D01*
X0188762Y0341297D01*
X0188762Y0341297D01*
X0188000Y0336000D01*
X0188000Y0336000D01*
X0188762Y0330703D01*
X0189119Y0329922D02*
X0044481Y0329922D01*
X0044838Y0330703D02*
X0044838Y0330703D01*
X0043751Y0328323D02*
X0139712Y0328323D01*
X0139957Y0328448D02*
X0139284Y0328105D01*
X0138673Y0327661D01*
X0138139Y0327127D01*
X0137695Y0326516D01*
X0137352Y0325843D01*
X0137118Y0325124D01*
X0137000Y0324378D01*
X0137000Y0321200D01*
X0141600Y0321200D01*
X0141600Y0328800D01*
X0141422Y0328800D01*
X0140676Y0328682D01*
X0139957Y0328448D01*
X0141600Y0328323D02*
X0142000Y0328323D01*
X0142000Y0328800D02*
X0142000Y0321200D01*
X0141600Y0321200D01*
X0141600Y0320800D01*
X0142000Y0320800D01*
X0142000Y0313200D01*
X0142178Y0313200D01*
X0142924Y0313318D01*
X0143643Y0313552D01*
X0144316Y0313895D01*
X0144927Y0314339D01*
X0145461Y0314873D01*
X0145905Y0315484D01*
X0146040Y0315749D01*
X0146883Y0313715D01*
X0148515Y0312083D01*
X0150646Y0311200D01*
X0152954Y0311200D01*
X0155085Y0312083D01*
X0156717Y0313715D01*
X0157560Y0315749D01*
X0157695Y0315484D01*
X0158139Y0314873D01*
X0158673Y0314339D01*
X0159284Y0313895D01*
X0159957Y0313552D01*
X0160676Y0313318D01*
X0161422Y0313200D01*
X0161600Y0313200D01*
X0161600Y0320800D01*
X0162000Y0320800D01*
X0162000Y0321200D01*
X0166600Y0321200D01*
X0166600Y0324378D01*
X0166482Y0325124D01*
X0166248Y0325843D01*
X0165905Y0326516D01*
X0165461Y0327127D01*
X0164927Y0327661D01*
X0164316Y0328105D01*
X0163643Y0328448D01*
X0162924Y0328682D01*
X0162178Y0328800D01*
X0162000Y0328800D01*
X0162000Y0321200D01*
X0161600Y0321200D01*
X0161600Y0328800D01*
X0161422Y0328800D01*
X0160676Y0328682D01*
X0159957Y0328448D01*
X0159284Y0328105D01*
X0158673Y0327661D01*
X0158139Y0327127D01*
X0157695Y0326516D01*
X0157352Y0325843D01*
X0157153Y0325232D01*
X0156717Y0326285D01*
X0155085Y0327917D01*
X0152954Y0328800D01*
X0150646Y0328800D01*
X0148515Y0327917D01*
X0146883Y0326285D01*
X0146447Y0325232D01*
X0146248Y0325843D01*
X0145905Y0326516D01*
X0145461Y0327127D01*
X0144927Y0327661D01*
X0144316Y0328105D01*
X0143643Y0328448D01*
X0142924Y0328682D01*
X0142178Y0328800D01*
X0142000Y0328800D01*
X0143888Y0328323D02*
X0149495Y0328323D01*
X0147322Y0326725D02*
X0145754Y0326725D01*
X0143987Y0332744D02*
X0144397Y0332981D01*
X0144732Y0333316D01*
X0144969Y0333727D01*
X0145092Y0334185D01*
X0145092Y0341872D01*
X0138842Y0341872D01*
X0138842Y0332622D01*
X0143529Y0332622D01*
X0143987Y0332744D01*
X0144534Y0333119D02*
X0159066Y0333119D01*
X0159203Y0332981D02*
X0159613Y0332744D01*
X0160071Y0332622D01*
X0164758Y0332622D01*
X0164758Y0341872D01*
X0158508Y0341872D01*
X0158508Y0334185D01*
X0158631Y0333727D01*
X0158868Y0333316D01*
X0159203Y0332981D01*
X0158508Y0334717D02*
X0145092Y0334717D01*
X0145092Y0336316D02*
X0158508Y0336316D01*
X0158508Y0337914D02*
X0145092Y0337914D01*
X0145092Y0339513D02*
X0158508Y0339513D01*
X0158508Y0341111D02*
X0145092Y0341111D01*
X0145092Y0344308D02*
X0158508Y0344308D01*
X0158508Y0343472D02*
X0164758Y0343472D01*
X0164758Y0352722D01*
X0160071Y0352722D01*
X0159613Y0352599D01*
X0159203Y0352362D01*
X0158868Y0352027D01*
X0158631Y0351616D01*
X0158508Y0351159D01*
X0158508Y0343472D01*
X0158508Y0345907D02*
X0145092Y0345907D01*
X0145092Y0347505D02*
X0158508Y0347505D01*
X0158508Y0349104D02*
X0145092Y0349104D01*
X0145092Y0350702D02*
X0158508Y0350702D01*
X0159142Y0352301D02*
X0144458Y0352301D01*
X0138842Y0352301D02*
X0137242Y0352301D01*
X0137242Y0350702D02*
X0138842Y0350702D01*
X0138842Y0349104D02*
X0137242Y0349104D01*
X0137242Y0347505D02*
X0138842Y0347505D01*
X0138842Y0345907D02*
X0137242Y0345907D01*
X0138042Y0342672D02*
X0138042Y0324758D01*
X0141800Y0321000D01*
X0141600Y0320800D02*
X0141600Y0313200D01*
X0141422Y0313200D01*
X0140676Y0313318D01*
X0139957Y0313552D01*
X0139284Y0313895D01*
X0138673Y0314339D01*
X0138139Y0314873D01*
X0137695Y0315484D01*
X0137352Y0316157D01*
X0137118Y0316876D01*
X0137000Y0317622D01*
X0137000Y0320800D01*
X0141600Y0320800D01*
X0141600Y0320331D02*
X0142000Y0320331D01*
X0142000Y0321929D02*
X0141600Y0321929D01*
X0141600Y0323528D02*
X0142000Y0323528D01*
X0142000Y0325126D02*
X0141600Y0325126D01*
X0141600Y0326725D02*
X0142000Y0326725D01*
X0137846Y0326725D02*
X0043021Y0326725D01*
X0042616Y0325836D02*
X0042616Y0325836D01*
X0042000Y0325126D02*
X0137119Y0325126D01*
X0137000Y0323528D02*
X0040615Y0323528D01*
X0039230Y0321929D02*
X0137000Y0321929D01*
X0137000Y0320331D02*
X0036837Y0320331D01*
X0034610Y0318899D02*
X0034610Y0318899D01*
X0034041Y0318732D02*
X0137000Y0318732D01*
X0137077Y0317134D02*
X0006600Y0317134D01*
X0006600Y0318732D02*
X0019559Y0318732D01*
X0016763Y0320331D02*
X0006600Y0320331D01*
X0006600Y0321929D02*
X0014370Y0321929D01*
X0014489Y0321792D02*
X0014489Y0321792D01*
X0012985Y0323528D02*
X0006600Y0323528D01*
X0006600Y0325126D02*
X0011600Y0325126D01*
X0010984Y0325836D02*
X0010984Y0325836D01*
X0010579Y0326725D02*
X0006600Y0326725D01*
X0006600Y0328323D02*
X0009849Y0328323D01*
X0009119Y0329922D02*
X0006600Y0329922D01*
X0006600Y0331520D02*
X0008644Y0331520D01*
X0008762Y0330703D02*
X0008762Y0330703D01*
X0008414Y0333119D02*
X0006600Y0333119D01*
X0006600Y0334717D02*
X0008184Y0334717D01*
X0008045Y0336316D02*
X0006600Y0336316D01*
X0006600Y0337914D02*
X0008275Y0337914D01*
X0008505Y0339513D02*
X0006600Y0339513D01*
X0006600Y0341111D02*
X0008735Y0341111D01*
X0009407Y0342710D02*
X0006600Y0342710D01*
X0006600Y0344308D02*
X0010137Y0344308D01*
X0010867Y0345907D02*
X0006600Y0345907D01*
X0006600Y0347505D02*
X0012147Y0347505D01*
X0010984Y0346164D02*
X0010984Y0346164D01*
X0013532Y0349104D02*
X0006600Y0349104D01*
X0006600Y0350702D02*
X0015258Y0350702D01*
X0014489Y0350208D02*
X0014489Y0350208D01*
X0017745Y0352301D02*
X0006600Y0352301D01*
X0006600Y0353899D02*
X0021709Y0353899D01*
X0018990Y0353101D02*
X0018990Y0353101D01*
X0031891Y0353899D02*
X0201709Y0353899D01*
X0198990Y0353101D02*
X0198990Y0353101D01*
X0197745Y0352301D02*
X0171975Y0352301D01*
X0171913Y0352362D02*
X0171503Y0352599D01*
X0171045Y0352722D01*
X0166358Y0352722D01*
X0166358Y0343472D01*
X0164758Y0343472D01*
X0164758Y0341872D01*
X0166358Y0341872D01*
X0166358Y0343472D01*
X0172608Y0343472D01*
X0172608Y0351159D01*
X0172486Y0351616D01*
X0172249Y0352027D01*
X0171913Y0352362D01*
X0172608Y0350702D02*
X0195258Y0350702D01*
X0194489Y0350208D02*
X0194489Y0350208D01*
X0193532Y0349104D02*
X0172608Y0349104D01*
X0172608Y0347505D02*
X0192147Y0347505D01*
X0190984Y0346164D02*
X0190984Y0346164D01*
X0190867Y0345907D02*
X0172608Y0345907D01*
X0172608Y0344308D02*
X0190137Y0344308D01*
X0189407Y0342710D02*
X0166358Y0342710D01*
X0166358Y0341872D02*
X0172608Y0341872D01*
X0172608Y0334185D01*
X0172486Y0333727D01*
X0172249Y0333316D01*
X0171913Y0332981D01*
X0171503Y0332744D01*
X0171045Y0332622D01*
X0166358Y0332622D01*
X0166358Y0341872D01*
X0166358Y0341111D02*
X0164758Y0341111D01*
X0164758Y0339513D02*
X0166358Y0339513D01*
X0166358Y0337914D02*
X0164758Y0337914D01*
X0164758Y0336316D02*
X0166358Y0336316D01*
X0166358Y0334717D02*
X0164758Y0334717D01*
X0164758Y0333119D02*
X0166358Y0333119D01*
X0163888Y0328323D02*
X0189849Y0328323D01*
X0190579Y0326725D02*
X0165754Y0326725D01*
X0166481Y0325126D02*
X0191600Y0325126D01*
X0192985Y0323528D02*
X0166600Y0323528D01*
X0166600Y0321929D02*
X0194370Y0321929D01*
X0194489Y0321792D02*
X0194489Y0321792D01*
X0196763Y0320331D02*
X0166600Y0320331D01*
X0166600Y0320800D02*
X0162000Y0320800D01*
X0162000Y0313200D01*
X0162178Y0313200D01*
X0162924Y0313318D01*
X0163643Y0313552D01*
X0164316Y0313895D01*
X0164927Y0314339D01*
X0165461Y0314873D01*
X0165905Y0315484D01*
X0166248Y0316157D01*
X0166482Y0316876D01*
X0166600Y0317622D01*
X0166600Y0320800D01*
X0166600Y0318732D02*
X0199559Y0318732D01*
X0198990Y0318899D02*
X0198990Y0318899D01*
X0203683Y0305944D02*
X0006600Y0305944D01*
X0006600Y0307542D02*
X0227000Y0307542D01*
X0227000Y0305944D02*
X0223260Y0305944D01*
X0223522Y0304345D02*
X0227000Y0304345D01*
X0227000Y0302747D02*
X0223522Y0302747D01*
X0223522Y0301148D02*
X0227000Y0301148D01*
X0227000Y0299550D02*
X0214272Y0299550D01*
X0214272Y0298958D02*
X0223522Y0298958D01*
X0223522Y0294271D01*
X0223399Y0293813D01*
X0223162Y0293403D01*
X0222827Y0293068D01*
X0222416Y0292831D01*
X0221959Y0292708D01*
X0214272Y0292708D01*
X0214272Y0298958D01*
X0214272Y0297951D02*
X0212672Y0297951D01*
X0212672Y0296353D02*
X0214272Y0296353D01*
X0214272Y0294754D02*
X0212672Y0294754D01*
X0212672Y0293156D02*
X0214272Y0293156D01*
X0213472Y0299758D02*
X0193800Y0299758D01*
X0194800Y0298758D01*
X0194800Y0272242D01*
X0213472Y0272242D01*
X0214272Y0272375D02*
X0227000Y0272375D01*
X0227000Y0270777D02*
X0223522Y0270777D01*
X0223522Y0271442D02*
X0214272Y0271442D01*
X0214272Y0273042D01*
X0223522Y0273042D01*
X0223522Y0277729D01*
X0223399Y0278187D01*
X0223162Y0278597D01*
X0222827Y0278932D01*
X0222416Y0279169D01*
X0221959Y0279292D01*
X0214272Y0279292D01*
X0214272Y0273042D01*
X0212672Y0273042D01*
X0212672Y0279292D01*
X0204985Y0279292D01*
X0204527Y0279169D01*
X0204116Y0278932D01*
X0203781Y0278597D01*
X0203544Y0278187D01*
X0203422Y0277729D01*
X0203422Y0273042D01*
X0212672Y0273042D01*
X0212672Y0271442D01*
X0214272Y0271442D01*
X0214272Y0265192D01*
X0221959Y0265192D01*
X0222416Y0265314D01*
X0222827Y0265551D01*
X0223162Y0265887D01*
X0223399Y0266297D01*
X0223522Y0266755D01*
X0223522Y0271442D01*
X0223522Y0269178D02*
X0227000Y0269178D01*
X0227000Y0267580D02*
X0223522Y0267580D01*
X0223217Y0265981D02*
X0227000Y0265981D01*
X0227000Y0264383D02*
X0156400Y0264383D01*
X0156400Y0265981D02*
X0203727Y0265981D01*
X0203781Y0265887D02*
X0204116Y0265551D01*
X0204527Y0265314D01*
X0204985Y0265192D01*
X0212672Y0265192D01*
X0212672Y0271442D01*
X0203422Y0271442D01*
X0203422Y0266755D01*
X0203544Y0266297D01*
X0203781Y0265887D01*
X0203422Y0267580D02*
X0156400Y0267580D01*
X0156400Y0269178D02*
X0203422Y0269178D01*
X0203422Y0270777D02*
X0156400Y0270777D01*
X0156400Y0272375D02*
X0212672Y0272375D01*
X0212672Y0270777D02*
X0214272Y0270777D01*
X0214272Y0269178D02*
X0212672Y0269178D01*
X0212672Y0267580D02*
X0214272Y0267580D01*
X0214272Y0265981D02*
X0212672Y0265981D01*
X0212672Y0273974D02*
X0214272Y0273974D01*
X0214272Y0275572D02*
X0212672Y0275572D01*
X0212672Y0277171D02*
X0214272Y0277171D01*
X0214272Y0278769D02*
X0212672Y0278769D01*
X0203954Y0278769D02*
X0156400Y0278769D01*
X0156400Y0277171D02*
X0203422Y0277171D01*
X0203422Y0275572D02*
X0156400Y0275572D01*
X0156400Y0273974D02*
X0203422Y0273974D01*
X0204028Y0293156D02*
X0158900Y0293156D01*
X0158900Y0291557D02*
X0227000Y0291557D01*
X0227000Y0289959D02*
X0158557Y0289959D01*
X0157787Y0288360D02*
X0227000Y0288360D01*
X0227000Y0286762D02*
X0156400Y0286762D01*
X0156400Y0285163D02*
X0227000Y0285163D01*
X0227000Y0283565D02*
X0156400Y0283565D01*
X0156400Y0281966D02*
X0227000Y0281966D01*
X0227000Y0280368D02*
X0156400Y0280368D01*
X0149200Y0280368D02*
X0141400Y0280368D01*
X0141400Y0278769D02*
X0149200Y0278769D01*
X0149200Y0277171D02*
X0141400Y0277171D01*
X0141400Y0275572D02*
X0149200Y0275572D01*
X0149200Y0273974D02*
X0141400Y0273974D01*
X0141400Y0272375D02*
X0149200Y0272375D01*
X0149200Y0270777D02*
X0141400Y0270777D01*
X0141400Y0269178D02*
X0149200Y0269178D01*
X0149200Y0267580D02*
X0141400Y0267580D01*
X0141400Y0265981D02*
X0149200Y0265981D01*
X0149200Y0264383D02*
X0141400Y0264383D01*
X0141400Y0262784D02*
X0149200Y0262784D01*
X0149200Y0261186D02*
X0141400Y0261186D01*
X0141400Y0259587D02*
X0149200Y0259587D01*
X0149200Y0257989D02*
X0141400Y0257989D01*
X0141400Y0256390D02*
X0149200Y0256390D01*
X0148521Y0254792D02*
X0141400Y0254792D01*
X0141400Y0253193D02*
X0146941Y0253193D01*
X0145361Y0251595D02*
X0141400Y0251595D01*
X0141400Y0249996D02*
X0143782Y0249996D01*
X0142202Y0248398D02*
X0141400Y0248398D01*
X0137800Y0249000D02*
X0086300Y0197500D01*
X0082800Y0201000D01*
X0078411Y0205238D02*
X0058400Y0205238D01*
X0058400Y0206836D02*
X0080950Y0206836D01*
X0084650Y0206836D02*
X0090545Y0206836D01*
X0088947Y0205238D02*
X0087189Y0205238D01*
X0092144Y0208435D02*
X0058400Y0208435D01*
X0058269Y0210033D02*
X0093742Y0210033D01*
X0095341Y0211632D02*
X0057259Y0211632D01*
X0055409Y0213230D02*
X0096939Y0213230D01*
X0106512Y0202041D02*
X0166200Y0202041D01*
X0166200Y0203639D02*
X0108092Y0203639D01*
X0109671Y0205238D02*
X0166200Y0205238D01*
X0166200Y0206836D02*
X0111251Y0206836D01*
X0112831Y0208435D02*
X0166200Y0208435D01*
X0166200Y0210033D02*
X0114411Y0210033D01*
X0115990Y0211632D02*
X0166200Y0211632D01*
X0166200Y0213230D02*
X0117570Y0213230D01*
X0119150Y0214829D02*
X0165880Y0214829D01*
X0164282Y0216427D02*
X0120730Y0216427D01*
X0122309Y0218026D02*
X0162683Y0218026D01*
X0161084Y0219624D02*
X0123889Y0219624D01*
X0125469Y0221223D02*
X0159486Y0221223D01*
X0157887Y0222821D02*
X0127049Y0222821D01*
X0128628Y0224420D02*
X0144753Y0224420D01*
X0143432Y0226018D02*
X0130208Y0226018D01*
X0131788Y0227617D02*
X0142770Y0227617D01*
X0142700Y0229215D02*
X0133368Y0229215D01*
X0134947Y0230814D02*
X0142949Y0230814D01*
X0143611Y0232412D02*
X0136527Y0232412D01*
X0141266Y0237208D02*
X0207022Y0237208D01*
X0207685Y0238806D02*
X0142846Y0238806D01*
X0144426Y0240405D02*
X0209003Y0240405D01*
X0211134Y0242003D02*
X0146006Y0242003D01*
X0147585Y0243602D02*
X0209635Y0243602D01*
X0209067Y0245201D02*
X0149165Y0245201D01*
X0150745Y0246799D02*
X0209067Y0246799D01*
X0209634Y0248398D02*
X0152325Y0248398D01*
X0153904Y0249996D02*
X0211134Y0249996D01*
X0216600Y0249996D02*
X0217000Y0249996D01*
X0217000Y0250800D02*
X0217000Y0246200D01*
X0224600Y0246200D01*
X0224600Y0246378D01*
X0224482Y0247124D01*
X0224248Y0247843D01*
X0223905Y0248516D01*
X0223461Y0249127D01*
X0222927Y0249661D01*
X0222316Y0250105D01*
X0221643Y0250448D01*
X0220924Y0250682D01*
X0220178Y0250800D01*
X0217000Y0250800D01*
X0217000Y0248398D02*
X0216600Y0248398D01*
X0216600Y0246799D02*
X0217000Y0246799D01*
X0222466Y0249996D02*
X0227000Y0249996D01*
X0227000Y0248398D02*
X0223966Y0248398D01*
X0224533Y0246799D02*
X0227000Y0246799D01*
X0227000Y0245201D02*
X0224533Y0245201D01*
X0223965Y0243602D02*
X0227000Y0243602D01*
X0227000Y0242003D02*
X0222466Y0242003D01*
X0222597Y0240405D02*
X0227000Y0240405D01*
X0227000Y0238806D02*
X0223915Y0238806D01*
X0224578Y0237208D02*
X0227000Y0237208D01*
X0227000Y0235609D02*
X0224600Y0235609D01*
X0224254Y0234011D02*
X0227000Y0234011D01*
X0227000Y0232412D02*
X0223415Y0232412D01*
X0221436Y0230814D02*
X0227000Y0230814D01*
X0227000Y0229215D02*
X0223373Y0229215D01*
X0224322Y0227617D02*
X0227000Y0227617D01*
X0227000Y0251595D02*
X0155486Y0251595D01*
X0156362Y0253193D02*
X0227000Y0253193D01*
X0227000Y0254792D02*
X0156400Y0254792D01*
X0156400Y0256390D02*
X0227000Y0256390D01*
X0227000Y0257989D02*
X0156400Y0257989D01*
X0156400Y0259587D02*
X0227000Y0259587D01*
X0227000Y0261186D02*
X0156400Y0261186D01*
X0156400Y0262784D02*
X0227000Y0262784D01*
X0227000Y0273974D02*
X0223522Y0273974D01*
X0223522Y0275572D02*
X0227000Y0275572D01*
X0227000Y0277171D02*
X0223522Y0277171D01*
X0222990Y0278769D02*
X0227000Y0278769D01*
X0227000Y0293156D02*
X0222915Y0293156D01*
X0223522Y0294754D02*
X0227000Y0294754D01*
X0227000Y0296353D02*
X0223522Y0296353D01*
X0223522Y0297951D02*
X0227000Y0297951D01*
X0227000Y0309141D02*
X0006600Y0309141D01*
X0006600Y0310739D02*
X0227000Y0310739D01*
X0227000Y0312338D02*
X0155340Y0312338D01*
X0156809Y0313937D02*
X0159227Y0313937D01*
X0157669Y0315535D02*
X0157471Y0315535D01*
X0161600Y0315535D02*
X0162000Y0315535D01*
X0162000Y0313937D02*
X0161600Y0313937D01*
X0164373Y0313937D02*
X0227000Y0313937D01*
X0227000Y0315535D02*
X0165931Y0315535D01*
X0166523Y0317134D02*
X0227000Y0317134D01*
X0227000Y0318732D02*
X0214041Y0318732D01*
X0214610Y0318899D02*
X0214610Y0318899D01*
X0216837Y0320331D02*
X0227000Y0320331D01*
X0227000Y0321929D02*
X0219230Y0321929D01*
X0219111Y0321792D02*
X0219111Y0321792D01*
X0219111Y0321792D01*
X0220615Y0323528D02*
X0227000Y0323528D01*
X0227000Y0325126D02*
X0222000Y0325126D01*
X0222616Y0325836D02*
X0222616Y0325836D01*
X0223021Y0326725D02*
X0227000Y0326725D01*
X0227000Y0328323D02*
X0223751Y0328323D01*
X0224481Y0329922D02*
X0227000Y0329922D01*
X0227000Y0331520D02*
X0224956Y0331520D01*
X0224838Y0330703D02*
X0224838Y0330703D01*
X0225186Y0333119D02*
X0227000Y0333119D01*
X0227000Y0334717D02*
X0225416Y0334717D01*
X0225555Y0336316D02*
X0227000Y0336316D01*
X0227000Y0337914D02*
X0225325Y0337914D01*
X0225095Y0339513D02*
X0227000Y0339513D01*
X0227000Y0341111D02*
X0224865Y0341111D01*
X0224838Y0341297D02*
X0224838Y0341297D01*
X0224193Y0342710D02*
X0227000Y0342710D01*
X0227000Y0344308D02*
X0223463Y0344308D01*
X0222733Y0345907D02*
X0227000Y0345907D01*
X0227000Y0347505D02*
X0221453Y0347505D01*
X0222616Y0346164D02*
X0222616Y0346164D01*
X0220068Y0349104D02*
X0227000Y0349104D01*
X0227000Y0350702D02*
X0218342Y0350702D01*
X0219111Y0350208D02*
X0219111Y0350208D01*
X0215855Y0352301D02*
X0227000Y0352301D01*
X0227000Y0353899D02*
X0211891Y0353899D01*
X0214610Y0353101D02*
X0214610Y0353101D01*
X0227000Y0355498D02*
X0006600Y0355498D01*
X0006600Y0315535D02*
X0137669Y0315535D01*
X0139227Y0313937D02*
X0006600Y0313937D01*
X0006600Y0312338D02*
X0148260Y0312338D01*
X0146791Y0313937D02*
X0144373Y0313937D01*
X0145931Y0315535D02*
X0146129Y0315535D01*
X0142000Y0315535D02*
X0141600Y0315535D01*
X0141600Y0313937D02*
X0142000Y0313937D01*
X0142000Y0317134D02*
X0141600Y0317134D01*
X0141600Y0318732D02*
X0142000Y0318732D01*
X0138842Y0333119D02*
X0137242Y0333119D01*
X0137242Y0334717D02*
X0138842Y0334717D01*
X0138842Y0336316D02*
X0137242Y0336316D01*
X0137242Y0337914D02*
X0138842Y0337914D01*
X0138842Y0339513D02*
X0137242Y0339513D01*
X0137242Y0341111D02*
X0138842Y0341111D01*
X0130992Y0344308D02*
X0043463Y0344308D01*
X0042733Y0345907D02*
X0130992Y0345907D01*
X0130992Y0347505D02*
X0041453Y0347505D01*
X0042616Y0346164D02*
X0042616Y0346164D01*
X0040068Y0349104D02*
X0130992Y0349104D01*
X0130992Y0350702D02*
X0038342Y0350702D01*
X0039111Y0350208D02*
X0039111Y0350208D01*
X0035855Y0352301D02*
X0131625Y0352301D01*
X0154105Y0328323D02*
X0159712Y0328323D01*
X0161600Y0328323D02*
X0162000Y0328323D01*
X0162000Y0326725D02*
X0161600Y0326725D01*
X0161600Y0325126D02*
X0162000Y0325126D01*
X0162000Y0323528D02*
X0161600Y0323528D01*
X0161600Y0321929D02*
X0162000Y0321929D01*
X0162000Y0320331D02*
X0161600Y0320331D01*
X0161600Y0318732D02*
X0162000Y0318732D01*
X0162000Y0317134D02*
X0161600Y0317134D01*
X0157846Y0326725D02*
X0156278Y0326725D01*
X0164758Y0344308D02*
X0166358Y0344308D01*
X0166358Y0345907D02*
X0164758Y0345907D01*
X0164758Y0347505D02*
X0166358Y0347505D01*
X0166358Y0349104D02*
X0164758Y0349104D01*
X0164758Y0350702D02*
X0166358Y0350702D01*
X0166358Y0352301D02*
X0164758Y0352301D01*
X0172608Y0341111D02*
X0188735Y0341111D01*
X0188505Y0339513D02*
X0172608Y0339513D01*
X0172608Y0337914D02*
X0188275Y0337914D01*
X0188045Y0336316D02*
X0172608Y0336316D01*
X0172608Y0334717D02*
X0188184Y0334717D01*
X0188414Y0333119D02*
X0172051Y0333119D01*
X0157074Y0296353D02*
X0203422Y0296353D01*
X0203422Y0294754D02*
X0158262Y0294754D01*
X0152800Y0292000D02*
X0152800Y0254000D01*
X0073775Y0174037D01*
X0073812Y0174000D01*
X0073800Y0174000D01*
X0066567Y0182859D02*
X0058400Y0182859D01*
X0058400Y0184457D02*
X0068166Y0184457D01*
X0069764Y0186056D02*
X0058400Y0186056D01*
X0058400Y0187654D02*
X0071363Y0187654D01*
X0072961Y0189253D02*
X0058400Y0189253D01*
X0058400Y0190851D02*
X0074560Y0190851D01*
X0076158Y0192450D02*
X0058400Y0192450D01*
X0058400Y0194048D02*
X0077757Y0194048D01*
X0079356Y0195647D02*
X0058400Y0195647D01*
X0058400Y0197245D02*
X0077928Y0197245D01*
X0077091Y0198844D02*
X0058400Y0198844D01*
X0058400Y0200442D02*
X0076700Y0200442D01*
X0076700Y0202041D02*
X0058400Y0202041D01*
X0058400Y0203639D02*
X0077291Y0203639D01*
X0086300Y0197500D02*
X0064800Y0176000D01*
X0054800Y0176000D01*
X0058400Y0179662D02*
X0063370Y0179662D01*
X0064969Y0181260D02*
X0058400Y0181260D01*
X0051200Y0181260D02*
X0045262Y0181260D01*
X0046341Y0179662D02*
X0051200Y0179662D01*
X0051200Y0182859D02*
X0046861Y0182859D01*
X0047600Y0184457D02*
X0051200Y0184457D01*
X0051200Y0186056D02*
X0047600Y0186056D01*
X0047600Y0187654D02*
X0051200Y0187654D01*
X0051200Y0189253D02*
X0046750Y0189253D01*
X0045151Y0190851D02*
X0051200Y0190851D01*
X0051200Y0192450D02*
X0045038Y0192450D01*
X0046600Y0194048D02*
X0051200Y0194048D01*
X0051200Y0195647D02*
X0046600Y0195647D01*
X0046600Y0197245D02*
X0051200Y0197245D01*
X0051200Y0198844D02*
X0045745Y0198844D01*
X0082800Y0165000D02*
X0119800Y0165000D01*
X0150800Y0134000D01*
X0161770Y0115721D02*
X0180085Y0115721D01*
X0179608Y0117320D02*
X0163508Y0117320D01*
X0165246Y0118918D02*
X0188874Y0118918D01*
X0188874Y0117320D02*
X0190474Y0117320D01*
X0190474Y0115721D02*
X0188874Y0115721D01*
X0188874Y0114123D02*
X0190474Y0114123D01*
X0190474Y0112524D02*
X0188874Y0112524D01*
X0188874Y0110926D02*
X0190474Y0110926D01*
X0195381Y0110926D02*
X0198684Y0110926D01*
X0184646Y0128509D02*
X0173424Y0128509D01*
X0173400Y0130108D02*
X0227000Y0130108D01*
X0227000Y0131706D02*
X0173400Y0131706D01*
X0173400Y0133305D02*
X0227000Y0133305D01*
X0227000Y0134903D02*
X0173400Y0134903D01*
X0173400Y0136502D02*
X0227000Y0136502D01*
X0227000Y0138100D02*
X0173400Y0138100D01*
X0173400Y0139699D02*
X0227000Y0139699D01*
X0227000Y0141297D02*
X0173400Y0141297D01*
X0173263Y0126911D02*
X0182514Y0126911D01*
X0181159Y0125312D02*
X0172203Y0125312D01*
X0170458Y0123714D02*
X0180269Y0123714D01*
X0179705Y0122115D02*
X0168721Y0122115D01*
X0166983Y0120517D02*
X0179423Y0120517D01*
X0180891Y0114123D02*
X0160033Y0114123D01*
X0185650Y0158881D02*
X0227000Y0158881D01*
X0227000Y0160479D02*
X0186428Y0160479D01*
X0186700Y0162078D02*
X0227000Y0162078D01*
X0227000Y0163676D02*
X0186571Y0163676D01*
X0185908Y0165275D02*
X0227000Y0165275D01*
X0227000Y0166873D02*
X0184396Y0166873D01*
X0185442Y0168472D02*
X0227000Y0168472D01*
X0227000Y0170070D02*
X0186341Y0170070D01*
X0186700Y0171669D02*
X0227000Y0171669D01*
X0227000Y0173268D02*
X0186657Y0173268D01*
X0185995Y0174866D02*
X0227000Y0174866D01*
X0227000Y0176465D02*
X0185534Y0176465D01*
X0186380Y0178063D02*
X0227000Y0178063D01*
X0227000Y0179662D02*
X0186700Y0179662D01*
X0186619Y0181260D02*
X0227000Y0181260D01*
X0227000Y0182859D02*
X0185957Y0182859D01*
X0184512Y0184457D02*
X0227000Y0184457D01*
X0227000Y0186056D02*
X0183841Y0186056D01*
X0185195Y0187654D02*
X0227000Y0187654D01*
X0227000Y0189253D02*
X0185679Y0189253D01*
X0185579Y0190851D02*
X0227000Y0190851D01*
X0227000Y0192450D02*
X0184824Y0192450D01*
X0186195Y0195647D02*
X0173400Y0195647D01*
X0173400Y0197245D02*
X0184817Y0197245D01*
X0184007Y0198844D02*
X0173400Y0198844D01*
X0173400Y0200442D02*
X0183563Y0200442D01*
X0183635Y0203639D02*
X0173400Y0203639D01*
X0173400Y0202041D02*
X0191000Y0202041D01*
X0191000Y0203639D02*
X0192600Y0203639D01*
X0192600Y0205238D02*
X0191000Y0205238D01*
X0191000Y0206836D02*
X0192600Y0206836D01*
X0192600Y0208435D02*
X0191000Y0208435D01*
X0186665Y0208435D02*
X0173400Y0208435D01*
X0173400Y0206836D02*
X0185101Y0206836D01*
X0184165Y0205238D02*
X0173400Y0205238D01*
X0166200Y0200442D02*
X0104932Y0200442D01*
X0103352Y0198844D02*
X0166200Y0198844D01*
X0166200Y0197245D02*
X0101773Y0197245D01*
X0137800Y0249000D02*
X0137800Y0286000D01*
X0143425Y0288360D02*
X0147813Y0288360D01*
X0147043Y0289959D02*
X0142468Y0289959D01*
X0143900Y0286762D02*
X0149200Y0286762D01*
X0149200Y0285163D02*
X0143900Y0285163D01*
X0143394Y0283565D02*
X0149200Y0283565D01*
X0149200Y0281966D02*
X0142393Y0281966D01*
X0152847Y0224420D02*
X0156289Y0224420D01*
X0157600Y0195647D02*
X0158000Y0195647D01*
X0158000Y0194048D02*
X0157600Y0194048D01*
X0157600Y0192450D02*
X0158000Y0192450D01*
X0162032Y0195647D02*
X0166200Y0195647D01*
X0166200Y0194048D02*
X0164518Y0194048D01*
X0165376Y0192450D02*
X0166200Y0192450D01*
X0181000Y0192450D02*
X0181200Y0192450D01*
X0181200Y0190851D02*
X0181000Y0190851D01*
X0194784Y0194048D02*
X0227000Y0194048D01*
X0227000Y0195647D02*
X0197405Y0195647D01*
X0198783Y0197245D02*
X0227000Y0197245D01*
X0227000Y0198844D02*
X0199593Y0198844D01*
X0200037Y0200442D02*
X0227000Y0200442D01*
X0214272Y0301148D02*
X0212672Y0301148D01*
X0212672Y0302747D02*
X0214272Y0302747D01*
X0214272Y0304345D02*
X0212672Y0304345D01*
X0212672Y0305944D02*
X0214272Y0305944D01*
X0203422Y0304345D02*
X0006600Y0304345D01*
X0006600Y0302747D02*
X0203422Y0302747D01*
X0039111Y0321792D02*
X0039111Y0321792D01*
X0039111Y0321792D01*
X0034610Y0353101D02*
X0034610Y0353101D01*
X0028339Y0109327D02*
X0015400Y0109327D01*
X0015400Y0107729D02*
X0027000Y0107729D01*
D19*
X0073800Y0174000D03*
X0082800Y0201000D03*
X0126800Y0146000D03*
X0133800Y0139000D03*
X0139800Y0154000D03*
X0150800Y0134000D03*
X0143800Y0114000D03*
X0144800Y0105000D03*
X0126800Y0080000D03*
X0118800Y0070000D03*
X0104800Y0069000D03*
X0148800Y0229000D03*
X0137800Y0286000D03*
X0152800Y0292000D03*
D20*
X0142800Y0154000D02*
X0139800Y0154000D01*
M02*
