G75*
%MOIN*%
%OFA0B0*%
%FSLAX25Y25*%
%IPPOS*%
%LPD*%
%AMOC8*
5,1,8,0,0,1.08239X$1,22.5*
%
%ADD10C,0.00000*%
D10*
X0001800Y0031000D02*
X0001800Y0361000D01*
X0231800Y0361000D01*
X0231800Y0031000D01*
X0001800Y0031000D01*
X0020501Y0056000D02*
X0020503Y0056158D01*
X0020509Y0056316D01*
X0020519Y0056474D01*
X0020533Y0056632D01*
X0020551Y0056789D01*
X0020572Y0056946D01*
X0020598Y0057102D01*
X0020628Y0057258D01*
X0020661Y0057413D01*
X0020699Y0057566D01*
X0020740Y0057719D01*
X0020785Y0057871D01*
X0020834Y0058022D01*
X0020887Y0058171D01*
X0020943Y0058319D01*
X0021003Y0058465D01*
X0021067Y0058610D01*
X0021135Y0058753D01*
X0021206Y0058895D01*
X0021280Y0059035D01*
X0021358Y0059172D01*
X0021440Y0059308D01*
X0021524Y0059442D01*
X0021613Y0059573D01*
X0021704Y0059702D01*
X0021799Y0059829D01*
X0021896Y0059954D01*
X0021997Y0060076D01*
X0022101Y0060195D01*
X0022208Y0060312D01*
X0022318Y0060426D01*
X0022431Y0060537D01*
X0022546Y0060646D01*
X0022664Y0060751D01*
X0022785Y0060853D01*
X0022908Y0060953D01*
X0023034Y0061049D01*
X0023162Y0061142D01*
X0023292Y0061232D01*
X0023425Y0061318D01*
X0023560Y0061402D01*
X0023696Y0061481D01*
X0023835Y0061558D01*
X0023976Y0061630D01*
X0024118Y0061700D01*
X0024262Y0061765D01*
X0024408Y0061827D01*
X0024555Y0061885D01*
X0024704Y0061940D01*
X0024854Y0061991D01*
X0025005Y0062038D01*
X0025157Y0062081D01*
X0025310Y0062120D01*
X0025465Y0062156D01*
X0025620Y0062187D01*
X0025776Y0062215D01*
X0025932Y0062239D01*
X0026089Y0062259D01*
X0026247Y0062275D01*
X0026404Y0062287D01*
X0026563Y0062295D01*
X0026721Y0062299D01*
X0026879Y0062299D01*
X0027037Y0062295D01*
X0027196Y0062287D01*
X0027353Y0062275D01*
X0027511Y0062259D01*
X0027668Y0062239D01*
X0027824Y0062215D01*
X0027980Y0062187D01*
X0028135Y0062156D01*
X0028290Y0062120D01*
X0028443Y0062081D01*
X0028595Y0062038D01*
X0028746Y0061991D01*
X0028896Y0061940D01*
X0029045Y0061885D01*
X0029192Y0061827D01*
X0029338Y0061765D01*
X0029482Y0061700D01*
X0029624Y0061630D01*
X0029765Y0061558D01*
X0029904Y0061481D01*
X0030040Y0061402D01*
X0030175Y0061318D01*
X0030308Y0061232D01*
X0030438Y0061142D01*
X0030566Y0061049D01*
X0030692Y0060953D01*
X0030815Y0060853D01*
X0030936Y0060751D01*
X0031054Y0060646D01*
X0031169Y0060537D01*
X0031282Y0060426D01*
X0031392Y0060312D01*
X0031499Y0060195D01*
X0031603Y0060076D01*
X0031704Y0059954D01*
X0031801Y0059829D01*
X0031896Y0059702D01*
X0031987Y0059573D01*
X0032076Y0059442D01*
X0032160Y0059308D01*
X0032242Y0059172D01*
X0032320Y0059035D01*
X0032394Y0058895D01*
X0032465Y0058753D01*
X0032533Y0058610D01*
X0032597Y0058465D01*
X0032657Y0058319D01*
X0032713Y0058171D01*
X0032766Y0058022D01*
X0032815Y0057871D01*
X0032860Y0057719D01*
X0032901Y0057566D01*
X0032939Y0057413D01*
X0032972Y0057258D01*
X0033002Y0057102D01*
X0033028Y0056946D01*
X0033049Y0056789D01*
X0033067Y0056632D01*
X0033081Y0056474D01*
X0033091Y0056316D01*
X0033097Y0056158D01*
X0033099Y0056000D01*
X0033097Y0055842D01*
X0033091Y0055684D01*
X0033081Y0055526D01*
X0033067Y0055368D01*
X0033049Y0055211D01*
X0033028Y0055054D01*
X0033002Y0054898D01*
X0032972Y0054742D01*
X0032939Y0054587D01*
X0032901Y0054434D01*
X0032860Y0054281D01*
X0032815Y0054129D01*
X0032766Y0053978D01*
X0032713Y0053829D01*
X0032657Y0053681D01*
X0032597Y0053535D01*
X0032533Y0053390D01*
X0032465Y0053247D01*
X0032394Y0053105D01*
X0032320Y0052965D01*
X0032242Y0052828D01*
X0032160Y0052692D01*
X0032076Y0052558D01*
X0031987Y0052427D01*
X0031896Y0052298D01*
X0031801Y0052171D01*
X0031704Y0052046D01*
X0031603Y0051924D01*
X0031499Y0051805D01*
X0031392Y0051688D01*
X0031282Y0051574D01*
X0031169Y0051463D01*
X0031054Y0051354D01*
X0030936Y0051249D01*
X0030815Y0051147D01*
X0030692Y0051047D01*
X0030566Y0050951D01*
X0030438Y0050858D01*
X0030308Y0050768D01*
X0030175Y0050682D01*
X0030040Y0050598D01*
X0029904Y0050519D01*
X0029765Y0050442D01*
X0029624Y0050370D01*
X0029482Y0050300D01*
X0029338Y0050235D01*
X0029192Y0050173D01*
X0029045Y0050115D01*
X0028896Y0050060D01*
X0028746Y0050009D01*
X0028595Y0049962D01*
X0028443Y0049919D01*
X0028290Y0049880D01*
X0028135Y0049844D01*
X0027980Y0049813D01*
X0027824Y0049785D01*
X0027668Y0049761D01*
X0027511Y0049741D01*
X0027353Y0049725D01*
X0027196Y0049713D01*
X0027037Y0049705D01*
X0026879Y0049701D01*
X0026721Y0049701D01*
X0026563Y0049705D01*
X0026404Y0049713D01*
X0026247Y0049725D01*
X0026089Y0049741D01*
X0025932Y0049761D01*
X0025776Y0049785D01*
X0025620Y0049813D01*
X0025465Y0049844D01*
X0025310Y0049880D01*
X0025157Y0049919D01*
X0025005Y0049962D01*
X0024854Y0050009D01*
X0024704Y0050060D01*
X0024555Y0050115D01*
X0024408Y0050173D01*
X0024262Y0050235D01*
X0024118Y0050300D01*
X0023976Y0050370D01*
X0023835Y0050442D01*
X0023696Y0050519D01*
X0023560Y0050598D01*
X0023425Y0050682D01*
X0023292Y0050768D01*
X0023162Y0050858D01*
X0023034Y0050951D01*
X0022908Y0051047D01*
X0022785Y0051147D01*
X0022664Y0051249D01*
X0022546Y0051354D01*
X0022431Y0051463D01*
X0022318Y0051574D01*
X0022208Y0051688D01*
X0022101Y0051805D01*
X0021997Y0051924D01*
X0021896Y0052046D01*
X0021799Y0052171D01*
X0021704Y0052298D01*
X0021613Y0052427D01*
X0021524Y0052558D01*
X0021440Y0052692D01*
X0021358Y0052828D01*
X0021280Y0052965D01*
X0021206Y0053105D01*
X0021135Y0053247D01*
X0021067Y0053390D01*
X0021003Y0053535D01*
X0020943Y0053681D01*
X0020887Y0053829D01*
X0020834Y0053978D01*
X0020785Y0054129D01*
X0020740Y0054281D01*
X0020699Y0054434D01*
X0020661Y0054587D01*
X0020628Y0054742D01*
X0020598Y0054898D01*
X0020572Y0055054D01*
X0020551Y0055211D01*
X0020533Y0055368D01*
X0020519Y0055526D01*
X0020509Y0055684D01*
X0020503Y0055842D01*
X0020501Y0056000D01*
X0020501Y0336000D02*
X0020503Y0336158D01*
X0020509Y0336316D01*
X0020519Y0336474D01*
X0020533Y0336632D01*
X0020551Y0336789D01*
X0020572Y0336946D01*
X0020598Y0337102D01*
X0020628Y0337258D01*
X0020661Y0337413D01*
X0020699Y0337566D01*
X0020740Y0337719D01*
X0020785Y0337871D01*
X0020834Y0338022D01*
X0020887Y0338171D01*
X0020943Y0338319D01*
X0021003Y0338465D01*
X0021067Y0338610D01*
X0021135Y0338753D01*
X0021206Y0338895D01*
X0021280Y0339035D01*
X0021358Y0339172D01*
X0021440Y0339308D01*
X0021524Y0339442D01*
X0021613Y0339573D01*
X0021704Y0339702D01*
X0021799Y0339829D01*
X0021896Y0339954D01*
X0021997Y0340076D01*
X0022101Y0340195D01*
X0022208Y0340312D01*
X0022318Y0340426D01*
X0022431Y0340537D01*
X0022546Y0340646D01*
X0022664Y0340751D01*
X0022785Y0340853D01*
X0022908Y0340953D01*
X0023034Y0341049D01*
X0023162Y0341142D01*
X0023292Y0341232D01*
X0023425Y0341318D01*
X0023560Y0341402D01*
X0023696Y0341481D01*
X0023835Y0341558D01*
X0023976Y0341630D01*
X0024118Y0341700D01*
X0024262Y0341765D01*
X0024408Y0341827D01*
X0024555Y0341885D01*
X0024704Y0341940D01*
X0024854Y0341991D01*
X0025005Y0342038D01*
X0025157Y0342081D01*
X0025310Y0342120D01*
X0025465Y0342156D01*
X0025620Y0342187D01*
X0025776Y0342215D01*
X0025932Y0342239D01*
X0026089Y0342259D01*
X0026247Y0342275D01*
X0026404Y0342287D01*
X0026563Y0342295D01*
X0026721Y0342299D01*
X0026879Y0342299D01*
X0027037Y0342295D01*
X0027196Y0342287D01*
X0027353Y0342275D01*
X0027511Y0342259D01*
X0027668Y0342239D01*
X0027824Y0342215D01*
X0027980Y0342187D01*
X0028135Y0342156D01*
X0028290Y0342120D01*
X0028443Y0342081D01*
X0028595Y0342038D01*
X0028746Y0341991D01*
X0028896Y0341940D01*
X0029045Y0341885D01*
X0029192Y0341827D01*
X0029338Y0341765D01*
X0029482Y0341700D01*
X0029624Y0341630D01*
X0029765Y0341558D01*
X0029904Y0341481D01*
X0030040Y0341402D01*
X0030175Y0341318D01*
X0030308Y0341232D01*
X0030438Y0341142D01*
X0030566Y0341049D01*
X0030692Y0340953D01*
X0030815Y0340853D01*
X0030936Y0340751D01*
X0031054Y0340646D01*
X0031169Y0340537D01*
X0031282Y0340426D01*
X0031392Y0340312D01*
X0031499Y0340195D01*
X0031603Y0340076D01*
X0031704Y0339954D01*
X0031801Y0339829D01*
X0031896Y0339702D01*
X0031987Y0339573D01*
X0032076Y0339442D01*
X0032160Y0339308D01*
X0032242Y0339172D01*
X0032320Y0339035D01*
X0032394Y0338895D01*
X0032465Y0338753D01*
X0032533Y0338610D01*
X0032597Y0338465D01*
X0032657Y0338319D01*
X0032713Y0338171D01*
X0032766Y0338022D01*
X0032815Y0337871D01*
X0032860Y0337719D01*
X0032901Y0337566D01*
X0032939Y0337413D01*
X0032972Y0337258D01*
X0033002Y0337102D01*
X0033028Y0336946D01*
X0033049Y0336789D01*
X0033067Y0336632D01*
X0033081Y0336474D01*
X0033091Y0336316D01*
X0033097Y0336158D01*
X0033099Y0336000D01*
X0033097Y0335842D01*
X0033091Y0335684D01*
X0033081Y0335526D01*
X0033067Y0335368D01*
X0033049Y0335211D01*
X0033028Y0335054D01*
X0033002Y0334898D01*
X0032972Y0334742D01*
X0032939Y0334587D01*
X0032901Y0334434D01*
X0032860Y0334281D01*
X0032815Y0334129D01*
X0032766Y0333978D01*
X0032713Y0333829D01*
X0032657Y0333681D01*
X0032597Y0333535D01*
X0032533Y0333390D01*
X0032465Y0333247D01*
X0032394Y0333105D01*
X0032320Y0332965D01*
X0032242Y0332828D01*
X0032160Y0332692D01*
X0032076Y0332558D01*
X0031987Y0332427D01*
X0031896Y0332298D01*
X0031801Y0332171D01*
X0031704Y0332046D01*
X0031603Y0331924D01*
X0031499Y0331805D01*
X0031392Y0331688D01*
X0031282Y0331574D01*
X0031169Y0331463D01*
X0031054Y0331354D01*
X0030936Y0331249D01*
X0030815Y0331147D01*
X0030692Y0331047D01*
X0030566Y0330951D01*
X0030438Y0330858D01*
X0030308Y0330768D01*
X0030175Y0330682D01*
X0030040Y0330598D01*
X0029904Y0330519D01*
X0029765Y0330442D01*
X0029624Y0330370D01*
X0029482Y0330300D01*
X0029338Y0330235D01*
X0029192Y0330173D01*
X0029045Y0330115D01*
X0028896Y0330060D01*
X0028746Y0330009D01*
X0028595Y0329962D01*
X0028443Y0329919D01*
X0028290Y0329880D01*
X0028135Y0329844D01*
X0027980Y0329813D01*
X0027824Y0329785D01*
X0027668Y0329761D01*
X0027511Y0329741D01*
X0027353Y0329725D01*
X0027196Y0329713D01*
X0027037Y0329705D01*
X0026879Y0329701D01*
X0026721Y0329701D01*
X0026563Y0329705D01*
X0026404Y0329713D01*
X0026247Y0329725D01*
X0026089Y0329741D01*
X0025932Y0329761D01*
X0025776Y0329785D01*
X0025620Y0329813D01*
X0025465Y0329844D01*
X0025310Y0329880D01*
X0025157Y0329919D01*
X0025005Y0329962D01*
X0024854Y0330009D01*
X0024704Y0330060D01*
X0024555Y0330115D01*
X0024408Y0330173D01*
X0024262Y0330235D01*
X0024118Y0330300D01*
X0023976Y0330370D01*
X0023835Y0330442D01*
X0023696Y0330519D01*
X0023560Y0330598D01*
X0023425Y0330682D01*
X0023292Y0330768D01*
X0023162Y0330858D01*
X0023034Y0330951D01*
X0022908Y0331047D01*
X0022785Y0331147D01*
X0022664Y0331249D01*
X0022546Y0331354D01*
X0022431Y0331463D01*
X0022318Y0331574D01*
X0022208Y0331688D01*
X0022101Y0331805D01*
X0021997Y0331924D01*
X0021896Y0332046D01*
X0021799Y0332171D01*
X0021704Y0332298D01*
X0021613Y0332427D01*
X0021524Y0332558D01*
X0021440Y0332692D01*
X0021358Y0332828D01*
X0021280Y0332965D01*
X0021206Y0333105D01*
X0021135Y0333247D01*
X0021067Y0333390D01*
X0021003Y0333535D01*
X0020943Y0333681D01*
X0020887Y0333829D01*
X0020834Y0333978D01*
X0020785Y0334129D01*
X0020740Y0334281D01*
X0020699Y0334434D01*
X0020661Y0334587D01*
X0020628Y0334742D01*
X0020598Y0334898D01*
X0020572Y0335054D01*
X0020551Y0335211D01*
X0020533Y0335368D01*
X0020519Y0335526D01*
X0020509Y0335684D01*
X0020503Y0335842D01*
X0020501Y0336000D01*
X0200501Y0336000D02*
X0200503Y0336158D01*
X0200509Y0336316D01*
X0200519Y0336474D01*
X0200533Y0336632D01*
X0200551Y0336789D01*
X0200572Y0336946D01*
X0200598Y0337102D01*
X0200628Y0337258D01*
X0200661Y0337413D01*
X0200699Y0337566D01*
X0200740Y0337719D01*
X0200785Y0337871D01*
X0200834Y0338022D01*
X0200887Y0338171D01*
X0200943Y0338319D01*
X0201003Y0338465D01*
X0201067Y0338610D01*
X0201135Y0338753D01*
X0201206Y0338895D01*
X0201280Y0339035D01*
X0201358Y0339172D01*
X0201440Y0339308D01*
X0201524Y0339442D01*
X0201613Y0339573D01*
X0201704Y0339702D01*
X0201799Y0339829D01*
X0201896Y0339954D01*
X0201997Y0340076D01*
X0202101Y0340195D01*
X0202208Y0340312D01*
X0202318Y0340426D01*
X0202431Y0340537D01*
X0202546Y0340646D01*
X0202664Y0340751D01*
X0202785Y0340853D01*
X0202908Y0340953D01*
X0203034Y0341049D01*
X0203162Y0341142D01*
X0203292Y0341232D01*
X0203425Y0341318D01*
X0203560Y0341402D01*
X0203696Y0341481D01*
X0203835Y0341558D01*
X0203976Y0341630D01*
X0204118Y0341700D01*
X0204262Y0341765D01*
X0204408Y0341827D01*
X0204555Y0341885D01*
X0204704Y0341940D01*
X0204854Y0341991D01*
X0205005Y0342038D01*
X0205157Y0342081D01*
X0205310Y0342120D01*
X0205465Y0342156D01*
X0205620Y0342187D01*
X0205776Y0342215D01*
X0205932Y0342239D01*
X0206089Y0342259D01*
X0206247Y0342275D01*
X0206404Y0342287D01*
X0206563Y0342295D01*
X0206721Y0342299D01*
X0206879Y0342299D01*
X0207037Y0342295D01*
X0207196Y0342287D01*
X0207353Y0342275D01*
X0207511Y0342259D01*
X0207668Y0342239D01*
X0207824Y0342215D01*
X0207980Y0342187D01*
X0208135Y0342156D01*
X0208290Y0342120D01*
X0208443Y0342081D01*
X0208595Y0342038D01*
X0208746Y0341991D01*
X0208896Y0341940D01*
X0209045Y0341885D01*
X0209192Y0341827D01*
X0209338Y0341765D01*
X0209482Y0341700D01*
X0209624Y0341630D01*
X0209765Y0341558D01*
X0209904Y0341481D01*
X0210040Y0341402D01*
X0210175Y0341318D01*
X0210308Y0341232D01*
X0210438Y0341142D01*
X0210566Y0341049D01*
X0210692Y0340953D01*
X0210815Y0340853D01*
X0210936Y0340751D01*
X0211054Y0340646D01*
X0211169Y0340537D01*
X0211282Y0340426D01*
X0211392Y0340312D01*
X0211499Y0340195D01*
X0211603Y0340076D01*
X0211704Y0339954D01*
X0211801Y0339829D01*
X0211896Y0339702D01*
X0211987Y0339573D01*
X0212076Y0339442D01*
X0212160Y0339308D01*
X0212242Y0339172D01*
X0212320Y0339035D01*
X0212394Y0338895D01*
X0212465Y0338753D01*
X0212533Y0338610D01*
X0212597Y0338465D01*
X0212657Y0338319D01*
X0212713Y0338171D01*
X0212766Y0338022D01*
X0212815Y0337871D01*
X0212860Y0337719D01*
X0212901Y0337566D01*
X0212939Y0337413D01*
X0212972Y0337258D01*
X0213002Y0337102D01*
X0213028Y0336946D01*
X0213049Y0336789D01*
X0213067Y0336632D01*
X0213081Y0336474D01*
X0213091Y0336316D01*
X0213097Y0336158D01*
X0213099Y0336000D01*
X0213097Y0335842D01*
X0213091Y0335684D01*
X0213081Y0335526D01*
X0213067Y0335368D01*
X0213049Y0335211D01*
X0213028Y0335054D01*
X0213002Y0334898D01*
X0212972Y0334742D01*
X0212939Y0334587D01*
X0212901Y0334434D01*
X0212860Y0334281D01*
X0212815Y0334129D01*
X0212766Y0333978D01*
X0212713Y0333829D01*
X0212657Y0333681D01*
X0212597Y0333535D01*
X0212533Y0333390D01*
X0212465Y0333247D01*
X0212394Y0333105D01*
X0212320Y0332965D01*
X0212242Y0332828D01*
X0212160Y0332692D01*
X0212076Y0332558D01*
X0211987Y0332427D01*
X0211896Y0332298D01*
X0211801Y0332171D01*
X0211704Y0332046D01*
X0211603Y0331924D01*
X0211499Y0331805D01*
X0211392Y0331688D01*
X0211282Y0331574D01*
X0211169Y0331463D01*
X0211054Y0331354D01*
X0210936Y0331249D01*
X0210815Y0331147D01*
X0210692Y0331047D01*
X0210566Y0330951D01*
X0210438Y0330858D01*
X0210308Y0330768D01*
X0210175Y0330682D01*
X0210040Y0330598D01*
X0209904Y0330519D01*
X0209765Y0330442D01*
X0209624Y0330370D01*
X0209482Y0330300D01*
X0209338Y0330235D01*
X0209192Y0330173D01*
X0209045Y0330115D01*
X0208896Y0330060D01*
X0208746Y0330009D01*
X0208595Y0329962D01*
X0208443Y0329919D01*
X0208290Y0329880D01*
X0208135Y0329844D01*
X0207980Y0329813D01*
X0207824Y0329785D01*
X0207668Y0329761D01*
X0207511Y0329741D01*
X0207353Y0329725D01*
X0207196Y0329713D01*
X0207037Y0329705D01*
X0206879Y0329701D01*
X0206721Y0329701D01*
X0206563Y0329705D01*
X0206404Y0329713D01*
X0206247Y0329725D01*
X0206089Y0329741D01*
X0205932Y0329761D01*
X0205776Y0329785D01*
X0205620Y0329813D01*
X0205465Y0329844D01*
X0205310Y0329880D01*
X0205157Y0329919D01*
X0205005Y0329962D01*
X0204854Y0330009D01*
X0204704Y0330060D01*
X0204555Y0330115D01*
X0204408Y0330173D01*
X0204262Y0330235D01*
X0204118Y0330300D01*
X0203976Y0330370D01*
X0203835Y0330442D01*
X0203696Y0330519D01*
X0203560Y0330598D01*
X0203425Y0330682D01*
X0203292Y0330768D01*
X0203162Y0330858D01*
X0203034Y0330951D01*
X0202908Y0331047D01*
X0202785Y0331147D01*
X0202664Y0331249D01*
X0202546Y0331354D01*
X0202431Y0331463D01*
X0202318Y0331574D01*
X0202208Y0331688D01*
X0202101Y0331805D01*
X0201997Y0331924D01*
X0201896Y0332046D01*
X0201799Y0332171D01*
X0201704Y0332298D01*
X0201613Y0332427D01*
X0201524Y0332558D01*
X0201440Y0332692D01*
X0201358Y0332828D01*
X0201280Y0332965D01*
X0201206Y0333105D01*
X0201135Y0333247D01*
X0201067Y0333390D01*
X0201003Y0333535D01*
X0200943Y0333681D01*
X0200887Y0333829D01*
X0200834Y0333978D01*
X0200785Y0334129D01*
X0200740Y0334281D01*
X0200699Y0334434D01*
X0200661Y0334587D01*
X0200628Y0334742D01*
X0200598Y0334898D01*
X0200572Y0335054D01*
X0200551Y0335211D01*
X0200533Y0335368D01*
X0200519Y0335526D01*
X0200509Y0335684D01*
X0200503Y0335842D01*
X0200501Y0336000D01*
X0200501Y0056000D02*
X0200503Y0056158D01*
X0200509Y0056316D01*
X0200519Y0056474D01*
X0200533Y0056632D01*
X0200551Y0056789D01*
X0200572Y0056946D01*
X0200598Y0057102D01*
X0200628Y0057258D01*
X0200661Y0057413D01*
X0200699Y0057566D01*
X0200740Y0057719D01*
X0200785Y0057871D01*
X0200834Y0058022D01*
X0200887Y0058171D01*
X0200943Y0058319D01*
X0201003Y0058465D01*
X0201067Y0058610D01*
X0201135Y0058753D01*
X0201206Y0058895D01*
X0201280Y0059035D01*
X0201358Y0059172D01*
X0201440Y0059308D01*
X0201524Y0059442D01*
X0201613Y0059573D01*
X0201704Y0059702D01*
X0201799Y0059829D01*
X0201896Y0059954D01*
X0201997Y0060076D01*
X0202101Y0060195D01*
X0202208Y0060312D01*
X0202318Y0060426D01*
X0202431Y0060537D01*
X0202546Y0060646D01*
X0202664Y0060751D01*
X0202785Y0060853D01*
X0202908Y0060953D01*
X0203034Y0061049D01*
X0203162Y0061142D01*
X0203292Y0061232D01*
X0203425Y0061318D01*
X0203560Y0061402D01*
X0203696Y0061481D01*
X0203835Y0061558D01*
X0203976Y0061630D01*
X0204118Y0061700D01*
X0204262Y0061765D01*
X0204408Y0061827D01*
X0204555Y0061885D01*
X0204704Y0061940D01*
X0204854Y0061991D01*
X0205005Y0062038D01*
X0205157Y0062081D01*
X0205310Y0062120D01*
X0205465Y0062156D01*
X0205620Y0062187D01*
X0205776Y0062215D01*
X0205932Y0062239D01*
X0206089Y0062259D01*
X0206247Y0062275D01*
X0206404Y0062287D01*
X0206563Y0062295D01*
X0206721Y0062299D01*
X0206879Y0062299D01*
X0207037Y0062295D01*
X0207196Y0062287D01*
X0207353Y0062275D01*
X0207511Y0062259D01*
X0207668Y0062239D01*
X0207824Y0062215D01*
X0207980Y0062187D01*
X0208135Y0062156D01*
X0208290Y0062120D01*
X0208443Y0062081D01*
X0208595Y0062038D01*
X0208746Y0061991D01*
X0208896Y0061940D01*
X0209045Y0061885D01*
X0209192Y0061827D01*
X0209338Y0061765D01*
X0209482Y0061700D01*
X0209624Y0061630D01*
X0209765Y0061558D01*
X0209904Y0061481D01*
X0210040Y0061402D01*
X0210175Y0061318D01*
X0210308Y0061232D01*
X0210438Y0061142D01*
X0210566Y0061049D01*
X0210692Y0060953D01*
X0210815Y0060853D01*
X0210936Y0060751D01*
X0211054Y0060646D01*
X0211169Y0060537D01*
X0211282Y0060426D01*
X0211392Y0060312D01*
X0211499Y0060195D01*
X0211603Y0060076D01*
X0211704Y0059954D01*
X0211801Y0059829D01*
X0211896Y0059702D01*
X0211987Y0059573D01*
X0212076Y0059442D01*
X0212160Y0059308D01*
X0212242Y0059172D01*
X0212320Y0059035D01*
X0212394Y0058895D01*
X0212465Y0058753D01*
X0212533Y0058610D01*
X0212597Y0058465D01*
X0212657Y0058319D01*
X0212713Y0058171D01*
X0212766Y0058022D01*
X0212815Y0057871D01*
X0212860Y0057719D01*
X0212901Y0057566D01*
X0212939Y0057413D01*
X0212972Y0057258D01*
X0213002Y0057102D01*
X0213028Y0056946D01*
X0213049Y0056789D01*
X0213067Y0056632D01*
X0213081Y0056474D01*
X0213091Y0056316D01*
X0213097Y0056158D01*
X0213099Y0056000D01*
X0213097Y0055842D01*
X0213091Y0055684D01*
X0213081Y0055526D01*
X0213067Y0055368D01*
X0213049Y0055211D01*
X0213028Y0055054D01*
X0213002Y0054898D01*
X0212972Y0054742D01*
X0212939Y0054587D01*
X0212901Y0054434D01*
X0212860Y0054281D01*
X0212815Y0054129D01*
X0212766Y0053978D01*
X0212713Y0053829D01*
X0212657Y0053681D01*
X0212597Y0053535D01*
X0212533Y0053390D01*
X0212465Y0053247D01*
X0212394Y0053105D01*
X0212320Y0052965D01*
X0212242Y0052828D01*
X0212160Y0052692D01*
X0212076Y0052558D01*
X0211987Y0052427D01*
X0211896Y0052298D01*
X0211801Y0052171D01*
X0211704Y0052046D01*
X0211603Y0051924D01*
X0211499Y0051805D01*
X0211392Y0051688D01*
X0211282Y0051574D01*
X0211169Y0051463D01*
X0211054Y0051354D01*
X0210936Y0051249D01*
X0210815Y0051147D01*
X0210692Y0051047D01*
X0210566Y0050951D01*
X0210438Y0050858D01*
X0210308Y0050768D01*
X0210175Y0050682D01*
X0210040Y0050598D01*
X0209904Y0050519D01*
X0209765Y0050442D01*
X0209624Y0050370D01*
X0209482Y0050300D01*
X0209338Y0050235D01*
X0209192Y0050173D01*
X0209045Y0050115D01*
X0208896Y0050060D01*
X0208746Y0050009D01*
X0208595Y0049962D01*
X0208443Y0049919D01*
X0208290Y0049880D01*
X0208135Y0049844D01*
X0207980Y0049813D01*
X0207824Y0049785D01*
X0207668Y0049761D01*
X0207511Y0049741D01*
X0207353Y0049725D01*
X0207196Y0049713D01*
X0207037Y0049705D01*
X0206879Y0049701D01*
X0206721Y0049701D01*
X0206563Y0049705D01*
X0206404Y0049713D01*
X0206247Y0049725D01*
X0206089Y0049741D01*
X0205932Y0049761D01*
X0205776Y0049785D01*
X0205620Y0049813D01*
X0205465Y0049844D01*
X0205310Y0049880D01*
X0205157Y0049919D01*
X0205005Y0049962D01*
X0204854Y0050009D01*
X0204704Y0050060D01*
X0204555Y0050115D01*
X0204408Y0050173D01*
X0204262Y0050235D01*
X0204118Y0050300D01*
X0203976Y0050370D01*
X0203835Y0050442D01*
X0203696Y0050519D01*
X0203560Y0050598D01*
X0203425Y0050682D01*
X0203292Y0050768D01*
X0203162Y0050858D01*
X0203034Y0050951D01*
X0202908Y0051047D01*
X0202785Y0051147D01*
X0202664Y0051249D01*
X0202546Y0051354D01*
X0202431Y0051463D01*
X0202318Y0051574D01*
X0202208Y0051688D01*
X0202101Y0051805D01*
X0201997Y0051924D01*
X0201896Y0052046D01*
X0201799Y0052171D01*
X0201704Y0052298D01*
X0201613Y0052427D01*
X0201524Y0052558D01*
X0201440Y0052692D01*
X0201358Y0052828D01*
X0201280Y0052965D01*
X0201206Y0053105D01*
X0201135Y0053247D01*
X0201067Y0053390D01*
X0201003Y0053535D01*
X0200943Y0053681D01*
X0200887Y0053829D01*
X0200834Y0053978D01*
X0200785Y0054129D01*
X0200740Y0054281D01*
X0200699Y0054434D01*
X0200661Y0054587D01*
X0200628Y0054742D01*
X0200598Y0054898D01*
X0200572Y0055054D01*
X0200551Y0055211D01*
X0200533Y0055368D01*
X0200519Y0055526D01*
X0200509Y0055684D01*
X0200503Y0055842D01*
X0200501Y0056000D01*
M02*
