G75*
%MOIN*%
%OFA0B0*%
%FSLAX25Y25*%
%IPPOS*%
%LPD*%
%AMOC8*
5,1,8,0,0,1.08239X$1,22.5*
%
%ADD10R,0.07506X0.03569*%
%ADD11R,0.03569X0.07506*%
%ADD12R,0.06100X0.02500*%
%ADD13R,0.02500X0.06100*%
%ADD14R,0.18100X0.08600*%
%ADD15R,0.18100X0.12100*%
%ADD16R,0.08600X0.18100*%
%ADD17R,0.12100X0.18100*%
%ADD18C,0.07200*%
%ADD19C,0.14700*%
%ADD20R,0.04600X0.04600*%
%ADD21R,0.03962X0.02800*%
%ADD22R,0.04750X0.06324*%
%ADD23C,0.18600*%
%ADD24C,0.07600*%
%ADD25R,0.07600X0.07600*%
%ADD26OC8,0.07600*%
%ADD27R,0.06324X0.04750*%
%ADD28R,0.08698X0.07899*%
%ADD29R,0.07899X0.08698*%
%ADD30C,0.14198*%
%ADD31R,0.05537X0.08687*%
%ADD32C,0.08200*%
D10*
X0088965Y0098252D03*
X0088965Y0101402D03*
X0088965Y0104551D03*
X0088965Y0107701D03*
X0088965Y0110850D03*
X0088965Y0114000D03*
X0088965Y0117150D03*
X0088965Y0120299D03*
X0088965Y0123449D03*
X0088965Y0126598D03*
X0088965Y0129748D03*
X0134635Y0129748D03*
X0134635Y0126598D03*
X0134635Y0123449D03*
X0134635Y0120299D03*
X0134635Y0117150D03*
X0134635Y0114000D03*
X0134635Y0110850D03*
X0134635Y0107701D03*
X0134635Y0104551D03*
X0134635Y0101402D03*
X0134635Y0098252D03*
D11*
X0127548Y0091165D03*
X0124398Y0091165D03*
X0121249Y0091165D03*
X0118099Y0091165D03*
X0114950Y0091165D03*
X0111800Y0091165D03*
X0108650Y0091165D03*
X0105501Y0091165D03*
X0102351Y0091165D03*
X0099202Y0091165D03*
X0096052Y0091165D03*
X0096052Y0136835D03*
X0099202Y0136835D03*
X0102351Y0136835D03*
X0105501Y0136835D03*
X0108650Y0136835D03*
X0111800Y0136835D03*
X0114950Y0136835D03*
X0118099Y0136835D03*
X0121249Y0136835D03*
X0124398Y0136835D03*
X0127548Y0136835D03*
D12*
X0125580Y0172110D03*
X0125580Y0174079D03*
X0125580Y0176047D03*
X0125580Y0178016D03*
X0125580Y0179984D03*
X0125580Y0181953D03*
X0125580Y0183921D03*
X0125580Y0185890D03*
X0098020Y0185890D03*
X0098020Y0183921D03*
X0098020Y0181953D03*
X0098020Y0179984D03*
X0098020Y0178016D03*
X0098020Y0176047D03*
X0098020Y0174079D03*
X0098020Y0172110D03*
D13*
X0104910Y0165220D03*
X0106879Y0165220D03*
X0108847Y0165220D03*
X0110816Y0165220D03*
X0112784Y0165220D03*
X0114753Y0165220D03*
X0116721Y0165220D03*
X0118690Y0165220D03*
X0118690Y0192780D03*
X0116721Y0192780D03*
X0114753Y0192780D03*
X0112784Y0192780D03*
X0110816Y0192780D03*
X0108847Y0192780D03*
X0106879Y0192780D03*
X0104910Y0192780D03*
D14*
X0213472Y0286000D03*
D15*
X0213472Y0272242D03*
X0213472Y0299758D03*
D16*
X0151800Y0342672D03*
D17*
X0165558Y0342672D03*
X0138042Y0342672D03*
D18*
X0181100Y0189750D03*
X0181100Y0179950D03*
X0181100Y0172050D03*
X0181100Y0162250D03*
D19*
X0191800Y0150150D03*
X0191800Y0201850D03*
D20*
X0187464Y0232300D03*
X0187464Y0239855D03*
X0196000Y0235900D03*
D21*
X0150540Y0278441D03*
X0150540Y0281000D03*
X0150540Y0283559D03*
X0143060Y0283559D03*
X0143060Y0281000D03*
X0143060Y0278441D03*
D22*
X0144343Y0295000D03*
X0137257Y0295000D03*
X0163257Y0278500D03*
X0170343Y0278500D03*
X0155343Y0241000D03*
X0148257Y0241000D03*
X0146343Y0181000D03*
X0146343Y0171000D03*
X0139257Y0171000D03*
X0139257Y0181000D03*
X0108343Y0149000D03*
X0101257Y0149000D03*
X0097343Y0201000D03*
X0090257Y0201000D03*
X0050343Y0285000D03*
X0043257Y0285000D03*
D23*
X0177863Y0101000D03*
X0189674Y0119504D03*
X0201485Y0101000D03*
D24*
X0008800Y0019000D02*
X0008800Y0013000D01*
X0018800Y0012000D02*
X0018800Y0018000D01*
X0028800Y0019000D02*
X0028800Y0013000D01*
X0153800Y0161000D02*
X0159800Y0161000D01*
X0160800Y0171000D02*
X0154800Y0171000D01*
X0153800Y0181000D02*
X0159800Y0181000D01*
X0160800Y0191000D02*
X0154800Y0191000D01*
X0212800Y0236000D02*
X0218800Y0236000D01*
X0219800Y0246000D02*
X0213800Y0246000D01*
X0213800Y0226000D02*
X0219800Y0226000D01*
X0161800Y0318000D02*
X0161800Y0324000D01*
X0151800Y0323000D02*
X0151800Y0317000D01*
X0141800Y0318000D02*
X0141800Y0324000D01*
D25*
X0031800Y0196000D03*
D26*
X0031800Y0186000D03*
X0031800Y0176000D03*
X0031800Y0166000D03*
X0031800Y0156000D03*
X0031800Y0146000D03*
X0031800Y0136000D03*
X0031800Y0126000D03*
X0031800Y0116000D03*
X0031800Y0106000D03*
X0041800Y0106000D03*
X0041800Y0116000D03*
X0041800Y0126000D03*
X0041800Y0136000D03*
X0041800Y0146000D03*
X0041800Y0156000D03*
X0041800Y0166000D03*
X0041800Y0176000D03*
X0041800Y0186000D03*
X0041800Y0196000D03*
D27*
X0079800Y0189543D03*
X0079800Y0182457D03*
X0088800Y0182457D03*
X0088800Y0189543D03*
X0077800Y0108543D03*
X0077800Y0101457D03*
X0095800Y0082543D03*
X0095800Y0075457D03*
X0102800Y0062543D03*
X0102800Y0055457D03*
X0105800Y0075457D03*
X0105800Y0082543D03*
X0125800Y0062543D03*
X0125800Y0055457D03*
X0156800Y0057457D03*
X0156800Y0064543D03*
X0150800Y0120457D03*
X0150800Y0127543D03*
D28*
X0171800Y0230402D03*
X0171800Y0241598D03*
X0027800Y0284402D03*
X0027800Y0295598D03*
D29*
X0103202Y0048000D03*
X0114398Y0048000D03*
X0125202Y0048000D03*
X0136398Y0048000D03*
X0161202Y0048000D03*
X0172398Y0048000D03*
D30*
X0206800Y0056000D03*
X0026800Y0056000D03*
X0026800Y0336000D03*
X0206800Y0336000D03*
D31*
X0178312Y0066000D03*
X0165288Y0066000D03*
D32*
X0144800Y0105000D03*
X0143800Y0114000D03*
X0150800Y0134000D03*
X0139800Y0154000D03*
X0133800Y0139000D03*
X0126800Y0146000D03*
X0126800Y0080000D03*
X0118800Y0070000D03*
X0104800Y0069000D03*
X0073800Y0174000D03*
X0082800Y0201000D03*
X0137800Y0286000D03*
X0152800Y0292000D03*
X0148800Y0229000D03*
M02*
