INCH,TZ
%
M48
M72
T01C0.0360
T02C0.0400
T03C0.0440
T04C0.0910
T05C0.1180
T06C0.1260
%
T01
X18110Y16225
X18110Y17205
X18110Y17995
X18110Y18975
T02
X880Y1600
X1880Y1500
X2880Y1600
X3180Y10600
X3180Y11600
X3180Y12600
X3180Y13600
X3180Y14600
X3180Y15600
X3180Y16600
X3180Y17600
X3180Y18600
X3180Y19600
X4180Y19600
X4180Y18600
X4180Y17600
X4180Y16600
X4180Y15600
X4180Y14600
X4180Y13600
X4180Y12600
X4180Y11600
X4180Y10600
X7380Y17400
X8280Y20100
X12680Y14600
X13380Y13900
X13980Y15400
X15080Y13400
X14380Y11400
X14480Y10500
X11880Y7000
X10480Y6900
X15680Y16100
X15780Y17100
X15680Y18100
X15780Y19100
X14880Y22900
X13780Y28600
X15280Y29200
X15180Y32000
X16180Y32100
X14180Y32100
X21680Y24600
X21580Y23600
X21680Y22600
T03
X12680Y8000
T04
X19180Y15015
X19180Y20185
T05
X18967Y11950
X17786Y10100
X20149Y10100
T06
X20680Y5600
X2680Y5600
X2680Y33600
X20680Y33600
M30
