G75*
%MOIN*%
%OFA0B0*%
%FSLAX25Y25*%
%IPPOS*%
%LPD*%
%AMOC8*
5,1,8,0,0,1.08239X$1,22.5*
%
%ADD10R,0.05906X0.01969*%
%ADD11R,0.01969X0.05906*%
%ADD12R,0.04500X0.00900*%
%ADD13R,0.00900X0.04500*%
%ADD14R,0.16500X0.07000*%
%ADD15R,0.16500X0.10500*%
%ADD16R,0.07000X0.16500*%
%ADD17R,0.10500X0.16500*%
%ADD18C,0.05600*%
%ADD19C,0.13100*%
%ADD20R,0.03000X0.03000*%
%ADD21R,0.02362X0.01200*%
%ADD22R,0.03150X0.04724*%
%ADD23C,0.17000*%
%ADD24C,0.06000*%
%ADD25R,0.06000X0.06000*%
%ADD26OC8,0.06000*%
%ADD27R,0.04724X0.03150*%
%ADD28R,0.07098X0.06299*%
%ADD29R,0.06299X0.07098*%
%ADD30R,0.03937X0.07087*%
%ADD31C,0.01200*%
%ADD32C,0.01600*%
%ADD33C,0.03200*%
%ADD34C,0.00900*%
%ADD35C,0.06600*%
D10*
X0088965Y0098252D03*
X0088965Y0101402D03*
X0088965Y0104551D03*
X0088965Y0107701D03*
X0088965Y0110850D03*
X0088965Y0114000D03*
X0088965Y0117150D03*
X0088965Y0120299D03*
X0088965Y0123449D03*
X0088965Y0126598D03*
X0088965Y0129748D03*
X0134635Y0129748D03*
X0134635Y0126598D03*
X0134635Y0123449D03*
X0134635Y0120299D03*
X0134635Y0117150D03*
X0134635Y0114000D03*
X0134635Y0110850D03*
X0134635Y0107701D03*
X0134635Y0104551D03*
X0134635Y0101402D03*
X0134635Y0098252D03*
D11*
X0127548Y0091165D03*
X0124398Y0091165D03*
X0121249Y0091165D03*
X0118099Y0091165D03*
X0114950Y0091165D03*
X0111800Y0091165D03*
X0108650Y0091165D03*
X0105501Y0091165D03*
X0102351Y0091165D03*
X0099202Y0091165D03*
X0096052Y0091165D03*
X0096052Y0136835D03*
X0099202Y0136835D03*
X0102351Y0136835D03*
X0105501Y0136835D03*
X0108650Y0136835D03*
X0111800Y0136835D03*
X0114950Y0136835D03*
X0118099Y0136835D03*
X0121249Y0136835D03*
X0124398Y0136835D03*
X0127548Y0136835D03*
D12*
X0125580Y0172110D03*
X0125580Y0174079D03*
X0125580Y0176047D03*
X0125580Y0178016D03*
X0125580Y0179984D03*
X0125580Y0181953D03*
X0125580Y0183921D03*
X0125580Y0185890D03*
X0098020Y0185890D03*
X0098020Y0183921D03*
X0098020Y0181953D03*
X0098020Y0179984D03*
X0098020Y0178016D03*
X0098020Y0176047D03*
X0098020Y0174079D03*
X0098020Y0172110D03*
D13*
X0104910Y0165220D03*
X0106879Y0165220D03*
X0108847Y0165220D03*
X0110816Y0165220D03*
X0112784Y0165220D03*
X0114753Y0165220D03*
X0116721Y0165220D03*
X0118690Y0165220D03*
X0118690Y0192780D03*
X0116721Y0192780D03*
X0114753Y0192780D03*
X0112784Y0192780D03*
X0110816Y0192780D03*
X0108847Y0192780D03*
X0106879Y0192780D03*
X0104910Y0192780D03*
D14*
X0213472Y0286000D03*
D15*
X0213472Y0272242D03*
X0213472Y0299758D03*
D16*
X0151800Y0342672D03*
D17*
X0165558Y0342672D03*
X0138042Y0342672D03*
D18*
X0181100Y0189750D03*
X0181100Y0179950D03*
X0181100Y0172050D03*
X0181100Y0162250D03*
D19*
X0191800Y0150150D03*
X0191800Y0201850D03*
D20*
X0187464Y0232300D03*
X0187464Y0239855D03*
X0196000Y0235900D03*
D21*
X0150540Y0278441D03*
X0150540Y0281000D03*
X0150540Y0283559D03*
X0143060Y0283559D03*
X0143060Y0281000D03*
X0143060Y0278441D03*
D22*
X0144343Y0295000D03*
X0137257Y0295000D03*
X0163257Y0278500D03*
X0170343Y0278500D03*
X0155343Y0241000D03*
X0148257Y0241000D03*
X0146343Y0181000D03*
X0146343Y0171000D03*
X0139257Y0171000D03*
X0139257Y0181000D03*
X0108343Y0149000D03*
X0101257Y0149000D03*
X0097343Y0201000D03*
X0090257Y0201000D03*
X0050343Y0285000D03*
X0043257Y0285000D03*
D23*
X0177863Y0101000D03*
X0189674Y0119504D03*
X0201485Y0101000D03*
D24*
X0008800Y0019000D02*
X0008800Y0013000D01*
X0018800Y0012000D02*
X0018800Y0018000D01*
X0028800Y0019000D02*
X0028800Y0013000D01*
X0153800Y0161000D02*
X0159800Y0161000D01*
X0160800Y0171000D02*
X0154800Y0171000D01*
X0153800Y0181000D02*
X0159800Y0181000D01*
X0160800Y0191000D02*
X0154800Y0191000D01*
X0212800Y0236000D02*
X0218800Y0236000D01*
X0219800Y0246000D02*
X0213800Y0246000D01*
X0213800Y0226000D02*
X0219800Y0226000D01*
X0161800Y0318000D02*
X0161800Y0324000D01*
X0151800Y0323000D02*
X0151800Y0317000D01*
X0141800Y0318000D02*
X0141800Y0324000D01*
D25*
X0031800Y0196000D03*
D26*
X0031800Y0186000D03*
X0031800Y0176000D03*
X0031800Y0166000D03*
X0031800Y0156000D03*
X0031800Y0146000D03*
X0031800Y0136000D03*
X0031800Y0126000D03*
X0031800Y0116000D03*
X0031800Y0106000D03*
X0041800Y0106000D03*
X0041800Y0116000D03*
X0041800Y0126000D03*
X0041800Y0136000D03*
X0041800Y0146000D03*
X0041800Y0156000D03*
X0041800Y0166000D03*
X0041800Y0176000D03*
X0041800Y0186000D03*
X0041800Y0196000D03*
D27*
X0079800Y0189543D03*
X0079800Y0182457D03*
X0088800Y0182457D03*
X0088800Y0189543D03*
X0077800Y0108543D03*
X0077800Y0101457D03*
X0095800Y0082543D03*
X0095800Y0075457D03*
X0102800Y0062543D03*
X0102800Y0055457D03*
X0105800Y0075457D03*
X0105800Y0082543D03*
X0125800Y0062543D03*
X0125800Y0055457D03*
X0156800Y0057457D03*
X0156800Y0064543D03*
X0150800Y0120457D03*
X0150800Y0127543D03*
D28*
X0171800Y0230402D03*
X0171800Y0241598D03*
X0027800Y0284402D03*
X0027800Y0295598D03*
D29*
X0103202Y0048000D03*
X0114398Y0048000D03*
X0125202Y0048000D03*
X0136398Y0048000D03*
X0161202Y0048000D03*
X0172398Y0048000D03*
D30*
X0178312Y0066000D03*
X0165288Y0066000D03*
D31*
X0131800Y0272242D02*
X0131800Y0281000D01*
X0143060Y0281000D01*
X0143060Y0278441D02*
X0146800Y0278441D01*
X0146800Y0283559D01*
X0150540Y0283559D01*
X0150540Y0281000D02*
X0155800Y0281000D01*
X0155800Y0292000D01*
X0152800Y0295000D01*
X0152800Y0292000D01*
X0152800Y0295000D02*
X0144343Y0295000D01*
X0137257Y0295000D02*
X0131800Y0295000D01*
X0131800Y0281000D01*
X0136800Y0283559D02*
X0137800Y0286000D01*
X0136800Y0283559D02*
X0143060Y0283559D01*
X0150540Y0278441D02*
X0163257Y0278441D01*
X0163257Y0278500D01*
X0131800Y0272242D02*
X0213472Y0272242D01*
D32*
X0213472Y0249328D01*
X0216800Y0246000D01*
X0224800Y0246000D01*
X0225800Y0245000D01*
X0225800Y0228000D01*
X0224800Y0227000D01*
X0217800Y0227000D01*
X0216800Y0226000D01*
X0192650Y0201850D01*
X0191800Y0201850D01*
X0191800Y0150150D01*
X0191800Y0119504D01*
X0196800Y0119504D01*
X0196800Y0101000D01*
X0201485Y0101000D01*
X0186800Y0086315D01*
X0186800Y0051000D01*
X0181800Y0048000D01*
X0172398Y0048000D01*
X0172800Y0045598D01*
X0172800Y0040000D01*
X0171800Y0039000D01*
X0153800Y0039000D01*
X0149800Y0043000D01*
X0149800Y0089000D01*
X0151800Y0091000D01*
X0151800Y0120000D01*
X0150800Y0120457D02*
X0150800Y0120457D01*
X0154962Y0120457D01*
X0154962Y0122268D01*
X0154840Y0122726D01*
X0154603Y0123137D01*
X0154321Y0123418D01*
X0154748Y0123595D01*
X0155536Y0124382D01*
X0155962Y0125412D01*
X0155962Y0129675D01*
X0155710Y0130283D01*
X0155971Y0130545D01*
X0156900Y0132787D01*
X0156900Y0135213D01*
X0155971Y0137455D01*
X0154255Y0139171D01*
X0152013Y0140100D01*
X0149587Y0140100D01*
X0147345Y0139171D01*
X0147050Y0138877D01*
X0147050Y0141646D01*
X0146555Y0142841D01*
X0145641Y0143755D01*
X0141355Y0148041D01*
X0143255Y0148829D01*
X0144971Y0150545D01*
X0145900Y0152787D01*
X0145900Y0155213D01*
X0144971Y0157455D01*
X0143255Y0159171D01*
X0141013Y0160100D01*
X0138587Y0160100D01*
X0138381Y0160015D01*
X0133050Y0165346D01*
X0133050Y0173823D01*
X0134882Y0171625D01*
X0134882Y0168081D01*
X0135308Y0167052D01*
X0136096Y0166264D01*
X0137125Y0165838D01*
X0141388Y0165838D01*
X0142418Y0166264D01*
X0142800Y0166647D01*
X0143182Y0166264D01*
X0144212Y0165838D01*
X0148475Y0165838D01*
X0149504Y0166264D01*
X0150292Y0167052D01*
X0150366Y0167231D01*
X0151339Y0166259D01*
X0150515Y0165917D01*
X0148883Y0164285D01*
X0148000Y0162154D01*
X0148000Y0159846D01*
X0148883Y0157715D01*
X0150515Y0156083D01*
X0152646Y0155200D01*
X0157400Y0155200D01*
X0157400Y0070125D01*
X0157900Y0068918D01*
X0153881Y0068918D01*
X0152852Y0068492D01*
X0152064Y0067704D01*
X0151638Y0066675D01*
X0151638Y0062412D01*
X0152064Y0061382D01*
X0152447Y0061000D01*
X0152064Y0060618D01*
X0151638Y0059588D01*
X0151638Y0055325D01*
X0152064Y0054296D01*
X0152852Y0053508D01*
X0153200Y0053364D01*
X0153200Y0050284D01*
X0153748Y0048961D01*
X0155252Y0047457D01*
X0155252Y0043894D01*
X0155678Y0042865D01*
X0156466Y0042077D01*
X0157495Y0041651D01*
X0164908Y0041651D01*
X0165937Y0042077D01*
X0166725Y0042865D01*
X0167151Y0043894D01*
X0167151Y0052106D01*
X0166725Y0053135D01*
X0165937Y0053923D01*
X0164908Y0054349D01*
X0161558Y0054349D01*
X0161962Y0055325D01*
X0161962Y0059588D01*
X0161762Y0060071D01*
X0162763Y0059657D01*
X0167814Y0059657D01*
X0168843Y0060083D01*
X0169630Y0060871D01*
X0170057Y0061900D01*
X0170057Y0070100D01*
X0169688Y0070990D01*
X0169688Y0071875D01*
X0169018Y0073492D01*
X0167781Y0074730D01*
X0166200Y0075385D01*
X0166200Y0156600D01*
X0182675Y0156600D01*
X0184292Y0157270D01*
X0185530Y0158508D01*
X0185709Y0158939D01*
X0185847Y0159078D01*
X0186700Y0161136D01*
X0186700Y0163364D01*
X0185847Y0165422D01*
X0184272Y0166997D01*
X0183953Y0167129D01*
X0184292Y0167270D01*
X0185530Y0168508D01*
X0185568Y0168598D01*
X0185847Y0168878D01*
X0186700Y0170936D01*
X0186700Y0173164D01*
X0185847Y0175222D01*
X0185070Y0176000D01*
X0185847Y0176778D01*
X0186700Y0178836D01*
X0186700Y0181064D01*
X0185847Y0183122D01*
X0185568Y0183402D01*
X0185530Y0183492D01*
X0184292Y0184730D01*
X0182675Y0185400D01*
X0182598Y0185400D01*
X0182866Y0185487D01*
X0183511Y0185816D01*
X0184097Y0186241D01*
X0184609Y0186753D01*
X0185034Y0187339D01*
X0185363Y0187984D01*
X0185587Y0188673D01*
X0185700Y0189388D01*
X0185700Y0189650D01*
X0181200Y0189650D01*
X0181200Y0189850D01*
X0185700Y0189850D01*
X0185700Y0190112D01*
X0185587Y0190827D01*
X0185363Y0191516D01*
X0185034Y0192161D01*
X0184609Y0192747D01*
X0184097Y0193259D01*
X0183511Y0193684D01*
X0182866Y0194013D01*
X0182177Y0194237D01*
X0181462Y0194350D01*
X0181200Y0194350D01*
X0181200Y0189850D01*
X0181000Y0189850D01*
X0181000Y0194350D01*
X0180738Y0194350D01*
X0180023Y0194237D01*
X0179334Y0194013D01*
X0178689Y0193684D01*
X0178103Y0193259D01*
X0177591Y0192747D01*
X0177166Y0192161D01*
X0176837Y0191516D01*
X0176613Y0190827D01*
X0176500Y0190112D01*
X0176500Y0189850D01*
X0181000Y0189850D01*
X0181000Y0189650D01*
X0176500Y0189650D01*
X0176500Y0189388D01*
X0176613Y0188673D01*
X0176837Y0187984D01*
X0177166Y0187339D01*
X0177591Y0186753D01*
X0178103Y0186241D01*
X0178689Y0185816D01*
X0179334Y0185487D01*
X0179602Y0185400D01*
X0163602Y0185400D01*
X0163085Y0185917D01*
X0162032Y0186353D01*
X0162643Y0186552D01*
X0163316Y0186895D01*
X0163927Y0187339D01*
X0164461Y0187873D01*
X0164905Y0188484D01*
X0165248Y0189157D01*
X0165482Y0189876D01*
X0165600Y0190622D01*
X0165600Y0190800D01*
X0158000Y0190800D01*
X0158000Y0191200D01*
X0157600Y0191200D01*
X0157600Y0195800D01*
X0154422Y0195800D01*
X0153676Y0195682D01*
X0152957Y0195448D01*
X0152284Y0195105D01*
X0151673Y0194661D01*
X0151139Y0194127D01*
X0150695Y0193516D01*
X0150352Y0192843D01*
X0150118Y0192124D01*
X0150000Y0191378D01*
X0150000Y0191200D01*
X0157600Y0191200D01*
X0157600Y0190800D01*
X0150000Y0190800D01*
X0150000Y0190622D01*
X0150118Y0189876D01*
X0150352Y0189157D01*
X0150695Y0188484D01*
X0151139Y0187873D01*
X0151673Y0187339D01*
X0152284Y0186895D01*
X0152549Y0186760D01*
X0150515Y0185917D01*
X0149919Y0185321D01*
X0149504Y0185736D01*
X0148475Y0186162D01*
X0144212Y0186162D01*
X0143182Y0185736D01*
X0142800Y0185353D01*
X0142418Y0185736D01*
X0141388Y0186162D01*
X0137125Y0186162D01*
X0136096Y0185736D01*
X0135308Y0184948D01*
X0134882Y0183919D01*
X0134882Y0183234D01*
X0130630Y0183234D01*
X0130630Y0186897D01*
X0130203Y0187926D01*
X0129416Y0188713D01*
X0128830Y0188956D01*
X0128830Y0195867D01*
X0128335Y0197061D01*
X0122555Y0202841D01*
X0121641Y0203755D01*
X0120446Y0204250D01*
X0101581Y0204250D01*
X0101292Y0204948D01*
X0100504Y0205736D01*
X0099475Y0206162D01*
X0095212Y0206162D01*
X0094182Y0205736D01*
X0093800Y0205353D01*
X0093418Y0205736D01*
X0092388Y0206162D01*
X0088125Y0206162D01*
X0087096Y0205736D01*
X0086893Y0205533D01*
X0086255Y0206171D01*
X0084013Y0207100D01*
X0081587Y0207100D01*
X0079345Y0206171D01*
X0077629Y0204455D01*
X0077400Y0203903D01*
X0077400Y0262259D01*
X0076852Y0263583D01*
X0054718Y0285716D01*
X0054718Y0287919D01*
X0054292Y0288948D01*
X0053504Y0289736D01*
X0052475Y0290162D01*
X0048212Y0290162D01*
X0047182Y0289736D01*
X0046800Y0289353D01*
X0046418Y0289736D01*
X0045388Y0290162D01*
X0041125Y0290162D01*
X0040096Y0289736D01*
X0039308Y0288948D01*
X0038916Y0288002D01*
X0034149Y0288002D01*
X0034149Y0288108D01*
X0033723Y0289137D01*
X0032935Y0289925D01*
X0031906Y0290351D01*
X0023694Y0290351D01*
X0022665Y0289925D01*
X0021877Y0289137D01*
X0021451Y0288108D01*
X0021451Y0280695D01*
X0021877Y0279666D01*
X0022665Y0278878D01*
X0023694Y0278452D01*
X0031906Y0278452D01*
X0032935Y0278878D01*
X0033723Y0279666D01*
X0034149Y0280695D01*
X0034149Y0280802D01*
X0039558Y0280802D01*
X0040096Y0280264D01*
X0041125Y0279838D01*
X0045388Y0279838D01*
X0046418Y0280264D01*
X0046800Y0280647D01*
X0047182Y0280264D01*
X0048212Y0279838D01*
X0050414Y0279838D01*
X0070200Y0260052D01*
X0070200Y0179027D01*
X0068629Y0177455D01*
X0067700Y0175213D01*
X0067700Y0172787D01*
X0068629Y0170545D01*
X0070345Y0168829D01*
X0072587Y0167900D01*
X0075013Y0167900D01*
X0077255Y0168829D01*
X0078561Y0170135D01*
X0096882Y0151814D01*
X0096882Y0146081D01*
X0097308Y0145052D01*
X0098096Y0144264D01*
X0099125Y0143838D01*
X0099871Y0143838D01*
X0101121Y0142587D01*
X0100810Y0142587D01*
X0100776Y0142573D01*
X0100743Y0142587D01*
X0097660Y0142587D01*
X0097627Y0142573D01*
X0097593Y0142587D01*
X0094511Y0142587D01*
X0093482Y0142161D01*
X0092694Y0141373D01*
X0092268Y0140344D01*
X0092268Y0133532D01*
X0085456Y0133532D01*
X0084427Y0133106D01*
X0083639Y0132318D01*
X0083213Y0131289D01*
X0083213Y0128207D01*
X0083227Y0128173D01*
X0083213Y0128140D01*
X0083213Y0125057D01*
X0083227Y0125024D01*
X0083213Y0124990D01*
X0083213Y0121908D01*
X0083227Y0121874D01*
X0083213Y0121840D01*
X0083213Y0118758D01*
X0083227Y0118724D01*
X0083213Y0118691D01*
X0083213Y0115608D01*
X0083227Y0115575D01*
X0083213Y0115541D01*
X0083213Y0112459D01*
X0083227Y0112425D01*
X0083213Y0112392D01*
X0083213Y0109309D01*
X0083639Y0108280D01*
X0083768Y0108151D01*
X0081962Y0108151D01*
X0081962Y0108543D01*
X0077800Y0108543D01*
X0073638Y0108543D01*
X0073638Y0106732D01*
X0073760Y0106274D01*
X0073997Y0105863D01*
X0074261Y0105600D01*
X0058291Y0105600D01*
X0047600Y0116291D01*
X0047600Y0118402D01*
X0045002Y0121000D01*
X0047600Y0123598D01*
X0047600Y0128402D01*
X0045002Y0131000D01*
X0047600Y0133598D01*
X0047600Y0138402D01*
X0045002Y0141000D01*
X0047600Y0143598D01*
X0047600Y0148402D01*
X0045002Y0151000D01*
X0047600Y0153598D01*
X0047600Y0158402D01*
X0045002Y0161000D01*
X0047600Y0163598D01*
X0047600Y0168402D01*
X0045002Y0171000D01*
X0047600Y0173598D01*
X0047600Y0178402D01*
X0045002Y0181000D01*
X0047600Y0183598D01*
X0047600Y0188402D01*
X0044295Y0191707D01*
X0046600Y0194012D01*
X0046600Y0195800D01*
X0042000Y0195800D01*
X0042000Y0196200D01*
X0041600Y0196200D01*
X0041600Y0200800D01*
X0039812Y0200800D01*
X0037600Y0198588D01*
X0037600Y0199557D01*
X0037174Y0200586D01*
X0036386Y0201374D01*
X0035357Y0201800D01*
X0028243Y0201800D01*
X0027214Y0201374D01*
X0026426Y0200586D01*
X0026000Y0199557D01*
X0026000Y0192443D01*
X0026426Y0191414D01*
X0027214Y0190626D01*
X0027928Y0190330D01*
X0026000Y0188402D01*
X0026000Y0183598D01*
X0028598Y0181000D01*
X0026000Y0178402D01*
X0026000Y0173598D01*
X0028598Y0171000D01*
X0026000Y0168402D01*
X0026000Y0163598D01*
X0028598Y0161000D01*
X0026000Y0158402D01*
X0026000Y0153598D01*
X0028598Y0151000D01*
X0026000Y0148402D01*
X0026000Y0144600D01*
X0022084Y0144600D01*
X0020761Y0144052D01*
X0019748Y0143039D01*
X0008748Y0132039D01*
X0008200Y0130716D01*
X0008200Y0088284D01*
X0008748Y0086961D01*
X0009761Y0085948D01*
X0019761Y0075948D01*
X0021084Y0075400D01*
X0062309Y0075400D01*
X0075761Y0061948D01*
X0077084Y0061400D01*
X0094309Y0061400D01*
X0095748Y0059961D01*
X0096761Y0058948D01*
X0097990Y0058439D01*
X0097638Y0057588D01*
X0097638Y0053325D01*
X0097705Y0053162D01*
X0097678Y0053135D01*
X0097252Y0052106D01*
X0097252Y0043894D01*
X0097678Y0042865D01*
X0098466Y0042077D01*
X0099495Y0041651D01*
X0101399Y0041651D01*
X0101613Y0041527D01*
X0101857Y0041494D01*
X0102084Y0041400D01*
X0102560Y0041400D01*
X0103032Y0041337D01*
X0103270Y0041400D01*
X0103516Y0041400D01*
X0103956Y0041582D01*
X0104214Y0041651D01*
X0106908Y0041651D01*
X0107937Y0042077D01*
X0108725Y0042865D01*
X0108800Y0043046D01*
X0108875Y0042865D01*
X0109663Y0042077D01*
X0110692Y0041651D01*
X0113058Y0041651D01*
X0115748Y0038961D01*
X0116761Y0037948D01*
X0118084Y0037400D01*
X0142516Y0037400D01*
X0143839Y0037948D01*
X0146839Y0040948D01*
X0147852Y0041961D01*
X0148400Y0043284D01*
X0148400Y0096472D01*
X0148454Y0096653D01*
X0148400Y0097183D01*
X0148400Y0097716D01*
X0148328Y0097890D01*
X0148309Y0098078D01*
X0148056Y0098547D01*
X0147852Y0099039D01*
X0147719Y0099173D01*
X0147629Y0099338D01*
X0147441Y0099491D01*
X0148255Y0099829D01*
X0149971Y0101545D01*
X0150900Y0103787D01*
X0150900Y0106213D01*
X0149971Y0108455D01*
X0148427Y0110000D01*
X0148971Y0110545D01*
X0149900Y0112787D01*
X0149900Y0115213D01*
X0149126Y0117082D01*
X0150800Y0117082D01*
X0153399Y0117082D01*
X0153857Y0117205D01*
X0154267Y0117442D01*
X0154603Y0117777D01*
X0154840Y0118187D01*
X0154962Y0118645D01*
X0154962Y0120457D01*
X0150800Y0120457D01*
X0150800Y0120457D01*
X0146638Y0120457D01*
X0146638Y0122268D01*
X0146760Y0122726D01*
X0146956Y0123065D01*
X0144288Y0120397D01*
X0143571Y0120100D01*
X0145013Y0120100D01*
X0146638Y0119427D01*
X0146638Y0120457D01*
X0150800Y0120457D01*
X0146643Y0120299D01*
X0134635Y0120299D01*
X0119099Y0120299D01*
X0118800Y0120000D01*
X0108650Y0109850D01*
X0108650Y0109000D01*
X0105650Y0106000D01*
X0096800Y0106000D01*
X0095099Y0107701D01*
X0088965Y0107701D01*
X0076957Y0107701D01*
X0077800Y0108543D01*
X0077800Y0108543D01*
X0077800Y0108543D01*
X0081962Y0108543D01*
X0081962Y0110355D01*
X0081840Y0110813D01*
X0081603Y0111223D01*
X0081267Y0111558D01*
X0080857Y0111795D01*
X0080399Y0111918D01*
X0077800Y0111918D01*
X0077800Y0108543D01*
X0073638Y0108543D01*
X0073638Y0110355D01*
X0073760Y0110813D01*
X0073997Y0111223D01*
X0074333Y0111558D01*
X0074743Y0111795D01*
X0075201Y0111918D01*
X0077800Y0111918D01*
X0077800Y0108543D01*
X0077800Y0108543D01*
X0077800Y0109327D02*
X0077800Y0109327D01*
X0077800Y0110926D02*
X0077800Y0110926D01*
X0073826Y0110926D02*
X0052966Y0110926D01*
X0051367Y0112524D02*
X0083213Y0112524D01*
X0083213Y0110926D02*
X0081774Y0110926D01*
X0081962Y0109327D02*
X0083213Y0109327D01*
X0083213Y0114123D02*
X0049769Y0114123D01*
X0048170Y0115721D02*
X0083213Y0115721D01*
X0083213Y0117320D02*
X0047600Y0117320D01*
X0047084Y0118918D02*
X0083213Y0118918D01*
X0083213Y0120517D02*
X0045486Y0120517D01*
X0046118Y0122115D02*
X0083213Y0122115D01*
X0083213Y0123714D02*
X0047600Y0123714D01*
X0047600Y0125312D02*
X0083213Y0125312D01*
X0083213Y0126911D02*
X0047600Y0126911D01*
X0047493Y0128509D02*
X0083213Y0128509D01*
X0083213Y0130108D02*
X0045895Y0130108D01*
X0045709Y0131706D02*
X0083385Y0131706D01*
X0084906Y0133305D02*
X0047307Y0133305D01*
X0047600Y0134903D02*
X0092268Y0134903D01*
X0092268Y0136502D02*
X0047600Y0136502D01*
X0047600Y0138100D02*
X0092268Y0138100D01*
X0092268Y0139699D02*
X0046304Y0139699D01*
X0045300Y0141297D02*
X0092662Y0141297D01*
X0097866Y0144494D02*
X0047600Y0144494D01*
X0047600Y0146093D02*
X0096882Y0146093D01*
X0096882Y0147691D02*
X0047600Y0147691D01*
X0046713Y0149290D02*
X0096882Y0149290D01*
X0096882Y0150888D02*
X0045114Y0150888D01*
X0046489Y0152487D02*
X0096209Y0152487D01*
X0094611Y0154085D02*
X0047600Y0154085D01*
X0047600Y0155684D02*
X0093012Y0155684D01*
X0091414Y0157282D02*
X0047600Y0157282D01*
X0047122Y0158881D02*
X0089815Y0158881D01*
X0088217Y0160479D02*
X0045523Y0160479D01*
X0046080Y0162078D02*
X0086618Y0162078D01*
X0085020Y0163676D02*
X0047600Y0163676D01*
X0047600Y0165275D02*
X0083421Y0165275D01*
X0081823Y0166873D02*
X0047600Y0166873D01*
X0047530Y0168472D02*
X0071206Y0168472D01*
X0069103Y0170070D02*
X0045932Y0170070D01*
X0045671Y0171669D02*
X0068163Y0171669D01*
X0067700Y0173268D02*
X0047270Y0173268D01*
X0047600Y0174866D02*
X0067700Y0174866D01*
X0068218Y0176465D02*
X0047600Y0176465D01*
X0047600Y0178063D02*
X0069236Y0178063D01*
X0070200Y0179662D02*
X0046341Y0179662D01*
X0045262Y0181260D02*
X0070200Y0181260D01*
X0070200Y0182859D02*
X0046861Y0182859D01*
X0047600Y0184457D02*
X0070200Y0184457D01*
X0070200Y0186056D02*
X0047600Y0186056D01*
X0047600Y0187654D02*
X0070200Y0187654D01*
X0070200Y0189253D02*
X0046750Y0189253D01*
X0045151Y0190851D02*
X0070200Y0190851D01*
X0070200Y0192450D02*
X0045038Y0192450D01*
X0046600Y0194048D02*
X0070200Y0194048D01*
X0070200Y0195647D02*
X0046600Y0195647D01*
X0046600Y0196200D02*
X0046600Y0197988D01*
X0043788Y0200800D01*
X0042000Y0200800D01*
X0042000Y0196200D01*
X0046600Y0196200D01*
X0046600Y0197245D02*
X0070200Y0197245D01*
X0070200Y0198844D02*
X0045745Y0198844D01*
X0044146Y0200442D02*
X0070200Y0200442D01*
X0070200Y0202041D02*
X0006600Y0202041D01*
X0006600Y0203639D02*
X0070200Y0203639D01*
X0070200Y0205238D02*
X0006600Y0205238D01*
X0006600Y0206836D02*
X0070200Y0206836D01*
X0070200Y0208435D02*
X0006600Y0208435D01*
X0006600Y0210033D02*
X0070200Y0210033D01*
X0070200Y0211632D02*
X0006600Y0211632D01*
X0006600Y0213230D02*
X0070200Y0213230D01*
X0070200Y0214829D02*
X0006600Y0214829D01*
X0006600Y0216427D02*
X0070200Y0216427D01*
X0070200Y0218026D02*
X0006600Y0218026D01*
X0006600Y0219624D02*
X0070200Y0219624D01*
X0070200Y0221223D02*
X0006600Y0221223D01*
X0006600Y0222821D02*
X0070200Y0222821D01*
X0070200Y0224420D02*
X0006600Y0224420D01*
X0006600Y0226018D02*
X0070200Y0226018D01*
X0070200Y0227617D02*
X0006600Y0227617D01*
X0006600Y0229215D02*
X0070200Y0229215D01*
X0070200Y0230814D02*
X0006600Y0230814D01*
X0006600Y0232412D02*
X0070200Y0232412D01*
X0070200Y0234011D02*
X0006600Y0234011D01*
X0006600Y0235609D02*
X0070200Y0235609D01*
X0070200Y0237208D02*
X0006600Y0237208D01*
X0006600Y0238806D02*
X0070200Y0238806D01*
X0070200Y0240405D02*
X0006600Y0240405D01*
X0006600Y0242003D02*
X0070200Y0242003D01*
X0070200Y0243602D02*
X0006600Y0243602D01*
X0006600Y0245201D02*
X0070200Y0245201D01*
X0070200Y0246799D02*
X0006600Y0246799D01*
X0006600Y0248398D02*
X0070200Y0248398D01*
X0070200Y0249996D02*
X0006600Y0249996D01*
X0006600Y0251595D02*
X0070200Y0251595D01*
X0070200Y0253193D02*
X0006600Y0253193D01*
X0006600Y0254792D02*
X0070200Y0254792D01*
X0070200Y0256390D02*
X0006600Y0256390D01*
X0006600Y0257989D02*
X0070200Y0257989D01*
X0070200Y0259587D02*
X0006600Y0259587D01*
X0006600Y0261186D02*
X0069066Y0261186D01*
X0067468Y0262784D02*
X0006600Y0262784D01*
X0006600Y0264383D02*
X0065869Y0264383D01*
X0064271Y0265981D02*
X0006600Y0265981D01*
X0006600Y0267580D02*
X0062672Y0267580D01*
X0061074Y0269178D02*
X0006600Y0269178D01*
X0006600Y0270777D02*
X0059475Y0270777D01*
X0057877Y0272375D02*
X0006600Y0272375D01*
X0006600Y0273974D02*
X0056278Y0273974D01*
X0054680Y0275572D02*
X0006600Y0275572D01*
X0006600Y0277171D02*
X0053081Y0277171D01*
X0051483Y0278769D02*
X0032672Y0278769D01*
X0034014Y0280368D02*
X0039992Y0280368D01*
X0042658Y0284402D02*
X0043257Y0285000D01*
X0042658Y0284402D02*
X0027800Y0284402D01*
X0028575Y0290649D02*
X0031586Y0290649D01*
X0032044Y0290771D01*
X0032454Y0291008D01*
X0032790Y0291344D01*
X0033027Y0291754D01*
X0033149Y0292212D01*
X0033149Y0294824D01*
X0028575Y0294824D01*
X0028575Y0296373D01*
X0033149Y0296373D01*
X0033149Y0298985D01*
X0033027Y0299443D01*
X0032790Y0299853D01*
X0032454Y0300188D01*
X0032044Y0300425D01*
X0031586Y0300548D01*
X0028575Y0300548D01*
X0028575Y0296373D01*
X0027025Y0296373D01*
X0027025Y0294824D01*
X0022451Y0294824D01*
X0022451Y0292212D01*
X0022573Y0291754D01*
X0022810Y0291344D01*
X0023146Y0291008D01*
X0023556Y0290771D01*
X0024014Y0290649D01*
X0027025Y0290649D01*
X0027025Y0294824D01*
X0028575Y0294824D01*
X0028575Y0290649D01*
X0028575Y0291557D02*
X0027025Y0291557D01*
X0027025Y0293156D02*
X0028575Y0293156D01*
X0028575Y0294754D02*
X0027025Y0294754D01*
X0027800Y0295598D02*
X0028398Y0295000D01*
X0131800Y0295000D01*
X0133882Y0295000D02*
X0133882Y0297599D01*
X0134005Y0298057D01*
X0134242Y0298467D01*
X0134577Y0298803D01*
X0134987Y0299040D01*
X0135445Y0299162D01*
X0137257Y0299162D01*
X0137257Y0295000D01*
X0137257Y0295000D01*
X0137800Y0295543D01*
X0137800Y0306000D01*
X0141800Y0310000D01*
X0141800Y0321000D01*
X0141800Y0343913D01*
X0138042Y0342672D01*
X0136800Y0342672D01*
X0136800Y0356000D01*
X0166800Y0356000D01*
X0166800Y0341000D01*
X0166358Y0341111D02*
X0164758Y0341111D01*
X0164758Y0341872D02*
X0166358Y0341872D01*
X0166358Y0343472D01*
X0164758Y0343472D01*
X0164758Y0352722D01*
X0160071Y0352722D01*
X0159613Y0352599D01*
X0159203Y0352362D01*
X0158868Y0352027D01*
X0158631Y0351616D01*
X0158508Y0351159D01*
X0158508Y0343472D01*
X0164758Y0343472D01*
X0164758Y0341872D01*
X0158508Y0341872D01*
X0158508Y0334185D01*
X0158631Y0333727D01*
X0158868Y0333316D01*
X0159203Y0332981D01*
X0159613Y0332744D01*
X0160071Y0332622D01*
X0164758Y0332622D01*
X0164758Y0341872D01*
X0164758Y0342710D02*
X0158100Y0342710D01*
X0158100Y0344308D02*
X0158508Y0344308D01*
X0158508Y0345907D02*
X0158100Y0345907D01*
X0158100Y0347505D02*
X0158508Y0347505D01*
X0158508Y0349104D02*
X0158100Y0349104D01*
X0158100Y0350702D02*
X0158508Y0350702D01*
X0158100Y0351479D02*
X0157674Y0352508D01*
X0156886Y0353295D01*
X0155857Y0353722D01*
X0147743Y0353722D01*
X0146714Y0353295D01*
X0145926Y0352508D01*
X0145500Y0351479D01*
X0145500Y0333865D01*
X0145926Y0332836D01*
X0146714Y0332048D01*
X0147743Y0331622D01*
X0148200Y0331622D01*
X0148200Y0327602D01*
X0146883Y0326285D01*
X0146447Y0325232D01*
X0146248Y0325843D01*
X0145905Y0326516D01*
X0145461Y0327127D01*
X0144927Y0327661D01*
X0144316Y0328105D01*
X0143643Y0328448D01*
X0142924Y0328682D01*
X0142178Y0328800D01*
X0142000Y0328800D01*
X0142000Y0321200D01*
X0141600Y0321200D01*
X0141600Y0328800D01*
X0141422Y0328800D01*
X0140676Y0328682D01*
X0139957Y0328448D01*
X0139284Y0328105D01*
X0138673Y0327661D01*
X0138139Y0327127D01*
X0137695Y0326516D01*
X0137352Y0325843D01*
X0137118Y0325124D01*
X0137000Y0324378D01*
X0137000Y0321200D01*
X0141600Y0321200D01*
X0141600Y0320800D01*
X0142000Y0320800D01*
X0142000Y0313200D01*
X0142178Y0313200D01*
X0142924Y0313318D01*
X0143643Y0313552D01*
X0144316Y0313895D01*
X0144927Y0314339D01*
X0145461Y0314873D01*
X0145905Y0315484D01*
X0146040Y0315749D01*
X0146883Y0313715D01*
X0148200Y0312398D01*
X0148200Y0305284D01*
X0148748Y0303961D01*
X0149761Y0302948D01*
X0151084Y0302400D01*
X0158200Y0302400D01*
X0158200Y0294903D01*
X0157971Y0295455D01*
X0156255Y0297171D01*
X0154858Y0297750D01*
X0154726Y0297882D01*
X0153476Y0298400D01*
X0148519Y0298400D01*
X0148292Y0298948D01*
X0147504Y0299736D01*
X0146475Y0300162D01*
X0142212Y0300162D01*
X0141182Y0299736D01*
X0140395Y0298948D01*
X0140218Y0298521D01*
X0139937Y0298803D01*
X0139526Y0299040D01*
X0139068Y0299162D01*
X0137257Y0299162D01*
X0137257Y0295000D01*
X0133882Y0295000D01*
X0133882Y0292401D01*
X0134005Y0291943D01*
X0134242Y0291533D01*
X0134527Y0291247D01*
X0134345Y0291171D01*
X0132629Y0289455D01*
X0131700Y0287213D01*
X0131700Y0284787D01*
X0132629Y0282545D01*
X0134345Y0280829D01*
X0136587Y0279900D01*
X0139013Y0279900D01*
X0139243Y0279995D01*
X0139079Y0279598D01*
X0139079Y0277284D01*
X0139505Y0276255D01*
X0140293Y0275467D01*
X0141322Y0275041D01*
X0147476Y0275041D01*
X0148139Y0275316D01*
X0148802Y0275041D01*
X0159106Y0275041D01*
X0159308Y0274552D01*
X0160096Y0273764D01*
X0161125Y0273338D01*
X0165388Y0273338D01*
X0166418Y0273764D01*
X0166800Y0274147D01*
X0167182Y0273764D01*
X0168212Y0273338D01*
X0172475Y0273338D01*
X0173504Y0273764D01*
X0174292Y0274552D01*
X0174718Y0275581D01*
X0174718Y0281419D01*
X0174312Y0282400D01*
X0202422Y0282400D01*
X0202422Y0281943D01*
X0202848Y0280914D01*
X0203636Y0280126D01*
X0204665Y0279700D01*
X0222279Y0279700D01*
X0223308Y0280126D01*
X0224095Y0280914D01*
X0224522Y0281943D01*
X0224522Y0290057D01*
X0224095Y0291086D01*
X0223308Y0291874D01*
X0222279Y0292300D01*
X0204665Y0292300D01*
X0203636Y0291874D01*
X0202848Y0291086D01*
X0202422Y0290057D01*
X0202422Y0289600D01*
X0165400Y0289600D01*
X0165400Y0306716D01*
X0164852Y0308039D01*
X0163839Y0309052D01*
X0162516Y0309600D01*
X0155400Y0309600D01*
X0155400Y0312398D01*
X0156717Y0313715D01*
X0157560Y0315749D01*
X0157695Y0315484D01*
X0158139Y0314873D01*
X0158673Y0314339D01*
X0159284Y0313895D01*
X0159957Y0313552D01*
X0160676Y0313318D01*
X0161422Y0313200D01*
X0161600Y0313200D01*
X0161600Y0320800D01*
X0162000Y0320800D01*
X0162000Y0321200D01*
X0161600Y0321200D01*
X0161600Y0328800D01*
X0161422Y0328800D01*
X0160676Y0328682D01*
X0159957Y0328448D01*
X0159284Y0328105D01*
X0158673Y0327661D01*
X0158139Y0327127D01*
X0157695Y0326516D01*
X0157352Y0325843D01*
X0157153Y0325232D01*
X0156717Y0326285D01*
X0155400Y0327602D01*
X0155400Y0331622D01*
X0155857Y0331622D01*
X0156886Y0332048D01*
X0157674Y0332836D01*
X0158100Y0333865D01*
X0158100Y0351479D01*
X0157759Y0352301D02*
X0159142Y0352301D01*
X0164758Y0352301D02*
X0166358Y0352301D01*
X0166358Y0352722D02*
X0166358Y0343472D01*
X0172608Y0343472D01*
X0172608Y0351159D01*
X0172486Y0351616D01*
X0172249Y0352027D01*
X0171913Y0352362D01*
X0171503Y0352599D01*
X0171045Y0352722D01*
X0166358Y0352722D01*
X0166358Y0350702D02*
X0164758Y0350702D01*
X0164758Y0349104D02*
X0166358Y0349104D01*
X0166358Y0347505D02*
X0164758Y0347505D01*
X0164758Y0345907D02*
X0166358Y0345907D01*
X0166358Y0344308D02*
X0164758Y0344308D01*
X0165558Y0342672D02*
X0161800Y0343913D01*
X0161800Y0321000D01*
X0183042Y0299758D01*
X0213472Y0299758D01*
X0226800Y0299758D01*
X0226800Y0272242D01*
X0213472Y0272242D01*
X0214272Y0272375D02*
X0227000Y0272375D01*
X0227000Y0270777D02*
X0223522Y0270777D01*
X0223522Y0271442D02*
X0214272Y0271442D01*
X0214272Y0273042D01*
X0223522Y0273042D01*
X0223522Y0277729D01*
X0223399Y0278187D01*
X0223162Y0278597D01*
X0222827Y0278932D01*
X0222416Y0279169D01*
X0221959Y0279292D01*
X0214272Y0279292D01*
X0214272Y0273042D01*
X0212672Y0273042D01*
X0212672Y0279292D01*
X0204985Y0279292D01*
X0204527Y0279169D01*
X0204116Y0278932D01*
X0203781Y0278597D01*
X0203544Y0278187D01*
X0203422Y0277729D01*
X0203422Y0273042D01*
X0212672Y0273042D01*
X0212672Y0271442D01*
X0214272Y0271442D01*
X0214272Y0265192D01*
X0221959Y0265192D01*
X0222416Y0265314D01*
X0222827Y0265551D01*
X0223162Y0265887D01*
X0223399Y0266297D01*
X0223522Y0266755D01*
X0223522Y0271442D01*
X0223522Y0269178D02*
X0227000Y0269178D01*
X0227000Y0267580D02*
X0223522Y0267580D01*
X0223217Y0265981D02*
X0227000Y0265981D01*
X0227000Y0264383D02*
X0076052Y0264383D01*
X0077183Y0262784D02*
X0227000Y0262784D01*
X0227000Y0261186D02*
X0077400Y0261186D01*
X0077400Y0259587D02*
X0227000Y0259587D01*
X0227000Y0257989D02*
X0077400Y0257989D01*
X0077400Y0256390D02*
X0227000Y0256390D01*
X0227000Y0254792D02*
X0077400Y0254792D01*
X0077400Y0253193D02*
X0150102Y0253193D01*
X0149761Y0253052D02*
X0146761Y0250052D01*
X0145748Y0249039D01*
X0145200Y0247716D01*
X0145200Y0245779D01*
X0145096Y0245736D01*
X0144308Y0244948D01*
X0143882Y0243919D01*
X0143882Y0238081D01*
X0144308Y0237052D01*
X0144657Y0236703D01*
X0144657Y0233483D01*
X0143629Y0232455D01*
X0142700Y0230213D01*
X0142700Y0227787D01*
X0143629Y0225545D01*
X0145345Y0223829D01*
X0147587Y0222900D01*
X0150013Y0222900D01*
X0152255Y0223829D01*
X0153971Y0225545D01*
X0154900Y0227787D01*
X0154900Y0230213D01*
X0153971Y0232455D01*
X0152255Y0234171D01*
X0151857Y0234336D01*
X0151857Y0236590D01*
X0152182Y0236264D01*
X0153212Y0235838D01*
X0157475Y0235838D01*
X0158504Y0236264D01*
X0159292Y0237052D01*
X0159684Y0237998D01*
X0165451Y0237998D01*
X0165451Y0237892D01*
X0165877Y0236863D01*
X0166665Y0236075D01*
X0167694Y0235649D01*
X0175906Y0235649D01*
X0176935Y0236075D01*
X0177723Y0236863D01*
X0178149Y0237892D01*
X0178149Y0245305D01*
X0177723Y0246334D01*
X0177657Y0246400D01*
X0183864Y0246400D01*
X0183864Y0243215D01*
X0183590Y0242941D01*
X0183164Y0241912D01*
X0183164Y0237798D01*
X0183590Y0236769D01*
X0184378Y0235981D01*
X0185407Y0235555D01*
X0185559Y0235555D01*
X0185269Y0235477D01*
X0184859Y0235240D01*
X0184523Y0234905D01*
X0184286Y0234495D01*
X0184164Y0234037D01*
X0184164Y0232300D01*
X0184164Y0230563D01*
X0184286Y0230105D01*
X0184523Y0229695D01*
X0184859Y0229360D01*
X0185269Y0229123D01*
X0185727Y0229000D01*
X0187464Y0229000D01*
X0189201Y0229000D01*
X0189659Y0229123D01*
X0190069Y0229360D01*
X0190404Y0229695D01*
X0190641Y0230105D01*
X0190764Y0230563D01*
X0190764Y0232300D01*
X0190764Y0234037D01*
X0190641Y0234495D01*
X0190404Y0234905D01*
X0190069Y0235240D01*
X0189659Y0235477D01*
X0189368Y0235555D01*
X0189521Y0235555D01*
X0190550Y0235981D01*
X0191337Y0236769D01*
X0191700Y0237644D01*
X0191700Y0233843D01*
X0192126Y0232814D01*
X0192914Y0232026D01*
X0193943Y0231600D01*
X0198057Y0231600D01*
X0199086Y0232026D01*
X0199460Y0232400D01*
X0208198Y0232400D01*
X0209515Y0231083D01*
X0211549Y0230240D01*
X0211284Y0230105D01*
X0210673Y0229661D01*
X0210139Y0229127D01*
X0209695Y0228516D01*
X0209352Y0227843D01*
X0209118Y0227124D01*
X0209000Y0226378D01*
X0209000Y0226200D01*
X0216600Y0226200D01*
X0216600Y0225800D01*
X0217000Y0225800D01*
X0217000Y0226200D01*
X0224600Y0226200D01*
X0224600Y0226378D01*
X0224482Y0227124D01*
X0224248Y0227843D01*
X0223905Y0228516D01*
X0223461Y0229127D01*
X0222927Y0229661D01*
X0222316Y0230105D01*
X0221643Y0230448D01*
X0221032Y0230647D01*
X0222085Y0231083D01*
X0223717Y0232715D01*
X0224600Y0234846D01*
X0224600Y0237154D01*
X0223717Y0239285D01*
X0222085Y0240917D01*
X0221032Y0241353D01*
X0221643Y0241552D01*
X0222316Y0241895D01*
X0222927Y0242339D01*
X0223461Y0242873D01*
X0223905Y0243484D01*
X0224248Y0244157D01*
X0224482Y0244876D01*
X0224600Y0245622D01*
X0224600Y0245800D01*
X0217000Y0245800D01*
X0217000Y0246200D01*
X0216600Y0246200D01*
X0216600Y0250800D01*
X0213422Y0250800D01*
X0212676Y0250682D01*
X0211957Y0250448D01*
X0211284Y0250105D01*
X0210673Y0249661D01*
X0210139Y0249127D01*
X0209695Y0248516D01*
X0209352Y0247843D01*
X0209118Y0247124D01*
X0209000Y0246378D01*
X0209000Y0246200D01*
X0216600Y0246200D01*
X0216600Y0245800D01*
X0209000Y0245800D01*
X0209000Y0245622D01*
X0209118Y0244876D01*
X0209352Y0244157D01*
X0209695Y0243484D01*
X0210139Y0242873D01*
X0210673Y0242339D01*
X0211284Y0241895D01*
X0211549Y0241760D01*
X0209515Y0240917D01*
X0208198Y0239600D01*
X0199260Y0239600D01*
X0199086Y0239774D01*
X0198057Y0240200D01*
X0193943Y0240200D01*
X0192914Y0239774D01*
X0192126Y0238986D01*
X0191764Y0238111D01*
X0191764Y0241912D01*
X0191337Y0242941D01*
X0191064Y0243215D01*
X0191064Y0250052D01*
X0190516Y0251375D01*
X0189852Y0252039D01*
X0188839Y0253052D01*
X0187516Y0253600D01*
X0151084Y0253600D01*
X0149761Y0253052D01*
X0148303Y0251595D02*
X0077400Y0251595D01*
X0077400Y0249996D02*
X0146705Y0249996D01*
X0145482Y0248398D02*
X0077400Y0248398D01*
X0077400Y0246799D02*
X0145200Y0246799D01*
X0144560Y0245201D02*
X0077400Y0245201D01*
X0077400Y0243602D02*
X0143882Y0243602D01*
X0143882Y0242003D02*
X0077400Y0242003D01*
X0077400Y0240405D02*
X0143882Y0240405D01*
X0143882Y0238806D02*
X0077400Y0238806D01*
X0077400Y0237208D02*
X0144243Y0237208D01*
X0144657Y0235609D02*
X0077400Y0235609D01*
X0077400Y0234011D02*
X0144657Y0234011D01*
X0143611Y0232412D02*
X0077400Y0232412D01*
X0077400Y0230814D02*
X0142949Y0230814D01*
X0142700Y0229215D02*
X0077400Y0229215D01*
X0077400Y0227617D02*
X0142770Y0227617D01*
X0143432Y0226018D02*
X0077400Y0226018D01*
X0077400Y0224420D02*
X0144753Y0224420D01*
X0148800Y0229000D02*
X0148257Y0229543D01*
X0148257Y0241000D01*
X0148800Y0241543D01*
X0148800Y0247000D01*
X0151800Y0250000D01*
X0186800Y0250000D01*
X0187464Y0249336D01*
X0187464Y0239855D01*
X0191764Y0240405D02*
X0209003Y0240405D01*
X0211134Y0242003D02*
X0191726Y0242003D01*
X0191064Y0243602D02*
X0209635Y0243602D01*
X0209067Y0245201D02*
X0191064Y0245201D01*
X0191064Y0246799D02*
X0209067Y0246799D01*
X0209634Y0248398D02*
X0191064Y0248398D01*
X0191064Y0249996D02*
X0211134Y0249996D01*
X0216600Y0249996D02*
X0217000Y0249996D01*
X0217000Y0250800D02*
X0217000Y0246200D01*
X0224600Y0246200D01*
X0224600Y0246378D01*
X0224482Y0247124D01*
X0224248Y0247843D01*
X0223905Y0248516D01*
X0223461Y0249127D01*
X0222927Y0249661D01*
X0222316Y0250105D01*
X0221643Y0250448D01*
X0220924Y0250682D01*
X0220178Y0250800D01*
X0217000Y0250800D01*
X0217000Y0248398D02*
X0216600Y0248398D01*
X0216600Y0246799D02*
X0217000Y0246799D01*
X0222466Y0249996D02*
X0227000Y0249996D01*
X0227000Y0248398D02*
X0223966Y0248398D01*
X0224533Y0246799D02*
X0227000Y0246799D01*
X0227000Y0245201D02*
X0224533Y0245201D01*
X0223965Y0243602D02*
X0227000Y0243602D01*
X0227000Y0242003D02*
X0222466Y0242003D01*
X0222597Y0240405D02*
X0227000Y0240405D01*
X0227000Y0238806D02*
X0223915Y0238806D01*
X0224578Y0237208D02*
X0227000Y0237208D01*
X0227000Y0235609D02*
X0224600Y0235609D01*
X0224254Y0234011D02*
X0227000Y0234011D01*
X0227000Y0232412D02*
X0223415Y0232412D01*
X0221436Y0230814D02*
X0227000Y0230814D01*
X0227000Y0229215D02*
X0223373Y0229215D01*
X0224322Y0227617D02*
X0227000Y0227617D01*
X0227000Y0226018D02*
X0217000Y0226018D01*
X0216800Y0226000D02*
X0188800Y0226000D01*
X0187800Y0227000D01*
X0187800Y0231964D01*
X0187464Y0232300D01*
X0190764Y0232300D01*
X0187464Y0232300D01*
X0187464Y0232300D01*
X0187464Y0229000D01*
X0187464Y0232300D01*
X0187464Y0232300D01*
X0173698Y0232300D01*
X0171800Y0230402D01*
X0172575Y0230814D02*
X0184164Y0230814D01*
X0184164Y0232300D02*
X0187464Y0232300D01*
X0187464Y0232300D01*
X0184164Y0232300D01*
X0184164Y0232412D02*
X0177149Y0232412D01*
X0177149Y0231176D02*
X0177149Y0233788D01*
X0177027Y0234246D01*
X0176790Y0234656D01*
X0176454Y0234992D01*
X0176044Y0235229D01*
X0175586Y0235351D01*
X0172575Y0235351D01*
X0172575Y0231176D01*
X0177149Y0231176D01*
X0177149Y0229627D02*
X0177149Y0227015D01*
X0177027Y0226557D01*
X0176790Y0226147D01*
X0176454Y0225812D01*
X0176044Y0225575D01*
X0175586Y0225452D01*
X0172575Y0225452D01*
X0172575Y0229627D01*
X0172575Y0231176D01*
X0171025Y0231176D01*
X0171025Y0229627D01*
X0166451Y0229627D01*
X0166451Y0227015D01*
X0166573Y0226557D01*
X0166810Y0226147D01*
X0167146Y0225812D01*
X0167556Y0225575D01*
X0168014Y0225452D01*
X0171025Y0225452D01*
X0171025Y0229627D01*
X0172575Y0229627D01*
X0177149Y0229627D01*
X0177149Y0229215D02*
X0185108Y0229215D01*
X0187464Y0229215D02*
X0187464Y0229215D01*
X0187464Y0230814D02*
X0187464Y0230814D01*
X0189819Y0229215D02*
X0210227Y0229215D01*
X0210164Y0230814D02*
X0190764Y0230814D01*
X0190764Y0232412D02*
X0192528Y0232412D01*
X0191700Y0234011D02*
X0190764Y0234011D01*
X0191700Y0235609D02*
X0189652Y0235609D01*
X0191519Y0237208D02*
X0191700Y0237208D01*
X0191764Y0238806D02*
X0192052Y0238806D01*
X0196000Y0235900D02*
X0196100Y0236000D01*
X0215800Y0236000D01*
X0216600Y0226018D02*
X0176661Y0226018D01*
X0177149Y0227617D02*
X0209278Y0227617D01*
X0209000Y0225800D02*
X0209000Y0225622D01*
X0209118Y0224876D01*
X0209352Y0224157D01*
X0209695Y0223484D01*
X0210139Y0222873D01*
X0210673Y0222339D01*
X0211284Y0221895D01*
X0211957Y0221552D01*
X0212676Y0221318D01*
X0213422Y0221200D01*
X0216600Y0221200D01*
X0216600Y0225800D01*
X0209000Y0225800D01*
X0209266Y0224420D02*
X0152847Y0224420D01*
X0154168Y0226018D02*
X0166939Y0226018D01*
X0166451Y0227617D02*
X0154830Y0227617D01*
X0154900Y0229215D02*
X0166451Y0229215D01*
X0166451Y0231176D02*
X0171025Y0231176D01*
X0171025Y0235351D01*
X0168014Y0235351D01*
X0167556Y0235229D01*
X0167146Y0234992D01*
X0166810Y0234656D01*
X0166573Y0234246D01*
X0166451Y0233788D01*
X0166451Y0231176D01*
X0166451Y0232412D02*
X0153989Y0232412D01*
X0154651Y0230814D02*
X0171025Y0230814D01*
X0171025Y0232412D02*
X0172575Y0232412D01*
X0172575Y0234011D02*
X0171025Y0234011D01*
X0171025Y0229215D02*
X0172575Y0229215D01*
X0172575Y0227617D02*
X0171025Y0227617D01*
X0171025Y0226018D02*
X0172575Y0226018D01*
X0177090Y0234011D02*
X0184164Y0234011D01*
X0185276Y0235609D02*
X0151857Y0235609D01*
X0152416Y0234011D02*
X0166510Y0234011D01*
X0165734Y0237208D02*
X0159357Y0237208D01*
X0155343Y0241000D02*
X0155942Y0241598D01*
X0171800Y0241598D01*
X0178149Y0242003D02*
X0183202Y0242003D01*
X0183164Y0240405D02*
X0178149Y0240405D01*
X0178149Y0238806D02*
X0183164Y0238806D01*
X0183408Y0237208D02*
X0177866Y0237208D01*
X0178149Y0243602D02*
X0183864Y0243602D01*
X0183864Y0245201D02*
X0178149Y0245201D01*
X0188498Y0253193D02*
X0227000Y0253193D01*
X0227000Y0251595D02*
X0190297Y0251595D01*
X0203781Y0265887D02*
X0203544Y0266297D01*
X0203422Y0266755D01*
X0203422Y0271442D01*
X0212672Y0271442D01*
X0212672Y0265192D01*
X0204985Y0265192D01*
X0204527Y0265314D01*
X0204116Y0265551D01*
X0203781Y0265887D01*
X0203727Y0265981D02*
X0074453Y0265981D01*
X0072855Y0267580D02*
X0203422Y0267580D01*
X0203422Y0269178D02*
X0071256Y0269178D01*
X0069658Y0270777D02*
X0203422Y0270777D01*
X0203422Y0273974D02*
X0173714Y0273974D01*
X0174715Y0275572D02*
X0203422Y0275572D01*
X0203422Y0277171D02*
X0174718Y0277171D01*
X0174718Y0278769D02*
X0203954Y0278769D01*
X0203394Y0280368D02*
X0174718Y0280368D01*
X0174491Y0281966D02*
X0202422Y0281966D01*
X0202422Y0289959D02*
X0165400Y0289959D01*
X0165400Y0291557D02*
X0203319Y0291557D01*
X0204116Y0293068D02*
X0204527Y0292831D01*
X0204985Y0292708D01*
X0212672Y0292708D01*
X0212672Y0298958D01*
X0214272Y0298958D01*
X0214272Y0300558D01*
X0223522Y0300558D01*
X0223522Y0305245D01*
X0223399Y0305703D01*
X0223162Y0306113D01*
X0222827Y0306449D01*
X0222416Y0306686D01*
X0221959Y0306808D01*
X0214272Y0306808D01*
X0214272Y0300558D01*
X0212672Y0300558D01*
X0212672Y0306808D01*
X0204985Y0306808D01*
X0204527Y0306686D01*
X0204116Y0306449D01*
X0203781Y0306113D01*
X0203544Y0305703D01*
X0203422Y0305245D01*
X0203422Y0300558D01*
X0212672Y0300558D01*
X0212672Y0298958D01*
X0203422Y0298958D01*
X0203422Y0294271D01*
X0203544Y0293813D01*
X0203781Y0293403D01*
X0204116Y0293068D01*
X0204028Y0293156D02*
X0165400Y0293156D01*
X0165400Y0294754D02*
X0203422Y0294754D01*
X0203422Y0296353D02*
X0165400Y0296353D01*
X0165400Y0297951D02*
X0203422Y0297951D01*
X0203422Y0301148D02*
X0165400Y0301148D01*
X0165400Y0299550D02*
X0212672Y0299550D01*
X0212672Y0301148D02*
X0214272Y0301148D01*
X0214272Y0299550D02*
X0227000Y0299550D01*
X0227000Y0301148D02*
X0223522Y0301148D01*
X0223522Y0302747D02*
X0227000Y0302747D01*
X0227000Y0304345D02*
X0223522Y0304345D01*
X0223260Y0305944D02*
X0227000Y0305944D01*
X0227000Y0307542D02*
X0165058Y0307542D01*
X0165400Y0305944D02*
X0203683Y0305944D01*
X0203422Y0304345D02*
X0165400Y0304345D01*
X0165400Y0302747D02*
X0203422Y0302747D01*
X0212672Y0302747D02*
X0214272Y0302747D01*
X0214272Y0304345D02*
X0212672Y0304345D01*
X0212672Y0305944D02*
X0214272Y0305944D01*
X0214272Y0298958D02*
X0223522Y0298958D01*
X0223522Y0294271D01*
X0223399Y0293813D01*
X0223162Y0293403D01*
X0222827Y0293068D01*
X0222416Y0292831D01*
X0221959Y0292708D01*
X0214272Y0292708D01*
X0214272Y0298958D01*
X0214272Y0297951D02*
X0212672Y0297951D01*
X0212672Y0296353D02*
X0214272Y0296353D01*
X0214272Y0294754D02*
X0212672Y0294754D01*
X0212672Y0293156D02*
X0214272Y0293156D01*
X0213472Y0286000D02*
X0170343Y0286000D01*
X0161800Y0286000D01*
X0161800Y0306000D01*
X0151800Y0306000D01*
X0151800Y0320000D01*
X0151800Y0342672D01*
X0158100Y0341111D02*
X0158508Y0341111D01*
X0158508Y0339513D02*
X0158100Y0339513D01*
X0158100Y0337914D02*
X0158508Y0337914D01*
X0158508Y0336316D02*
X0158100Y0336316D01*
X0158100Y0334717D02*
X0158508Y0334717D01*
X0159066Y0333119D02*
X0157791Y0333119D01*
X0155400Y0331520D02*
X0188644Y0331520D01*
X0188762Y0330703D02*
X0188762Y0330703D01*
X0190984Y0325836D01*
X0194489Y0321792D01*
X0198990Y0318899D01*
X0198990Y0318899D01*
X0204124Y0317391D01*
X0209476Y0317391D01*
X0214610Y0318899D01*
X0219111Y0321792D01*
X0222616Y0325836D01*
X0224838Y0330703D01*
X0225600Y0336000D01*
X0224838Y0341297D01*
X0222616Y0346164D01*
X0219111Y0350208D01*
X0214610Y0353101D01*
X0209476Y0354609D01*
X0204124Y0354609D01*
X0198990Y0353101D01*
X0194489Y0350208D01*
X0194489Y0350208D01*
X0190984Y0346164D01*
X0188762Y0341297D01*
X0188762Y0341297D01*
X0188000Y0336000D01*
X0188000Y0336000D01*
X0188762Y0330703D01*
X0189119Y0329922D02*
X0155400Y0329922D01*
X0155400Y0328323D02*
X0159712Y0328323D01*
X0161600Y0328323D02*
X0162000Y0328323D01*
X0162000Y0328800D02*
X0162000Y0321200D01*
X0166600Y0321200D01*
X0166600Y0324378D01*
X0166482Y0325124D01*
X0166248Y0325843D01*
X0165905Y0326516D01*
X0165461Y0327127D01*
X0164927Y0327661D01*
X0164316Y0328105D01*
X0163643Y0328448D01*
X0162924Y0328682D01*
X0162178Y0328800D01*
X0162000Y0328800D01*
X0163888Y0328323D02*
X0189849Y0328323D01*
X0190579Y0326725D02*
X0165754Y0326725D01*
X0166481Y0325126D02*
X0191600Y0325126D01*
X0190984Y0325836D02*
X0190984Y0325836D01*
X0192985Y0323528D02*
X0166600Y0323528D01*
X0166600Y0321929D02*
X0194370Y0321929D01*
X0194489Y0321792D02*
X0194489Y0321792D01*
X0196763Y0320331D02*
X0166600Y0320331D01*
X0166600Y0320800D02*
X0162000Y0320800D01*
X0162000Y0313200D01*
X0162178Y0313200D01*
X0162924Y0313318D01*
X0163643Y0313552D01*
X0164316Y0313895D01*
X0164927Y0314339D01*
X0165461Y0314873D01*
X0165905Y0315484D01*
X0166248Y0316157D01*
X0166482Y0316876D01*
X0166600Y0317622D01*
X0166600Y0320800D01*
X0166600Y0318732D02*
X0199559Y0318732D01*
X0188414Y0333119D02*
X0172051Y0333119D01*
X0171913Y0332981D02*
X0172249Y0333316D01*
X0172486Y0333727D01*
X0172608Y0334185D01*
X0172608Y0341872D01*
X0166358Y0341872D01*
X0166358Y0332622D01*
X0171045Y0332622D01*
X0171503Y0332744D01*
X0171913Y0332981D01*
X0172608Y0334717D02*
X0188184Y0334717D01*
X0188045Y0336316D02*
X0172608Y0336316D01*
X0172608Y0337914D02*
X0188275Y0337914D01*
X0188505Y0339513D02*
X0172608Y0339513D01*
X0172608Y0341111D02*
X0188735Y0341111D01*
X0189407Y0342710D02*
X0166358Y0342710D01*
X0166358Y0339513D02*
X0164758Y0339513D01*
X0164758Y0337914D02*
X0166358Y0337914D01*
X0166358Y0336316D02*
X0164758Y0336316D01*
X0164758Y0334717D02*
X0166358Y0334717D01*
X0166358Y0333119D02*
X0164758Y0333119D01*
X0162000Y0326725D02*
X0161600Y0326725D01*
X0161600Y0325126D02*
X0162000Y0325126D01*
X0162000Y0323528D02*
X0161600Y0323528D01*
X0161600Y0321929D02*
X0162000Y0321929D01*
X0162000Y0320331D02*
X0161600Y0320331D01*
X0161600Y0318732D02*
X0162000Y0318732D01*
X0162000Y0317134D02*
X0161600Y0317134D01*
X0161600Y0315535D02*
X0162000Y0315535D01*
X0162000Y0313937D02*
X0161600Y0313937D01*
X0159227Y0313937D02*
X0156809Y0313937D01*
X0157471Y0315535D02*
X0157669Y0315535D01*
X0155400Y0312338D02*
X0227000Y0312338D01*
X0227000Y0313937D02*
X0164373Y0313937D01*
X0165931Y0315535D02*
X0227000Y0315535D01*
X0227000Y0317134D02*
X0166523Y0317134D01*
X0163624Y0309141D02*
X0227000Y0309141D01*
X0227000Y0310739D02*
X0155400Y0310739D01*
X0150246Y0302747D02*
X0006600Y0302747D01*
X0006600Y0304345D02*
X0148589Y0304345D01*
X0148200Y0305944D02*
X0006600Y0305944D01*
X0006600Y0307542D02*
X0148200Y0307542D01*
X0148200Y0309141D02*
X0006600Y0309141D01*
X0006600Y0310739D02*
X0148200Y0310739D01*
X0148200Y0312338D02*
X0006600Y0312338D01*
X0006600Y0313937D02*
X0139227Y0313937D01*
X0139284Y0313895D02*
X0139957Y0313552D01*
X0140676Y0313318D01*
X0141422Y0313200D01*
X0141600Y0313200D01*
X0141600Y0320800D01*
X0137000Y0320800D01*
X0137000Y0317622D01*
X0137118Y0316876D01*
X0137352Y0316157D01*
X0137695Y0315484D01*
X0138139Y0314873D01*
X0138673Y0314339D01*
X0139284Y0313895D01*
X0137669Y0315535D02*
X0006600Y0315535D01*
X0006600Y0317134D02*
X0137077Y0317134D01*
X0137000Y0318732D02*
X0034041Y0318732D01*
X0034610Y0318899D02*
X0034610Y0318899D01*
X0039111Y0321792D01*
X0042616Y0325836D01*
X0044838Y0330703D01*
X0045600Y0336000D01*
X0044838Y0341297D01*
X0042616Y0346164D01*
X0039111Y0350208D01*
X0034610Y0353101D01*
X0029476Y0354609D01*
X0024124Y0354609D01*
X0018990Y0353101D01*
X0014489Y0350208D01*
X0014489Y0350208D01*
X0010984Y0346164D01*
X0008762Y0341297D01*
X0008762Y0341297D01*
X0008000Y0336000D01*
X0008000Y0336000D01*
X0008762Y0330703D01*
X0010984Y0325836D01*
X0014489Y0321792D01*
X0018990Y0318899D01*
X0018990Y0318899D01*
X0024124Y0317391D01*
X0029476Y0317391D01*
X0034610Y0318899D01*
X0036837Y0320331D02*
X0137000Y0320331D01*
X0137000Y0321929D02*
X0039230Y0321929D01*
X0039111Y0321792D02*
X0039111Y0321792D01*
X0039111Y0321792D01*
X0040615Y0323528D02*
X0137000Y0323528D01*
X0137119Y0325126D02*
X0042000Y0325126D01*
X0042616Y0325836D02*
X0042616Y0325836D01*
X0043021Y0326725D02*
X0137846Y0326725D01*
X0139712Y0328323D02*
X0043751Y0328323D01*
X0044481Y0329922D02*
X0148200Y0329922D01*
X0148200Y0331520D02*
X0044956Y0331520D01*
X0044838Y0330703D02*
X0044838Y0330703D01*
X0045186Y0333119D02*
X0131549Y0333119D01*
X0131687Y0332981D02*
X0132097Y0332744D01*
X0132555Y0332622D01*
X0137242Y0332622D01*
X0137242Y0341872D01*
X0130992Y0341872D01*
X0130992Y0334185D01*
X0131114Y0333727D01*
X0131351Y0333316D01*
X0131687Y0332981D01*
X0130992Y0334717D02*
X0045416Y0334717D01*
X0045555Y0336316D02*
X0130992Y0336316D01*
X0130992Y0337914D02*
X0045325Y0337914D01*
X0045095Y0339513D02*
X0130992Y0339513D01*
X0130992Y0341111D02*
X0044865Y0341111D01*
X0044838Y0341297D02*
X0044838Y0341297D01*
X0044193Y0342710D02*
X0137242Y0342710D01*
X0137242Y0343472D02*
X0137242Y0341872D01*
X0138842Y0341872D01*
X0138842Y0343472D01*
X0137242Y0343472D01*
X0137242Y0352722D01*
X0132555Y0352722D01*
X0132097Y0352599D01*
X0131687Y0352362D01*
X0131351Y0352027D01*
X0131114Y0351616D01*
X0130992Y0351159D01*
X0130992Y0343472D01*
X0137242Y0343472D01*
X0137242Y0344308D02*
X0138842Y0344308D01*
X0138842Y0343472D02*
X0138842Y0352722D01*
X0143529Y0352722D01*
X0143987Y0352599D01*
X0144397Y0352362D01*
X0144732Y0352027D01*
X0144969Y0351616D01*
X0145092Y0351159D01*
X0145092Y0343472D01*
X0138842Y0343472D01*
X0138842Y0342710D02*
X0145500Y0342710D01*
X0145092Y0341872D02*
X0145092Y0334185D01*
X0144969Y0333727D01*
X0144732Y0333316D01*
X0144397Y0332981D01*
X0143987Y0332744D01*
X0143529Y0332622D01*
X0138842Y0332622D01*
X0138842Y0341872D01*
X0145092Y0341872D01*
X0145092Y0341111D02*
X0145500Y0341111D01*
X0145500Y0339513D02*
X0145092Y0339513D01*
X0145092Y0337914D02*
X0145500Y0337914D01*
X0145500Y0336316D02*
X0145092Y0336316D01*
X0145092Y0334717D02*
X0145500Y0334717D01*
X0145809Y0333119D02*
X0144534Y0333119D01*
X0143888Y0328323D02*
X0148200Y0328323D01*
X0147322Y0326725D02*
X0145754Y0326725D01*
X0142000Y0326725D02*
X0141600Y0326725D01*
X0141600Y0328323D02*
X0142000Y0328323D01*
X0142000Y0325126D02*
X0141600Y0325126D01*
X0141600Y0323528D02*
X0142000Y0323528D01*
X0142000Y0321929D02*
X0141600Y0321929D01*
X0141600Y0320331D02*
X0142000Y0320331D01*
X0142000Y0318732D02*
X0141600Y0318732D01*
X0141600Y0317134D02*
X0142000Y0317134D01*
X0142000Y0315535D02*
X0141600Y0315535D01*
X0141600Y0313937D02*
X0142000Y0313937D01*
X0144373Y0313937D02*
X0146791Y0313937D01*
X0146129Y0315535D02*
X0145931Y0315535D01*
X0156278Y0326725D02*
X0157846Y0326725D01*
X0145500Y0344308D02*
X0145092Y0344308D01*
X0145092Y0345907D02*
X0145500Y0345907D01*
X0145500Y0347505D02*
X0145092Y0347505D01*
X0145092Y0349104D02*
X0145500Y0349104D01*
X0145500Y0350702D02*
X0145092Y0350702D01*
X0144458Y0352301D02*
X0145841Y0352301D01*
X0138842Y0352301D02*
X0137242Y0352301D01*
X0137242Y0350702D02*
X0138842Y0350702D01*
X0138842Y0349104D02*
X0137242Y0349104D01*
X0137242Y0347505D02*
X0138842Y0347505D01*
X0138842Y0345907D02*
X0137242Y0345907D01*
X0137242Y0341111D02*
X0138842Y0341111D01*
X0138842Y0339513D02*
X0137242Y0339513D01*
X0137242Y0337914D02*
X0138842Y0337914D01*
X0138842Y0336316D02*
X0137242Y0336316D01*
X0137242Y0334717D02*
X0138842Y0334717D01*
X0138842Y0333119D02*
X0137242Y0333119D01*
X0130992Y0344308D02*
X0043463Y0344308D01*
X0042733Y0345907D02*
X0130992Y0345907D01*
X0130992Y0347505D02*
X0041453Y0347505D01*
X0042616Y0346164D02*
X0042616Y0346164D01*
X0040068Y0349104D02*
X0130992Y0349104D01*
X0130992Y0350702D02*
X0038342Y0350702D01*
X0039111Y0350208D02*
X0039111Y0350208D01*
X0035855Y0352301D02*
X0131625Y0352301D01*
X0158200Y0301148D02*
X0006600Y0301148D01*
X0006600Y0299550D02*
X0022635Y0299550D01*
X0022573Y0299443D02*
X0022451Y0298985D01*
X0022451Y0296373D01*
X0027025Y0296373D01*
X0027025Y0300548D01*
X0024014Y0300548D01*
X0023556Y0300425D01*
X0023146Y0300188D01*
X0022810Y0299853D01*
X0022573Y0299443D01*
X0022451Y0297951D02*
X0006600Y0297951D01*
X0006600Y0296353D02*
X0027025Y0296353D01*
X0028575Y0296353D02*
X0133882Y0296353D01*
X0133882Y0295000D02*
X0137257Y0295000D01*
X0137257Y0295000D01*
X0137257Y0296353D02*
X0137257Y0296353D01*
X0137257Y0297951D02*
X0137257Y0297951D01*
X0133976Y0297951D02*
X0033149Y0297951D01*
X0032965Y0299550D02*
X0140996Y0299550D01*
X0147690Y0299550D02*
X0158200Y0299550D01*
X0158200Y0297951D02*
X0154559Y0297951D01*
X0157074Y0296353D02*
X0158200Y0296353D01*
X0170343Y0286000D02*
X0170343Y0278500D01*
X0166973Y0273974D02*
X0166627Y0273974D01*
X0159886Y0273974D02*
X0066461Y0273974D01*
X0064862Y0275572D02*
X0140188Y0275572D01*
X0139126Y0277171D02*
X0063264Y0277171D01*
X0061665Y0278769D02*
X0139079Y0278769D01*
X0135457Y0280368D02*
X0060067Y0280368D01*
X0058468Y0281966D02*
X0133207Y0281966D01*
X0132206Y0283565D02*
X0056870Y0283565D01*
X0055271Y0285163D02*
X0131700Y0285163D01*
X0131700Y0286762D02*
X0054718Y0286762D01*
X0054535Y0288360D02*
X0132175Y0288360D01*
X0133132Y0289959D02*
X0052966Y0289959D01*
X0050343Y0285000D02*
X0073800Y0261543D01*
X0073800Y0188000D01*
X0073800Y0174000D01*
X0073843Y0174043D01*
X0079745Y0174043D01*
X0101257Y0152530D01*
X0101257Y0149000D01*
X0101800Y0148457D01*
X0101800Y0147000D01*
X0105501Y0143299D01*
X0105501Y0136835D01*
X0108650Y0136835D02*
X0108650Y0130150D01*
X0118800Y0120000D01*
X0119640Y0131082D02*
X0116558Y0131082D01*
X0116524Y0131096D01*
X0116491Y0131082D01*
X0113408Y0131082D01*
X0113375Y0131096D01*
X0113341Y0131082D01*
X0110259Y0131082D01*
X0109230Y0131508D01*
X0108656Y0132082D01*
X0108650Y0132082D01*
X0108650Y0132087D01*
X0108650Y0132087D01*
X0108650Y0132082D01*
X0108645Y0132082D01*
X0108071Y0131508D01*
X0107042Y0131082D01*
X0103960Y0131082D01*
X0103926Y0131096D01*
X0103892Y0131082D01*
X0100810Y0131082D01*
X0100776Y0131096D01*
X0100743Y0131082D01*
X0097660Y0131082D01*
X0097627Y0131096D01*
X0097593Y0131082D01*
X0094718Y0131082D01*
X0094718Y0128207D01*
X0094704Y0128173D01*
X0094718Y0128140D01*
X0094718Y0125057D01*
X0094704Y0125024D01*
X0094718Y0124990D01*
X0094718Y0121908D01*
X0094704Y0121874D01*
X0094718Y0121840D01*
X0094718Y0118758D01*
X0094704Y0118724D01*
X0094718Y0118691D01*
X0094718Y0115608D01*
X0094704Y0115575D01*
X0094718Y0115541D01*
X0094718Y0112459D01*
X0094704Y0112425D01*
X0094718Y0112392D01*
X0094718Y0109309D01*
X0094292Y0108280D01*
X0093718Y0107706D01*
X0093718Y0107701D01*
X0093713Y0107701D01*
X0093713Y0107701D01*
X0093713Y0107701D01*
X0093718Y0107701D01*
X0093718Y0107695D01*
X0094292Y0107121D01*
X0094718Y0106092D01*
X0094718Y0103010D01*
X0094704Y0102976D01*
X0094718Y0102943D01*
X0094718Y0099860D01*
X0094704Y0099827D01*
X0094718Y0099793D01*
X0094718Y0096918D01*
X0097593Y0096918D01*
X0097627Y0096904D01*
X0097660Y0096918D01*
X0100743Y0096918D01*
X0100776Y0096904D01*
X0100810Y0096918D01*
X0103892Y0096918D01*
X0103926Y0096904D01*
X0103960Y0096918D01*
X0107042Y0096918D01*
X0108071Y0096492D01*
X0108645Y0095918D01*
X0108650Y0095918D01*
X0108650Y0095913D01*
X0108650Y0095913D01*
X0108650Y0095913D01*
X0108650Y0095918D01*
X0108656Y0095918D01*
X0109230Y0096492D01*
X0110259Y0096918D01*
X0113341Y0096918D01*
X0113375Y0096904D01*
X0113408Y0096918D01*
X0116491Y0096918D01*
X0116524Y0096904D01*
X0116558Y0096918D01*
X0119640Y0096918D01*
X0119674Y0096904D01*
X0119708Y0096918D01*
X0122790Y0096918D01*
X0122824Y0096904D01*
X0122857Y0096918D01*
X0125940Y0096918D01*
X0125973Y0096904D01*
X0126007Y0096918D01*
X0128882Y0096918D01*
X0128882Y0099793D01*
X0128896Y0099827D01*
X0128882Y0099860D01*
X0128882Y0102943D01*
X0128896Y0102976D01*
X0128882Y0103010D01*
X0128882Y0106092D01*
X0128896Y0106126D01*
X0128882Y0106160D01*
X0128882Y0109242D01*
X0128896Y0109276D01*
X0128882Y0109309D01*
X0128882Y0112392D01*
X0128896Y0112425D01*
X0128882Y0112459D01*
X0128882Y0115541D01*
X0128896Y0115575D01*
X0128882Y0115608D01*
X0128882Y0118691D01*
X0129308Y0119720D01*
X0129882Y0120294D01*
X0129882Y0120299D01*
X0129887Y0120299D01*
X0129887Y0120299D01*
X0129887Y0120299D01*
X0129882Y0120299D01*
X0129882Y0120305D01*
X0129308Y0120878D01*
X0128882Y0121908D01*
X0128882Y0124990D01*
X0128896Y0125024D01*
X0128882Y0125057D01*
X0128882Y0128140D01*
X0128896Y0128173D01*
X0128882Y0128207D01*
X0128882Y0131082D01*
X0126007Y0131082D01*
X0125973Y0131096D01*
X0125940Y0131082D01*
X0122857Y0131082D01*
X0122824Y0131096D01*
X0122790Y0131082D01*
X0119708Y0131082D01*
X0119674Y0131096D01*
X0119640Y0131082D01*
X0124398Y0136835D02*
X0124398Y0143598D01*
X0126800Y0146000D01*
X0127713Y0139000D02*
X0127548Y0136835D01*
X0127713Y0139000D02*
X0133800Y0139000D01*
X0128882Y0130108D02*
X0094718Y0130108D01*
X0094718Y0128509D02*
X0128882Y0128509D01*
X0128882Y0126911D02*
X0094718Y0126911D01*
X0094718Y0125312D02*
X0128882Y0125312D01*
X0128882Y0123714D02*
X0094718Y0123714D01*
X0094718Y0122115D02*
X0128882Y0122115D01*
X0129670Y0120517D02*
X0094718Y0120517D01*
X0094718Y0118918D02*
X0128976Y0118918D01*
X0128882Y0117320D02*
X0094718Y0117320D01*
X0094718Y0115721D02*
X0128882Y0115721D01*
X0128882Y0114123D02*
X0094718Y0114123D01*
X0094718Y0112524D02*
X0128882Y0112524D01*
X0128882Y0110926D02*
X0094718Y0110926D01*
X0094718Y0109327D02*
X0128882Y0109327D01*
X0128882Y0107729D02*
X0093740Y0107729D01*
X0094703Y0106130D02*
X0128894Y0106130D01*
X0128882Y0104532D02*
X0094718Y0104532D01*
X0094718Y0102933D02*
X0128882Y0102933D01*
X0128882Y0101334D02*
X0094718Y0101334D01*
X0094718Y0099736D02*
X0128882Y0099736D01*
X0128882Y0098137D02*
X0094718Y0098137D01*
X0096800Y0099000D02*
X0096800Y0106000D01*
X0096800Y0099000D02*
X0090800Y0093000D01*
X0037800Y0093000D01*
X0031800Y0099000D01*
X0031800Y0106000D01*
X0031600Y0106130D02*
X0025400Y0106130D01*
X0025400Y0104532D02*
X0027000Y0104532D01*
X0027000Y0104012D02*
X0029812Y0101200D01*
X0031600Y0101200D01*
X0031600Y0105800D01*
X0032000Y0105800D01*
X0032000Y0101200D01*
X0033788Y0101200D01*
X0036093Y0103505D01*
X0039398Y0100200D01*
X0044202Y0100200D01*
X0047600Y0103598D01*
X0047600Y0106109D01*
X0053748Y0099961D01*
X0054761Y0098948D01*
X0056084Y0098400D01*
X0073021Y0098400D01*
X0073064Y0098296D01*
X0073852Y0097508D01*
X0074881Y0097082D01*
X0080719Y0097082D01*
X0081748Y0097508D01*
X0082536Y0098296D01*
X0082962Y0099325D01*
X0082962Y0100951D01*
X0083213Y0100951D01*
X0083213Y0099860D01*
X0083227Y0099827D01*
X0083213Y0099793D01*
X0083213Y0096711D01*
X0083639Y0095682D01*
X0084427Y0094894D01*
X0085456Y0094468D01*
X0092268Y0094468D01*
X0092268Y0092600D01*
X0030291Y0092600D01*
X0025400Y0097491D01*
X0025400Y0116509D01*
X0029244Y0120353D01*
X0029305Y0120293D01*
X0027000Y0117988D01*
X0027000Y0116200D01*
X0031600Y0116200D01*
X0031600Y0115800D01*
X0032000Y0115800D01*
X0032000Y0111200D01*
X0033788Y0111200D01*
X0036093Y0113505D01*
X0038598Y0111000D01*
X0036093Y0108495D01*
X0033788Y0110800D01*
X0032000Y0110800D01*
X0032000Y0106200D01*
X0031600Y0106200D01*
X0031600Y0110800D01*
X0029812Y0110800D01*
X0027000Y0107988D01*
X0027000Y0106200D01*
X0031600Y0106200D01*
X0031600Y0105800D01*
X0027000Y0105800D01*
X0027000Y0104012D01*
X0028079Y0102933D02*
X0025400Y0102933D01*
X0025400Y0101334D02*
X0029677Y0101334D01*
X0031600Y0101334D02*
X0032000Y0101334D01*
X0032000Y0102933D02*
X0031600Y0102933D01*
X0031600Y0104532D02*
X0032000Y0104532D01*
X0032000Y0107729D02*
X0031600Y0107729D01*
X0031600Y0109327D02*
X0032000Y0109327D01*
X0031600Y0111200D02*
X0031600Y0115800D01*
X0027000Y0115800D01*
X0027000Y0114012D01*
X0029812Y0111200D01*
X0031600Y0111200D01*
X0031600Y0112524D02*
X0032000Y0112524D01*
X0032000Y0114123D02*
X0031600Y0114123D01*
X0031600Y0115721D02*
X0032000Y0115721D01*
X0035112Y0112524D02*
X0037073Y0112524D01*
X0038523Y0110926D02*
X0025400Y0110926D01*
X0025400Y0112524D02*
X0028488Y0112524D01*
X0027000Y0114123D02*
X0025400Y0114123D01*
X0025400Y0115721D02*
X0027000Y0115721D01*
X0027000Y0117320D02*
X0026211Y0117320D01*
X0027809Y0118918D02*
X0027930Y0118918D01*
X0021800Y0118000D02*
X0029800Y0126000D01*
X0031800Y0126000D01*
X0036800Y0121000D02*
X0041800Y0116000D01*
X0042800Y0116000D01*
X0056800Y0102000D01*
X0077257Y0102000D01*
X0077800Y0101457D01*
X0080894Y0104551D01*
X0088965Y0104551D01*
X0083213Y0099736D02*
X0082962Y0099736D01*
X0083213Y0098137D02*
X0082378Y0098137D01*
X0083284Y0096539D02*
X0026352Y0096539D01*
X0025400Y0098137D02*
X0073222Y0098137D01*
X0073843Y0106130D02*
X0057761Y0106130D01*
X0056163Y0107729D02*
X0073638Y0107729D01*
X0073638Y0109327D02*
X0054564Y0109327D01*
X0050776Y0102933D02*
X0046935Y0102933D01*
X0047600Y0104532D02*
X0049177Y0104532D01*
X0052374Y0101334D02*
X0045337Y0101334D01*
X0038263Y0101334D02*
X0033923Y0101334D01*
X0035521Y0102933D02*
X0036665Y0102933D01*
X0036925Y0109327D02*
X0035261Y0109327D01*
X0028339Y0109327D02*
X0025400Y0109327D01*
X0025400Y0107729D02*
X0027000Y0107729D01*
X0025400Y0099736D02*
X0053973Y0099736D01*
X0063800Y0079000D02*
X0021800Y0079000D01*
X0011800Y0089000D01*
X0011800Y0130000D01*
X0022800Y0141000D01*
X0036800Y0141000D01*
X0036800Y0166000D01*
X0041800Y0166000D01*
X0036800Y0166000D02*
X0036800Y0181000D01*
X0031800Y0186000D01*
X0028337Y0181260D02*
X0006600Y0181260D01*
X0006600Y0179662D02*
X0027259Y0179662D01*
X0026000Y0178063D02*
X0006600Y0178063D01*
X0006600Y0176465D02*
X0026000Y0176465D01*
X0026000Y0174866D02*
X0006600Y0174866D01*
X0006600Y0173268D02*
X0026330Y0173268D01*
X0027929Y0171669D02*
X0006600Y0171669D01*
X0006600Y0170070D02*
X0027668Y0170070D01*
X0026070Y0168472D02*
X0006600Y0168472D01*
X0006600Y0166873D02*
X0026000Y0166873D01*
X0026000Y0165275D02*
X0006600Y0165275D01*
X0006600Y0163676D02*
X0026000Y0163676D01*
X0027520Y0162078D02*
X0006600Y0162078D01*
X0006600Y0160479D02*
X0028077Y0160479D01*
X0026478Y0158881D02*
X0006600Y0158881D01*
X0006600Y0157282D02*
X0026000Y0157282D01*
X0026000Y0155684D02*
X0006600Y0155684D01*
X0006600Y0154085D02*
X0026000Y0154085D01*
X0027111Y0152487D02*
X0006600Y0152487D01*
X0006600Y0150888D02*
X0028486Y0150888D01*
X0026887Y0149290D02*
X0006600Y0149290D01*
X0006600Y0147691D02*
X0026000Y0147691D01*
X0026000Y0146093D02*
X0006600Y0146093D01*
X0006600Y0144494D02*
X0021829Y0144494D01*
X0019605Y0142896D02*
X0006600Y0142896D01*
X0006600Y0141297D02*
X0018006Y0141297D01*
X0016408Y0139699D02*
X0006600Y0139699D01*
X0006600Y0138100D02*
X0014809Y0138100D01*
X0013211Y0136502D02*
X0006600Y0136502D01*
X0006600Y0134903D02*
X0011612Y0134903D01*
X0010014Y0133305D02*
X0006600Y0133305D01*
X0006600Y0131706D02*
X0008610Y0131706D01*
X0008200Y0130108D02*
X0006600Y0130108D01*
X0006600Y0128509D02*
X0008200Y0128509D01*
X0008200Y0126911D02*
X0006600Y0126911D01*
X0006600Y0125312D02*
X0008200Y0125312D01*
X0008200Y0123714D02*
X0006600Y0123714D01*
X0006600Y0122115D02*
X0008200Y0122115D01*
X0008200Y0120517D02*
X0006600Y0120517D01*
X0006600Y0118918D02*
X0008200Y0118918D01*
X0008200Y0117320D02*
X0006600Y0117320D01*
X0006600Y0115721D02*
X0008200Y0115721D01*
X0008200Y0114123D02*
X0006600Y0114123D01*
X0006600Y0112524D02*
X0008200Y0112524D01*
X0008200Y0110926D02*
X0006600Y0110926D01*
X0006600Y0109327D02*
X0008200Y0109327D01*
X0008200Y0107729D02*
X0006600Y0107729D01*
X0006600Y0106130D02*
X0008200Y0106130D01*
X0008200Y0104532D02*
X0006600Y0104532D01*
X0006600Y0102933D02*
X0008200Y0102933D01*
X0008200Y0101334D02*
X0006600Y0101334D01*
X0006600Y0099736D02*
X0008200Y0099736D01*
X0008200Y0098137D02*
X0006600Y0098137D01*
X0006600Y0096539D02*
X0008200Y0096539D01*
X0008200Y0094940D02*
X0006600Y0094940D01*
X0006600Y0093342D02*
X0008200Y0093342D01*
X0008200Y0091743D02*
X0006600Y0091743D01*
X0006600Y0090145D02*
X0008200Y0090145D01*
X0008200Y0088546D02*
X0006600Y0088546D01*
X0006600Y0086948D02*
X0008761Y0086948D01*
X0010359Y0085349D02*
X0006600Y0085349D01*
X0006600Y0083751D02*
X0011958Y0083751D01*
X0013556Y0082152D02*
X0006600Y0082152D01*
X0006600Y0080554D02*
X0015155Y0080554D01*
X0016753Y0078955D02*
X0006600Y0078955D01*
X0006600Y0077357D02*
X0018352Y0077357D01*
X0020219Y0075758D02*
X0006600Y0075758D01*
X0006600Y0074160D02*
X0022596Y0074160D01*
X0024124Y0074609D02*
X0018990Y0073101D01*
X0014489Y0070208D01*
X0010984Y0066164D01*
X0008762Y0061297D01*
X0008000Y0056000D01*
X0008762Y0050703D01*
X0010984Y0045836D01*
X0014489Y0041792D01*
X0018990Y0038899D01*
X0018990Y0038899D01*
X0024124Y0037391D01*
X0029476Y0037391D01*
X0034610Y0038899D01*
X0039111Y0041792D01*
X0042616Y0045836D01*
X0044838Y0050703D01*
X0045600Y0056000D01*
X0044838Y0061297D01*
X0042616Y0066164D01*
X0039111Y0070208D01*
X0034610Y0073101D01*
X0029476Y0074609D01*
X0024124Y0074609D01*
X0018990Y0073101D02*
X0018990Y0073101D01*
X0018150Y0072561D02*
X0006600Y0072561D01*
X0006600Y0070963D02*
X0015663Y0070963D01*
X0014489Y0070208D02*
X0014489Y0070208D01*
X0013757Y0069364D02*
X0006600Y0069364D01*
X0006600Y0067766D02*
X0012372Y0067766D01*
X0010987Y0066167D02*
X0006600Y0066167D01*
X0006600Y0064569D02*
X0010256Y0064569D01*
X0009526Y0062970D02*
X0006600Y0062970D01*
X0006600Y0061372D02*
X0008796Y0061372D01*
X0008543Y0059773D02*
X0006600Y0059773D01*
X0006600Y0058175D02*
X0008313Y0058175D01*
X0008083Y0056576D02*
X0006600Y0056576D01*
X0008000Y0056000D02*
X0008000Y0056000D01*
X0008147Y0054978D02*
X0006600Y0054978D01*
X0006600Y0053379D02*
X0008377Y0053379D01*
X0008607Y0051781D02*
X0006600Y0051781D01*
X0006600Y0050182D02*
X0009000Y0050182D01*
X0008762Y0050703D02*
X0008762Y0050703D01*
X0009730Y0048584D02*
X0006600Y0048584D01*
X0006600Y0046985D02*
X0010460Y0046985D01*
X0010984Y0045836D02*
X0010984Y0045836D01*
X0011374Y0045387D02*
X0006600Y0045387D01*
X0006600Y0043788D02*
X0012759Y0043788D01*
X0014144Y0042190D02*
X0006600Y0042190D01*
X0006600Y0040591D02*
X0016357Y0040591D01*
X0014489Y0041792D02*
X0014489Y0041792D01*
X0018844Y0038993D02*
X0006600Y0038993D01*
X0006600Y0037394D02*
X0024115Y0037394D01*
X0029485Y0037394D02*
X0204115Y0037394D01*
X0204124Y0037391D02*
X0209476Y0037391D01*
X0214610Y0038899D01*
X0219111Y0041792D01*
X0222616Y0045836D01*
X0224838Y0050703D01*
X0224838Y0050703D01*
X0225600Y0056000D01*
X0224838Y0061297D01*
X0222616Y0066164D01*
X0219111Y0070208D01*
X0214610Y0073101D01*
X0209476Y0074609D01*
X0204124Y0074609D01*
X0198990Y0073101D01*
X0194489Y0070208D01*
X0194489Y0070208D01*
X0190984Y0066164D01*
X0188762Y0061297D01*
X0188762Y0061297D01*
X0188000Y0056000D01*
X0188000Y0056000D01*
X0188762Y0050703D01*
X0190984Y0045836D01*
X0194489Y0041792D01*
X0198990Y0038899D01*
X0198990Y0038899D01*
X0204124Y0037391D01*
X0209485Y0037394D02*
X0227000Y0037394D01*
X0227000Y0035800D02*
X0006600Y0035800D01*
X0006600Y0356200D01*
X0227000Y0356200D01*
X0227000Y0035800D01*
X0227000Y0038993D02*
X0214755Y0038993D01*
X0217243Y0040591D02*
X0227000Y0040591D01*
X0227000Y0042190D02*
X0219456Y0042190D01*
X0219111Y0041792D02*
X0219111Y0041792D01*
X0220841Y0043788D02*
X0227000Y0043788D01*
X0227000Y0045387D02*
X0222226Y0045387D01*
X0223140Y0046985D02*
X0227000Y0046985D01*
X0227000Y0048584D02*
X0223870Y0048584D01*
X0224600Y0050182D02*
X0227000Y0050182D01*
X0227000Y0051781D02*
X0224993Y0051781D01*
X0225223Y0053379D02*
X0227000Y0053379D01*
X0227000Y0054978D02*
X0225453Y0054978D01*
X0225517Y0056576D02*
X0227000Y0056576D01*
X0227000Y0058175D02*
X0225287Y0058175D01*
X0225057Y0059773D02*
X0227000Y0059773D01*
X0227000Y0061372D02*
X0224804Y0061372D01*
X0224838Y0061297D02*
X0224838Y0061297D01*
X0224074Y0062970D02*
X0227000Y0062970D01*
X0227000Y0064569D02*
X0223344Y0064569D01*
X0222616Y0066164D02*
X0222616Y0066164D01*
X0222613Y0066167D02*
X0227000Y0066167D01*
X0227000Y0067766D02*
X0221228Y0067766D01*
X0219843Y0069364D02*
X0227000Y0069364D01*
X0227000Y0070963D02*
X0217937Y0070963D01*
X0219111Y0070208D02*
X0219111Y0070208D01*
X0215450Y0072561D02*
X0227000Y0072561D01*
X0227000Y0074160D02*
X0211004Y0074160D01*
X0214610Y0073101D02*
X0214610Y0073101D01*
X0202596Y0074160D02*
X0182263Y0074160D01*
X0182263Y0075758D02*
X0227000Y0075758D01*
X0227000Y0077357D02*
X0182263Y0077357D01*
X0182263Y0078955D02*
X0227000Y0078955D01*
X0227000Y0080554D02*
X0182263Y0080554D01*
X0182263Y0082152D02*
X0227000Y0082152D01*
X0227000Y0083751D02*
X0182263Y0083751D01*
X0182263Y0085349D02*
X0227000Y0085349D01*
X0227000Y0086948D02*
X0182263Y0086948D01*
X0182263Y0088546D02*
X0227000Y0088546D01*
X0227000Y0090145D02*
X0182263Y0090145D01*
X0182263Y0090492D02*
X0184801Y0091958D01*
X0186905Y0094062D01*
X0188393Y0096638D01*
X0189163Y0099512D01*
X0189163Y0102488D01*
X0188393Y0105362D01*
X0186905Y0107938D01*
X0184801Y0110042D01*
X0182225Y0111530D01*
X0179351Y0112300D01*
X0176375Y0112300D01*
X0173501Y0111530D01*
X0170925Y0110042D01*
X0168821Y0107938D01*
X0167333Y0105362D01*
X0166563Y0102488D01*
X0166563Y0099512D01*
X0167333Y0096638D01*
X0168821Y0094062D01*
X0170925Y0091958D01*
X0173463Y0090492D01*
X0173463Y0065125D01*
X0173543Y0064931D01*
X0173543Y0061900D01*
X0173970Y0060871D01*
X0174757Y0060083D01*
X0175786Y0059657D01*
X0180837Y0059657D01*
X0181866Y0060083D01*
X0182654Y0060871D01*
X0183080Y0061900D01*
X0183080Y0070100D01*
X0182654Y0071129D01*
X0182263Y0071520D01*
X0182263Y0090492D01*
X0184430Y0091743D02*
X0196967Y0091743D01*
X0196495Y0091971D02*
X0197537Y0091469D01*
X0198629Y0091087D01*
X0199757Y0090830D01*
X0200685Y0090725D01*
X0200685Y0100200D01*
X0191210Y0100200D01*
X0191315Y0099272D01*
X0191572Y0098144D01*
X0191954Y0097052D01*
X0192456Y0096010D01*
X0193072Y0095030D01*
X0193793Y0094126D01*
X0194611Y0093308D01*
X0195515Y0092586D01*
X0196495Y0091971D01*
X0194577Y0093342D02*
X0186186Y0093342D01*
X0187413Y0094940D02*
X0193143Y0094940D01*
X0192201Y0096539D02*
X0188336Y0096539D01*
X0188795Y0098137D02*
X0191574Y0098137D01*
X0191262Y0099736D02*
X0189163Y0099736D01*
X0189163Y0101334D02*
X0200685Y0101334D01*
X0200685Y0101800D02*
X0200685Y0100200D01*
X0202285Y0100200D01*
X0202285Y0090725D01*
X0203213Y0090830D01*
X0204341Y0091087D01*
X0205433Y0091469D01*
X0206475Y0091971D01*
X0207455Y0092586D01*
X0208359Y0093308D01*
X0209177Y0094126D01*
X0209899Y0095030D01*
X0210514Y0096010D01*
X0211016Y0097052D01*
X0211398Y0098144D01*
X0211655Y0099272D01*
X0211760Y0100200D01*
X0202285Y0100200D01*
X0202285Y0101800D01*
X0200685Y0101800D01*
X0191210Y0101800D01*
X0191315Y0102728D01*
X0191572Y0103856D01*
X0191954Y0104948D01*
X0192456Y0105990D01*
X0193072Y0106970D01*
X0193793Y0107874D01*
X0194611Y0108692D01*
X0195515Y0109414D01*
X0196495Y0110029D01*
X0197537Y0110531D01*
X0198629Y0110913D01*
X0199757Y0111170D01*
X0200685Y0111275D01*
X0200685Y0101800D01*
X0200685Y0102933D02*
X0202285Y0102933D01*
X0202285Y0101800D02*
X0202285Y0111275D01*
X0203213Y0111170D01*
X0204341Y0110913D01*
X0205433Y0110531D01*
X0206475Y0110029D01*
X0207455Y0109414D01*
X0208359Y0108692D01*
X0209177Y0107874D01*
X0209899Y0106970D01*
X0210514Y0105990D01*
X0211016Y0104948D01*
X0211398Y0103856D01*
X0211655Y0102728D01*
X0211760Y0101800D01*
X0202285Y0101800D01*
X0202285Y0101334D02*
X0227000Y0101334D01*
X0227000Y0099736D02*
X0211708Y0099736D01*
X0211396Y0098137D02*
X0227000Y0098137D01*
X0227000Y0096539D02*
X0210769Y0096539D01*
X0209827Y0094940D02*
X0227000Y0094940D01*
X0227000Y0093342D02*
X0208393Y0093342D01*
X0206003Y0091743D02*
X0227000Y0091743D01*
X0227000Y0102933D02*
X0211609Y0102933D01*
X0211162Y0104532D02*
X0227000Y0104532D01*
X0227000Y0106130D02*
X0210426Y0106130D01*
X0209293Y0107729D02*
X0227000Y0107729D01*
X0227000Y0109327D02*
X0207563Y0109327D01*
X0204286Y0110926D02*
X0227000Y0110926D01*
X0227000Y0112524D02*
X0197261Y0112524D01*
X0197366Y0112630D02*
X0198088Y0113534D01*
X0198703Y0114514D01*
X0199205Y0115556D01*
X0199587Y0116648D01*
X0199844Y0117776D01*
X0199949Y0118704D01*
X0190474Y0118704D01*
X0190474Y0120304D01*
X0188874Y0120304D01*
X0188874Y0129779D01*
X0187946Y0129674D01*
X0186818Y0129417D01*
X0185726Y0129035D01*
X0184684Y0128533D01*
X0183704Y0127917D01*
X0182800Y0127196D01*
X0181982Y0126378D01*
X0181260Y0125474D01*
X0180645Y0124494D01*
X0180143Y0123452D01*
X0179761Y0122360D01*
X0179504Y0121232D01*
X0179399Y0120304D01*
X0188874Y0120304D01*
X0188874Y0118704D01*
X0179399Y0118704D01*
X0179504Y0117776D01*
X0179761Y0116648D01*
X0180143Y0115556D01*
X0180645Y0114514D01*
X0181260Y0113534D01*
X0181982Y0112630D01*
X0182800Y0111812D01*
X0183704Y0111090D01*
X0184684Y0110475D01*
X0185726Y0109973D01*
X0186818Y0109591D01*
X0187946Y0109333D01*
X0188874Y0109229D01*
X0188874Y0118704D01*
X0190474Y0118704D01*
X0190474Y0109229D01*
X0191402Y0109333D01*
X0192530Y0109591D01*
X0193622Y0109973D01*
X0194664Y0110475D01*
X0195644Y0111090D01*
X0196548Y0111812D01*
X0197366Y0112630D01*
X0198457Y0114123D02*
X0227000Y0114123D01*
X0227000Y0115721D02*
X0199263Y0115721D01*
X0199740Y0117320D02*
X0227000Y0117320D01*
X0227000Y0118918D02*
X0190474Y0118918D01*
X0189674Y0119504D02*
X0191800Y0119504D01*
X0190474Y0120304D02*
X0199949Y0120304D01*
X0199844Y0121232D01*
X0199587Y0122360D01*
X0199205Y0123452D01*
X0198703Y0124494D01*
X0198088Y0125474D01*
X0197366Y0126378D01*
X0196548Y0127196D01*
X0195644Y0127917D01*
X0194664Y0128533D01*
X0193622Y0129035D01*
X0192530Y0129417D01*
X0191402Y0129674D01*
X0190474Y0129779D01*
X0190474Y0120304D01*
X0190474Y0120517D02*
X0188874Y0120517D01*
X0188874Y0122115D02*
X0190474Y0122115D01*
X0190474Y0123714D02*
X0188874Y0123714D01*
X0188874Y0125312D02*
X0190474Y0125312D01*
X0190474Y0126911D02*
X0188874Y0126911D01*
X0188874Y0128509D02*
X0190474Y0128509D01*
X0194702Y0128509D02*
X0227000Y0128509D01*
X0227000Y0126911D02*
X0196834Y0126911D01*
X0198189Y0125312D02*
X0227000Y0125312D01*
X0227000Y0123714D02*
X0199079Y0123714D01*
X0199643Y0122115D02*
X0227000Y0122115D01*
X0227000Y0120517D02*
X0199925Y0120517D01*
X0200685Y0110926D02*
X0202285Y0110926D01*
X0202285Y0109327D02*
X0200685Y0109327D01*
X0200685Y0107729D02*
X0202285Y0107729D01*
X0202285Y0106130D02*
X0200685Y0106130D01*
X0200685Y0104532D02*
X0202285Y0104532D01*
X0202285Y0099736D02*
X0200685Y0099736D01*
X0200685Y0098137D02*
X0202285Y0098137D01*
X0202285Y0096539D02*
X0200685Y0096539D01*
X0200685Y0094940D02*
X0202285Y0094940D01*
X0202285Y0093342D02*
X0200685Y0093342D01*
X0200685Y0091743D02*
X0202285Y0091743D01*
X0191808Y0104532D02*
X0188615Y0104532D01*
X0189044Y0102933D02*
X0191361Y0102933D01*
X0192544Y0106130D02*
X0187949Y0106130D01*
X0187026Y0107729D02*
X0193677Y0107729D01*
X0195407Y0109327D02*
X0191345Y0109327D01*
X0190474Y0109327D02*
X0188874Y0109327D01*
X0188003Y0109327D02*
X0185517Y0109327D01*
X0183967Y0110926D02*
X0183271Y0110926D01*
X0182087Y0112524D02*
X0166200Y0112524D01*
X0166200Y0110926D02*
X0172455Y0110926D01*
X0170209Y0109327D02*
X0166200Y0109327D01*
X0166200Y0107729D02*
X0168700Y0107729D01*
X0167777Y0106130D02*
X0166200Y0106130D01*
X0166200Y0104532D02*
X0167111Y0104532D01*
X0166682Y0102933D02*
X0166200Y0102933D01*
X0166200Y0101334D02*
X0166563Y0101334D01*
X0166563Y0099736D02*
X0166200Y0099736D01*
X0166200Y0098137D02*
X0166931Y0098137D01*
X0167390Y0096539D02*
X0166200Y0096539D01*
X0166200Y0094940D02*
X0168313Y0094940D01*
X0169540Y0093342D02*
X0166200Y0093342D01*
X0166200Y0091743D02*
X0171296Y0091743D01*
X0173463Y0090145D02*
X0166200Y0090145D01*
X0166200Y0088546D02*
X0173463Y0088546D01*
X0173463Y0086948D02*
X0166200Y0086948D01*
X0166200Y0085349D02*
X0173463Y0085349D01*
X0173463Y0083751D02*
X0166200Y0083751D01*
X0166200Y0082152D02*
X0173463Y0082152D01*
X0173463Y0080554D02*
X0166200Y0080554D01*
X0166200Y0078955D02*
X0173463Y0078955D01*
X0173463Y0077357D02*
X0166200Y0077357D01*
X0166200Y0075758D02*
X0173463Y0075758D01*
X0173463Y0074160D02*
X0168351Y0074160D01*
X0169404Y0072561D02*
X0173463Y0072561D01*
X0173463Y0070963D02*
X0169699Y0070963D01*
X0170057Y0069364D02*
X0173463Y0069364D01*
X0173463Y0067766D02*
X0170057Y0067766D01*
X0170057Y0066167D02*
X0173463Y0066167D01*
X0173543Y0064569D02*
X0170057Y0064569D01*
X0170057Y0062970D02*
X0173543Y0062970D01*
X0173762Y0061372D02*
X0169838Y0061372D01*
X0168095Y0059773D02*
X0175505Y0059773D01*
X0181119Y0059773D02*
X0188543Y0059773D01*
X0188313Y0058175D02*
X0161962Y0058175D01*
X0161962Y0056576D02*
X0188083Y0056576D01*
X0188147Y0054978D02*
X0161818Y0054978D01*
X0161886Y0059773D02*
X0162481Y0059773D01*
X0163831Y0064543D02*
X0165288Y0066000D01*
X0163831Y0064543D02*
X0156800Y0064543D01*
X0157715Y0069364D02*
X0148400Y0069364D01*
X0148400Y0067766D02*
X0152126Y0067766D01*
X0151638Y0066167D02*
X0148400Y0066167D01*
X0148400Y0064569D02*
X0151638Y0064569D01*
X0151638Y0062970D02*
X0148400Y0062970D01*
X0148400Y0061372D02*
X0152075Y0061372D01*
X0151714Y0059773D02*
X0148400Y0059773D01*
X0148400Y0058175D02*
X0151638Y0058175D01*
X0151638Y0056576D02*
X0148400Y0056576D01*
X0148400Y0054978D02*
X0151782Y0054978D01*
X0153163Y0053379D02*
X0148400Y0053379D01*
X0148400Y0051781D02*
X0153200Y0051781D01*
X0153242Y0050182D02*
X0148400Y0050182D01*
X0148400Y0048584D02*
X0154125Y0048584D01*
X0155252Y0046985D02*
X0148400Y0046985D01*
X0148400Y0045387D02*
X0155252Y0045387D01*
X0155296Y0043788D02*
X0148400Y0043788D01*
X0147947Y0042190D02*
X0156353Y0042190D01*
X0161202Y0046598D02*
X0161202Y0048000D01*
X0161202Y0046598D02*
X0156800Y0051000D01*
X0156800Y0057457D01*
X0166481Y0053379D02*
X0188377Y0053379D01*
X0188607Y0051781D02*
X0177348Y0051781D01*
X0177348Y0051786D02*
X0177225Y0052244D01*
X0176988Y0052654D01*
X0176653Y0052990D01*
X0176243Y0053227D01*
X0175785Y0053349D01*
X0173173Y0053349D01*
X0173173Y0048775D01*
X0171624Y0048775D01*
X0171624Y0053349D01*
X0169012Y0053349D01*
X0168554Y0053227D01*
X0168144Y0052990D01*
X0167808Y0052654D01*
X0167571Y0052244D01*
X0167449Y0051786D01*
X0167449Y0048775D01*
X0171624Y0048775D01*
X0171624Y0047225D01*
X0173173Y0047225D01*
X0173173Y0042651D01*
X0175785Y0042651D01*
X0176243Y0042773D01*
X0176653Y0043010D01*
X0176988Y0043346D01*
X0177225Y0043756D01*
X0177348Y0044214D01*
X0177348Y0047225D01*
X0173173Y0047225D01*
X0173173Y0048775D01*
X0177348Y0048775D01*
X0177348Y0051786D01*
X0177348Y0050182D02*
X0189000Y0050182D01*
X0188762Y0050703D02*
X0188762Y0050703D01*
X0189730Y0048584D02*
X0173173Y0048584D01*
X0171624Y0048584D02*
X0167151Y0048584D01*
X0167449Y0047225D02*
X0167449Y0044214D01*
X0167571Y0043756D01*
X0167808Y0043346D01*
X0168144Y0043010D01*
X0168554Y0042773D01*
X0169012Y0042651D01*
X0171624Y0042651D01*
X0171624Y0047225D01*
X0167449Y0047225D01*
X0167449Y0046985D02*
X0167151Y0046985D01*
X0167151Y0045387D02*
X0167449Y0045387D01*
X0167563Y0043788D02*
X0167107Y0043788D01*
X0166050Y0042190D02*
X0194144Y0042190D01*
X0194489Y0041792D02*
X0194489Y0041792D01*
X0196357Y0040591D02*
X0146482Y0040591D01*
X0144884Y0038993D02*
X0198844Y0038993D01*
X0192759Y0043788D02*
X0177234Y0043788D01*
X0177348Y0045387D02*
X0191374Y0045387D01*
X0190984Y0045836D02*
X0190984Y0045836D01*
X0190460Y0046985D02*
X0177348Y0046985D01*
X0173173Y0046985D02*
X0171624Y0046985D01*
X0171624Y0045387D02*
X0173173Y0045387D01*
X0173173Y0043788D02*
X0171624Y0043788D01*
X0171624Y0050182D02*
X0173173Y0050182D01*
X0173173Y0051781D02*
X0171624Y0051781D01*
X0167449Y0051781D02*
X0167151Y0051781D01*
X0167151Y0050182D02*
X0167449Y0050182D01*
X0177863Y0066000D02*
X0178312Y0066000D01*
X0183080Y0066167D02*
X0190987Y0066167D01*
X0190984Y0066164D02*
X0190984Y0066164D01*
X0190256Y0064569D02*
X0183080Y0064569D01*
X0183080Y0062970D02*
X0189526Y0062970D01*
X0188796Y0061372D02*
X0182862Y0061372D01*
X0183080Y0067766D02*
X0192372Y0067766D01*
X0193757Y0069364D02*
X0183080Y0069364D01*
X0182723Y0070963D02*
X0195663Y0070963D01*
X0194489Y0070208D02*
X0194489Y0070208D01*
X0198150Y0072561D02*
X0182263Y0072561D01*
X0165288Y0071000D02*
X0163831Y0069543D01*
X0157400Y0070963D02*
X0148400Y0070963D01*
X0148400Y0072561D02*
X0157400Y0072561D01*
X0157400Y0074160D02*
X0148400Y0074160D01*
X0148400Y0075758D02*
X0157400Y0075758D01*
X0157400Y0077357D02*
X0148400Y0077357D01*
X0148400Y0078955D02*
X0157400Y0078955D01*
X0157400Y0080554D02*
X0148400Y0080554D01*
X0148400Y0082152D02*
X0157400Y0082152D01*
X0157400Y0083751D02*
X0148400Y0083751D01*
X0148400Y0085349D02*
X0157400Y0085349D01*
X0157400Y0086948D02*
X0148400Y0086948D01*
X0148400Y0088546D02*
X0157400Y0088546D01*
X0157400Y0090145D02*
X0148400Y0090145D01*
X0148400Y0091743D02*
X0157400Y0091743D01*
X0157400Y0093342D02*
X0148400Y0093342D01*
X0148400Y0094940D02*
X0157400Y0094940D01*
X0157400Y0096539D02*
X0148420Y0096539D01*
X0148277Y0098137D02*
X0157400Y0098137D01*
X0157400Y0099736D02*
X0148032Y0099736D01*
X0149761Y0101334D02*
X0157400Y0101334D01*
X0157400Y0102933D02*
X0150546Y0102933D01*
X0150900Y0104532D02*
X0157400Y0104532D01*
X0157400Y0106130D02*
X0150900Y0106130D01*
X0150272Y0107729D02*
X0157400Y0107729D01*
X0157400Y0109327D02*
X0149100Y0109327D01*
X0149129Y0110926D02*
X0157400Y0110926D01*
X0157400Y0112524D02*
X0149791Y0112524D01*
X0149900Y0114123D02*
X0157400Y0114123D01*
X0157400Y0115721D02*
X0149690Y0115721D01*
X0150800Y0117082D02*
X0150800Y0120457D01*
X0150800Y0117082D01*
X0150800Y0117320D02*
X0150800Y0117320D01*
X0150800Y0118918D02*
X0150800Y0118918D01*
X0150800Y0120457D02*
X0150800Y0120457D01*
X0154962Y0120517D02*
X0157400Y0120517D01*
X0157400Y0122115D02*
X0154962Y0122115D01*
X0154867Y0123714D02*
X0157400Y0123714D01*
X0157400Y0125312D02*
X0155921Y0125312D01*
X0155962Y0126911D02*
X0157400Y0126911D01*
X0157400Y0128509D02*
X0155962Y0128509D01*
X0155783Y0130108D02*
X0157400Y0130108D01*
X0157400Y0131706D02*
X0156452Y0131706D01*
X0156900Y0133305D02*
X0157400Y0133305D01*
X0157400Y0134903D02*
X0156900Y0134903D01*
X0157400Y0136502D02*
X0156366Y0136502D01*
X0157400Y0138100D02*
X0155326Y0138100D01*
X0157400Y0139699D02*
X0152982Y0139699D01*
X0148618Y0139699D02*
X0147050Y0139699D01*
X0147050Y0141297D02*
X0157400Y0141297D01*
X0157400Y0142896D02*
X0146500Y0142896D01*
X0144902Y0144494D02*
X0157400Y0144494D01*
X0157400Y0146093D02*
X0143303Y0146093D01*
X0141705Y0147691D02*
X0157400Y0147691D01*
X0157400Y0149290D02*
X0143717Y0149290D01*
X0145114Y0150888D02*
X0157400Y0150888D01*
X0157400Y0152487D02*
X0145776Y0152487D01*
X0145900Y0154085D02*
X0157400Y0154085D01*
X0156800Y0161000D02*
X0156800Y0162250D01*
X0181100Y0162250D01*
X0184396Y0166873D02*
X0227000Y0166873D01*
X0227000Y0165275D02*
X0185908Y0165275D01*
X0186571Y0163676D02*
X0227000Y0163676D01*
X0227000Y0162078D02*
X0186700Y0162078D01*
X0186428Y0160479D02*
X0227000Y0160479D01*
X0227000Y0158881D02*
X0185685Y0158881D01*
X0184305Y0157282D02*
X0187454Y0157282D01*
X0187151Y0157108D02*
X0186283Y0156441D01*
X0185509Y0155667D01*
X0184842Y0154799D01*
X0184295Y0153851D01*
X0183876Y0152840D01*
X0183593Y0151782D01*
X0183483Y0150950D01*
X0191000Y0150950D01*
X0191000Y0158467D01*
X0190167Y0158357D01*
X0189110Y0158074D01*
X0188099Y0157655D01*
X0187151Y0157108D01*
X0185525Y0155684D02*
X0166200Y0155684D01*
X0166200Y0154085D02*
X0184430Y0154085D01*
X0183782Y0152487D02*
X0166200Y0152487D01*
X0166200Y0150888D02*
X0191000Y0150888D01*
X0191000Y0150950D02*
X0191000Y0149350D01*
X0183483Y0149350D01*
X0183593Y0148517D01*
X0183876Y0147460D01*
X0184295Y0146449D01*
X0184842Y0145501D01*
X0185509Y0144633D01*
X0186283Y0143859D01*
X0187151Y0143192D01*
X0188099Y0142645D01*
X0189110Y0142226D01*
X0190167Y0141943D01*
X0191000Y0141833D01*
X0191000Y0149350D01*
X0192600Y0149350D01*
X0192600Y0150950D01*
X0191000Y0150950D01*
X0191000Y0152487D02*
X0192600Y0152487D01*
X0192600Y0150950D02*
X0192600Y0158467D01*
X0193432Y0158357D01*
X0194490Y0158074D01*
X0195501Y0157655D01*
X0196449Y0157108D01*
X0197317Y0156441D01*
X0198091Y0155667D01*
X0198758Y0154799D01*
X0199305Y0153851D01*
X0199724Y0152840D01*
X0200007Y0151782D01*
X0200117Y0150950D01*
X0192600Y0150950D01*
X0192600Y0150888D02*
X0227000Y0150888D01*
X0227000Y0149290D02*
X0200109Y0149290D01*
X0200117Y0149350D02*
X0192600Y0149350D01*
X0192600Y0141833D01*
X0193432Y0141943D01*
X0194490Y0142226D01*
X0195501Y0142645D01*
X0196449Y0143192D01*
X0197317Y0143859D01*
X0198091Y0144633D01*
X0198758Y0145501D01*
X0199305Y0146449D01*
X0199724Y0147460D01*
X0200007Y0148517D01*
X0200117Y0149350D01*
X0199786Y0147691D02*
X0227000Y0147691D01*
X0227000Y0146093D02*
X0199099Y0146093D01*
X0197953Y0144494D02*
X0227000Y0144494D01*
X0227000Y0142896D02*
X0195935Y0142896D01*
X0192600Y0142896D02*
X0191000Y0142896D01*
X0191000Y0144494D02*
X0192600Y0144494D01*
X0192600Y0146093D02*
X0191000Y0146093D01*
X0191000Y0147691D02*
X0192600Y0147691D01*
X0192600Y0149290D02*
X0191000Y0149290D01*
X0191000Y0154085D02*
X0192600Y0154085D01*
X0192600Y0155684D02*
X0191000Y0155684D01*
X0191000Y0157282D02*
X0192600Y0157282D01*
X0196146Y0157282D02*
X0227000Y0157282D01*
X0227000Y0155684D02*
X0198075Y0155684D01*
X0199170Y0154085D02*
X0227000Y0154085D01*
X0227000Y0152487D02*
X0199818Y0152487D01*
X0187665Y0142896D02*
X0166200Y0142896D01*
X0166200Y0144494D02*
X0185647Y0144494D01*
X0184501Y0146093D02*
X0166200Y0146093D01*
X0166200Y0147691D02*
X0183814Y0147691D01*
X0183491Y0149290D02*
X0166200Y0149290D01*
X0166200Y0141297D02*
X0227000Y0141297D01*
X0227000Y0139699D02*
X0166200Y0139699D01*
X0166200Y0138100D02*
X0227000Y0138100D01*
X0227000Y0136502D02*
X0166200Y0136502D01*
X0166200Y0134903D02*
X0227000Y0134903D01*
X0227000Y0133305D02*
X0166200Y0133305D01*
X0166200Y0131706D02*
X0227000Y0131706D01*
X0227000Y0130108D02*
X0166200Y0130108D01*
X0166200Y0128509D02*
X0184646Y0128509D01*
X0182514Y0126911D02*
X0166200Y0126911D01*
X0166200Y0125312D02*
X0181159Y0125312D01*
X0180269Y0123714D02*
X0166200Y0123714D01*
X0166200Y0122115D02*
X0179705Y0122115D01*
X0179423Y0120517D02*
X0166200Y0120517D01*
X0166200Y0118918D02*
X0188874Y0118918D01*
X0188874Y0117320D02*
X0190474Y0117320D01*
X0190474Y0115721D02*
X0188874Y0115721D01*
X0188874Y0114123D02*
X0190474Y0114123D01*
X0190474Y0112524D02*
X0188874Y0112524D01*
X0188874Y0110926D02*
X0190474Y0110926D01*
X0195381Y0110926D02*
X0198684Y0110926D01*
X0180891Y0114123D02*
X0166200Y0114123D01*
X0166200Y0115721D02*
X0180085Y0115721D01*
X0179608Y0117320D02*
X0166200Y0117320D01*
X0157400Y0117320D02*
X0154056Y0117320D01*
X0154962Y0118918D02*
X0157400Y0118918D01*
X0150800Y0127000D02*
X0150800Y0127543D01*
X0150800Y0134000D01*
X0150257Y0128000D02*
X0150800Y0127543D01*
X0150257Y0128000D02*
X0146800Y0128000D01*
X0142249Y0123449D01*
X0134635Y0123449D01*
X0134635Y0114000D02*
X0143800Y0114000D01*
X0144408Y0120517D02*
X0146638Y0120517D01*
X0146638Y0122115D02*
X0146006Y0122115D01*
X0144800Y0105000D02*
X0141351Y0104551D01*
X0134635Y0104551D01*
X0134635Y0101402D02*
X0139398Y0101402D01*
X0144800Y0097000D01*
X0144800Y0044000D01*
X0141800Y0041000D01*
X0118800Y0041000D01*
X0114398Y0045402D01*
X0114398Y0048000D01*
X0114118Y0040591D02*
X0037243Y0040591D01*
X0039111Y0041792D02*
X0039111Y0041792D01*
X0039111Y0041792D01*
X0039456Y0042190D02*
X0098353Y0042190D01*
X0097296Y0043788D02*
X0040841Y0043788D01*
X0042226Y0045387D02*
X0097252Y0045387D01*
X0097252Y0046985D02*
X0043140Y0046985D01*
X0042616Y0045836D02*
X0042616Y0045836D01*
X0043870Y0048584D02*
X0097252Y0048584D01*
X0097252Y0050182D02*
X0044600Y0050182D01*
X0044838Y0050703D02*
X0044838Y0050703D01*
X0044993Y0051781D02*
X0097252Y0051781D01*
X0097638Y0053379D02*
X0045223Y0053379D01*
X0045453Y0054978D02*
X0097638Y0054978D01*
X0097638Y0056576D02*
X0045517Y0056576D01*
X0045287Y0058175D02*
X0097881Y0058175D01*
X0095936Y0059773D02*
X0045057Y0059773D01*
X0044838Y0061297D02*
X0044838Y0061297D01*
X0044804Y0061372D02*
X0094337Y0061372D01*
X0095800Y0065000D02*
X0077800Y0065000D01*
X0063800Y0079000D01*
X0063549Y0074160D02*
X0031004Y0074160D01*
X0034610Y0073101D02*
X0034610Y0073101D01*
X0035450Y0072561D02*
X0065148Y0072561D01*
X0066746Y0070963D02*
X0037937Y0070963D01*
X0039111Y0070208D02*
X0039111Y0070208D01*
X0039843Y0069364D02*
X0068345Y0069364D01*
X0069943Y0067766D02*
X0041228Y0067766D01*
X0042613Y0066167D02*
X0071542Y0066167D01*
X0073140Y0064569D02*
X0043344Y0064569D01*
X0042616Y0066164D02*
X0042616Y0066164D01*
X0044074Y0062970D02*
X0074739Y0062970D01*
X0092268Y0093342D02*
X0029549Y0093342D01*
X0027951Y0094940D02*
X0084380Y0094940D01*
X0096052Y0091165D02*
X0095887Y0089000D01*
X0028800Y0089000D01*
X0021800Y0096000D01*
X0021800Y0118000D01*
X0016800Y0123000D02*
X0016800Y0092000D01*
X0025800Y0083000D01*
X0095257Y0083000D01*
X0095800Y0082543D01*
X0099202Y0085945D01*
X0099202Y0091165D01*
X0105501Y0091165D02*
X0105501Y0082843D01*
X0105800Y0082543D01*
X0105800Y0075457D02*
X0105800Y0070000D01*
X0104800Y0069000D01*
X0102800Y0062543D02*
X0102343Y0062000D01*
X0098800Y0062000D01*
X0095800Y0065000D01*
X0095800Y0075457D01*
X0096343Y0076000D01*
X0102800Y0062543D02*
X0111800Y0062543D01*
X0111800Y0091165D01*
X0114800Y0091016D02*
X0114950Y0091165D01*
X0114800Y0091016D02*
X0114800Y0083000D01*
X0118800Y0079000D01*
X0118800Y0070000D01*
X0111800Y0062543D02*
X0125800Y0062543D01*
X0125800Y0055457D02*
X0125800Y0047000D01*
X0125202Y0048000D01*
X0115716Y0038993D02*
X0034755Y0038993D01*
X0034610Y0038899D02*
X0034610Y0038899D01*
X0036800Y0121000D02*
X0036800Y0141000D01*
X0031800Y0136000D02*
X0030800Y0136000D01*
X0016800Y0123000D01*
X0046898Y0142896D02*
X0100813Y0142896D01*
X0108650Y0145693D02*
X0108650Y0136835D01*
X0108650Y0132087D02*
X0108650Y0132087D01*
X0108269Y0131706D02*
X0109032Y0131706D01*
X0108650Y0145693D02*
X0108343Y0149000D01*
X0108343Y0153162D01*
X0106532Y0153162D01*
X0106074Y0153040D01*
X0105663Y0152803D01*
X0105382Y0152521D01*
X0105205Y0152948D01*
X0104821Y0153332D01*
X0104309Y0154570D01*
X0082796Y0176082D01*
X0081784Y0177095D01*
X0080461Y0177643D01*
X0078784Y0177643D01*
X0077400Y0179027D01*
X0077400Y0179082D01*
X0079800Y0179082D01*
X0082399Y0179082D01*
X0082857Y0179205D01*
X0083267Y0179442D01*
X0083603Y0179777D01*
X0083840Y0180187D01*
X0083962Y0180645D01*
X0083962Y0182457D01*
X0083962Y0184268D01*
X0083840Y0184726D01*
X0083603Y0185137D01*
X0083321Y0185418D01*
X0083748Y0185595D01*
X0084097Y0185943D01*
X0084503Y0185943D01*
X0084852Y0185595D01*
X0085279Y0185418D01*
X0084997Y0185137D01*
X0084760Y0184726D01*
X0084638Y0184268D01*
X0084638Y0182457D01*
X0088800Y0182457D01*
X0088800Y0182457D01*
X0088800Y0171000D01*
X0101800Y0158000D01*
X0105800Y0158000D01*
X0108800Y0155000D01*
X0108800Y0149457D01*
X0108343Y0149000D01*
X0108343Y0149000D01*
X0108343Y0153162D01*
X0109534Y0153162D01*
X0109534Y0160170D01*
X0103903Y0160170D01*
X0102874Y0160597D01*
X0102087Y0161384D01*
X0101660Y0162414D01*
X0101660Y0168027D01*
X0102087Y0169057D01*
X0102874Y0169844D01*
X0103903Y0170270D01*
X0105872Y0170270D01*
X0107566Y0170270D01*
X0107566Y0170372D01*
X0107565Y0170374D01*
X0107566Y0171013D01*
X0107566Y0171662D01*
X0107567Y0171664D01*
X0107567Y0171667D01*
X0107812Y0172257D01*
X0108061Y0172857D01*
X0108062Y0172858D01*
X0108063Y0172861D01*
X0108516Y0173313D01*
X0108975Y0173771D01*
X0108977Y0173772D01*
X0108979Y0173774D01*
X0109571Y0174018D01*
X0110169Y0174266D01*
X0110172Y0174266D01*
X0110174Y0174267D01*
X0110814Y0174266D01*
X0111462Y0174266D01*
X0111464Y0174265D01*
X0120530Y0174252D01*
X0120530Y0175086D01*
X0120928Y0176047D01*
X0120530Y0177009D01*
X0120530Y0180671D01*
X0103070Y0180671D01*
X0103070Y0171103D01*
X0102644Y0170074D01*
X0101857Y0169287D01*
X0100827Y0168860D01*
X0095214Y0168860D01*
X0094184Y0169287D01*
X0093397Y0170074D01*
X0092970Y0171103D01*
X0092970Y0180780D01*
X0092962Y0180783D01*
X0092962Y0180645D01*
X0092840Y0180187D01*
X0092603Y0179777D01*
X0092267Y0179442D01*
X0091857Y0179205D01*
X0091399Y0179082D01*
X0088800Y0179082D01*
X0088800Y0182457D01*
X0084638Y0182457D01*
X0084638Y0180645D01*
X0084760Y0180187D01*
X0084997Y0179777D01*
X0085333Y0179442D01*
X0085743Y0179205D01*
X0086201Y0179082D01*
X0088800Y0179082D01*
X0088800Y0182457D01*
X0088800Y0182457D01*
X0088800Y0181260D02*
X0088800Y0181260D01*
X0088800Y0179662D02*
X0088800Y0179662D01*
X0092487Y0179662D02*
X0092970Y0179662D01*
X0092970Y0178063D02*
X0078364Y0178063D01*
X0079800Y0179082D02*
X0079800Y0182457D01*
X0083962Y0182457D01*
X0079800Y0182457D01*
X0079800Y0182457D01*
X0079800Y0179082D01*
X0079800Y0179662D02*
X0079800Y0179662D01*
X0079800Y0181260D02*
X0079800Y0181260D01*
X0079800Y0182457D02*
X0079800Y0182457D01*
X0083962Y0182859D02*
X0084638Y0182859D01*
X0084688Y0184457D02*
X0083912Y0184457D01*
X0083962Y0181260D02*
X0084638Y0181260D01*
X0085113Y0179662D02*
X0083487Y0179662D01*
X0082414Y0176465D02*
X0092970Y0176465D01*
X0092970Y0174866D02*
X0084012Y0174866D01*
X0085611Y0173268D02*
X0092970Y0173268D01*
X0092970Y0171669D02*
X0087209Y0171669D01*
X0088808Y0170070D02*
X0093400Y0170070D01*
X0090406Y0168472D02*
X0101844Y0168472D01*
X0101660Y0166873D02*
X0092005Y0166873D01*
X0093603Y0165275D02*
X0101660Y0165275D01*
X0101660Y0163676D02*
X0095202Y0163676D01*
X0096800Y0162078D02*
X0101799Y0162078D01*
X0103157Y0160479D02*
X0098399Y0160479D01*
X0099997Y0158881D02*
X0109534Y0158881D01*
X0109534Y0157282D02*
X0101596Y0157282D01*
X0103194Y0155684D02*
X0109534Y0155684D01*
X0109534Y0154085D02*
X0104509Y0154085D01*
X0108343Y0152487D02*
X0108343Y0152487D01*
X0108343Y0150888D02*
X0108343Y0150888D01*
X0108343Y0149290D02*
X0108343Y0149290D01*
X0103420Y0170070D02*
X0102641Y0170070D01*
X0103070Y0171669D02*
X0107568Y0171669D01*
X0108471Y0173268D02*
X0103070Y0173268D01*
X0103070Y0174866D02*
X0120530Y0174866D01*
X0120755Y0176465D02*
X0103070Y0176465D01*
X0103070Y0178063D02*
X0120530Y0178063D01*
X0120530Y0179662D02*
X0103070Y0179662D01*
X0088800Y0190000D02*
X0075800Y0190000D01*
X0073800Y0188000D01*
X0079800Y0189543D02*
X0088343Y0189543D01*
X0088800Y0190000D01*
X0090257Y0201000D02*
X0082800Y0201000D01*
X0078411Y0205238D02*
X0077400Y0205238D01*
X0077400Y0206836D02*
X0080950Y0206836D01*
X0084650Y0206836D02*
X0185101Y0206836D01*
X0184842Y0206499D02*
X0185509Y0207367D01*
X0186283Y0208141D01*
X0187151Y0208808D01*
X0188099Y0209355D01*
X0189110Y0209774D01*
X0190167Y0210057D01*
X0191000Y0210167D01*
X0191000Y0202650D01*
X0192600Y0202650D01*
X0192600Y0210167D01*
X0193432Y0210057D01*
X0194490Y0209774D01*
X0195501Y0209355D01*
X0196449Y0208808D01*
X0197317Y0208141D01*
X0198091Y0207367D01*
X0198758Y0206499D01*
X0199305Y0205551D01*
X0199724Y0204540D01*
X0200007Y0203482D01*
X0200117Y0202650D01*
X0192600Y0202650D01*
X0192600Y0201050D01*
X0200117Y0201050D01*
X0200007Y0200217D01*
X0199724Y0199160D01*
X0199305Y0198149D01*
X0198758Y0197201D01*
X0198091Y0196333D01*
X0197317Y0195559D01*
X0196449Y0194892D01*
X0195501Y0194345D01*
X0194490Y0193926D01*
X0193432Y0193643D01*
X0192600Y0193533D01*
X0192600Y0201050D01*
X0191000Y0201050D01*
X0183483Y0201050D01*
X0183593Y0200217D01*
X0183876Y0199160D01*
X0184295Y0198149D01*
X0184842Y0197201D01*
X0185509Y0196333D01*
X0186283Y0195559D01*
X0187151Y0194892D01*
X0188099Y0194345D01*
X0189110Y0193926D01*
X0190167Y0193643D01*
X0191000Y0193533D01*
X0191000Y0201050D01*
X0191000Y0202650D01*
X0183483Y0202650D01*
X0183593Y0203482D01*
X0183876Y0204540D01*
X0184295Y0205551D01*
X0184842Y0206499D01*
X0184165Y0205238D02*
X0101002Y0205238D01*
X0121757Y0203639D02*
X0183635Y0203639D01*
X0183563Y0200442D02*
X0124954Y0200442D01*
X0126552Y0198844D02*
X0184007Y0198844D01*
X0184817Y0197245D02*
X0128151Y0197245D01*
X0128830Y0195647D02*
X0153568Y0195647D01*
X0151082Y0194048D02*
X0128830Y0194048D01*
X0128830Y0192450D02*
X0150224Y0192450D01*
X0150321Y0189253D02*
X0128830Y0189253D01*
X0128830Y0190851D02*
X0157600Y0190851D01*
X0158000Y0190851D02*
X0176621Y0190851D01*
X0176521Y0189253D02*
X0165279Y0189253D01*
X0164242Y0187654D02*
X0177005Y0187654D01*
X0178359Y0186056D02*
X0162751Y0186056D01*
X0165600Y0191200D02*
X0165600Y0191378D01*
X0165482Y0192124D01*
X0165248Y0192843D01*
X0164905Y0193516D01*
X0164461Y0194127D01*
X0163927Y0194661D01*
X0163316Y0195105D01*
X0162643Y0195448D01*
X0161924Y0195682D01*
X0161178Y0195800D01*
X0158000Y0195800D01*
X0158000Y0191200D01*
X0165600Y0191200D01*
X0165376Y0192450D02*
X0177376Y0192450D01*
X0179442Y0194048D02*
X0164518Y0194048D01*
X0162032Y0195647D02*
X0186195Y0195647D01*
X0188816Y0194048D02*
X0182758Y0194048D01*
X0181200Y0194048D02*
X0181000Y0194048D01*
X0181000Y0192450D02*
X0181200Y0192450D01*
X0181800Y0191000D02*
X0181800Y0189750D01*
X0181100Y0189750D01*
X0191800Y0189750D01*
X0191800Y0201850D01*
X0192600Y0202041D02*
X0227000Y0202041D01*
X0227000Y0203639D02*
X0199965Y0203639D01*
X0199435Y0205238D02*
X0227000Y0205238D01*
X0227000Y0206836D02*
X0198499Y0206836D01*
X0196935Y0208435D02*
X0227000Y0208435D01*
X0227000Y0210033D02*
X0193521Y0210033D01*
X0192600Y0210033D02*
X0191000Y0210033D01*
X0190079Y0210033D02*
X0077400Y0210033D01*
X0077400Y0208435D02*
X0186665Y0208435D01*
X0191000Y0208435D02*
X0192600Y0208435D01*
X0192600Y0206836D02*
X0191000Y0206836D01*
X0191000Y0205238D02*
X0192600Y0205238D01*
X0192600Y0203639D02*
X0191000Y0203639D01*
X0191000Y0202041D02*
X0123355Y0202041D01*
X0130316Y0187654D02*
X0151358Y0187654D01*
X0150849Y0186056D02*
X0148732Y0186056D01*
X0143954Y0186056D02*
X0141646Y0186056D01*
X0136868Y0186056D02*
X0130630Y0186056D01*
X0130630Y0184457D02*
X0135105Y0184457D01*
X0133513Y0173268D02*
X0133050Y0173268D01*
X0133050Y0171669D02*
X0134845Y0171669D01*
X0134882Y0170070D02*
X0133050Y0170070D01*
X0133050Y0168472D02*
X0134882Y0168472D01*
X0135486Y0166873D02*
X0133050Y0166873D01*
X0133121Y0165275D02*
X0149873Y0165275D01*
X0150114Y0166873D02*
X0150724Y0166873D01*
X0148631Y0163676D02*
X0134720Y0163676D01*
X0136318Y0162078D02*
X0148000Y0162078D01*
X0148000Y0160479D02*
X0137917Y0160479D01*
X0143546Y0158881D02*
X0148400Y0158881D01*
X0149315Y0157282D02*
X0145043Y0157282D01*
X0145705Y0155684D02*
X0151478Y0155684D01*
X0146343Y0171000D02*
X0157800Y0171000D01*
X0156800Y0181000D02*
X0146343Y0181000D01*
X0157600Y0192450D02*
X0158000Y0192450D01*
X0158000Y0194048D02*
X0157600Y0194048D01*
X0157600Y0195647D02*
X0158000Y0195647D01*
X0181000Y0190851D02*
X0181200Y0190851D01*
X0183841Y0186056D02*
X0227000Y0186056D01*
X0227000Y0187654D02*
X0185195Y0187654D01*
X0185679Y0189253D02*
X0227000Y0189253D01*
X0227000Y0190851D02*
X0185579Y0190851D01*
X0184824Y0192450D02*
X0227000Y0192450D01*
X0227000Y0194048D02*
X0194784Y0194048D01*
X0192600Y0194048D02*
X0191000Y0194048D01*
X0191000Y0195647D02*
X0192600Y0195647D01*
X0192600Y0197245D02*
X0191000Y0197245D01*
X0191000Y0198844D02*
X0192600Y0198844D01*
X0192600Y0200442D02*
X0191000Y0200442D01*
X0197405Y0195647D02*
X0227000Y0195647D01*
X0227000Y0197245D02*
X0198783Y0197245D01*
X0199593Y0198844D02*
X0227000Y0198844D01*
X0227000Y0200442D02*
X0200037Y0200442D01*
X0185957Y0182859D02*
X0227000Y0182859D01*
X0227000Y0184457D02*
X0184565Y0184457D01*
X0186619Y0181260D02*
X0227000Y0181260D01*
X0227000Y0179662D02*
X0186700Y0179662D01*
X0186380Y0178063D02*
X0227000Y0178063D01*
X0227000Y0176465D02*
X0185534Y0176465D01*
X0185995Y0174866D02*
X0227000Y0174866D01*
X0227000Y0173268D02*
X0186657Y0173268D01*
X0186700Y0171669D02*
X0227000Y0171669D01*
X0227000Y0170070D02*
X0186341Y0170070D01*
X0185495Y0168472D02*
X0227000Y0168472D01*
X0227000Y0211632D02*
X0077400Y0211632D01*
X0077400Y0213230D02*
X0227000Y0213230D01*
X0227000Y0214829D02*
X0077400Y0214829D01*
X0077400Y0216427D02*
X0227000Y0216427D01*
X0227000Y0218026D02*
X0077400Y0218026D01*
X0077400Y0219624D02*
X0227000Y0219624D01*
X0227000Y0221223D02*
X0220322Y0221223D01*
X0220178Y0221200D02*
X0220924Y0221318D01*
X0221643Y0221552D01*
X0222316Y0221895D01*
X0222927Y0222339D01*
X0223461Y0222873D01*
X0223905Y0223484D01*
X0224248Y0224157D01*
X0224482Y0224876D01*
X0224600Y0225622D01*
X0224600Y0225800D01*
X0217000Y0225800D01*
X0217000Y0221200D01*
X0220178Y0221200D01*
X0217000Y0221223D02*
X0216600Y0221223D01*
X0216600Y0222821D02*
X0217000Y0222821D01*
X0217000Y0224420D02*
X0216600Y0224420D01*
X0213278Y0221223D02*
X0077400Y0221223D01*
X0077400Y0222821D02*
X0210190Y0222821D01*
X0223410Y0222821D02*
X0227000Y0222821D01*
X0227000Y0224420D02*
X0224334Y0224420D01*
X0214272Y0265981D02*
X0212672Y0265981D01*
X0212672Y0267580D02*
X0214272Y0267580D01*
X0214272Y0269178D02*
X0212672Y0269178D01*
X0212672Y0270777D02*
X0214272Y0270777D01*
X0212672Y0272375D02*
X0068059Y0272375D01*
X0047721Y0289959D02*
X0045879Y0289959D01*
X0040634Y0289959D02*
X0032853Y0289959D01*
X0032913Y0291557D02*
X0134227Y0291557D01*
X0133882Y0293156D02*
X0033149Y0293156D01*
X0033149Y0294754D02*
X0133882Y0294754D01*
X0172608Y0344308D02*
X0190137Y0344308D01*
X0190867Y0345907D02*
X0172608Y0345907D01*
X0172608Y0347505D02*
X0192147Y0347505D01*
X0190984Y0346164D02*
X0190984Y0346164D01*
X0193532Y0349104D02*
X0172608Y0349104D01*
X0172608Y0350702D02*
X0195258Y0350702D01*
X0194489Y0350208D02*
X0194489Y0350208D01*
X0197745Y0352301D02*
X0171975Y0352301D01*
X0198990Y0353101D02*
X0198990Y0353101D01*
X0201709Y0353899D02*
X0031891Y0353899D01*
X0034610Y0353101D02*
X0034610Y0353101D01*
X0021709Y0353899D02*
X0006600Y0353899D01*
X0006600Y0352301D02*
X0017745Y0352301D01*
X0018990Y0353101D02*
X0018990Y0353101D01*
X0015258Y0350702D02*
X0006600Y0350702D01*
X0006600Y0349104D02*
X0013532Y0349104D01*
X0012147Y0347505D02*
X0006600Y0347505D01*
X0006600Y0345907D02*
X0010867Y0345907D01*
X0010984Y0346164D02*
X0010984Y0346164D01*
X0010137Y0344308D02*
X0006600Y0344308D01*
X0006600Y0342710D02*
X0009407Y0342710D01*
X0008735Y0341111D02*
X0006600Y0341111D01*
X0006600Y0339513D02*
X0008505Y0339513D01*
X0008275Y0337914D02*
X0006600Y0337914D01*
X0006600Y0336316D02*
X0008045Y0336316D01*
X0008184Y0334717D02*
X0006600Y0334717D01*
X0006600Y0333119D02*
X0008414Y0333119D01*
X0008644Y0331520D02*
X0006600Y0331520D01*
X0006600Y0329922D02*
X0009119Y0329922D01*
X0008762Y0330703D02*
X0008762Y0330703D01*
X0009849Y0328323D02*
X0006600Y0328323D01*
X0006600Y0326725D02*
X0010579Y0326725D01*
X0010984Y0325836D02*
X0010984Y0325836D01*
X0011600Y0325126D02*
X0006600Y0325126D01*
X0006600Y0323528D02*
X0012985Y0323528D01*
X0014370Y0321929D02*
X0006600Y0321929D01*
X0006600Y0320331D02*
X0016763Y0320331D01*
X0014489Y0321792D02*
X0014489Y0321792D01*
X0019559Y0318732D02*
X0006600Y0318732D01*
X0006600Y0294754D02*
X0022451Y0294754D01*
X0022451Y0293156D02*
X0006600Y0293156D01*
X0006600Y0291557D02*
X0022687Y0291557D01*
X0022747Y0289959D02*
X0006600Y0289959D01*
X0006600Y0288360D02*
X0021555Y0288360D01*
X0021451Y0286762D02*
X0006600Y0286762D01*
X0006600Y0285163D02*
X0021451Y0285163D01*
X0021451Y0283565D02*
X0006600Y0283565D01*
X0006600Y0281966D02*
X0021451Y0281966D01*
X0021586Y0280368D02*
X0006600Y0280368D01*
X0006600Y0278769D02*
X0022928Y0278769D01*
X0034045Y0288360D02*
X0039065Y0288360D01*
X0046521Y0280368D02*
X0047079Y0280368D01*
X0028575Y0297951D02*
X0027025Y0297951D01*
X0027025Y0299550D02*
X0028575Y0299550D01*
X0006600Y0355498D02*
X0227000Y0355498D01*
X0227000Y0353899D02*
X0211891Y0353899D01*
X0214610Y0353101D02*
X0214610Y0353101D01*
X0215855Y0352301D02*
X0227000Y0352301D01*
X0227000Y0350702D02*
X0218342Y0350702D01*
X0219111Y0350208D02*
X0219111Y0350208D01*
X0220068Y0349104D02*
X0227000Y0349104D01*
X0227000Y0347505D02*
X0221453Y0347505D01*
X0222616Y0346164D02*
X0222616Y0346164D01*
X0222733Y0345907D02*
X0227000Y0345907D01*
X0227000Y0344308D02*
X0223463Y0344308D01*
X0224193Y0342710D02*
X0227000Y0342710D01*
X0227000Y0341111D02*
X0224865Y0341111D01*
X0224838Y0341297D02*
X0224838Y0341297D01*
X0225095Y0339513D02*
X0227000Y0339513D01*
X0227000Y0337914D02*
X0225325Y0337914D01*
X0225555Y0336316D02*
X0227000Y0336316D01*
X0227000Y0334717D02*
X0225416Y0334717D01*
X0225186Y0333119D02*
X0227000Y0333119D01*
X0227000Y0331520D02*
X0224956Y0331520D01*
X0224838Y0330703D02*
X0224838Y0330703D01*
X0224481Y0329922D02*
X0227000Y0329922D01*
X0227000Y0328323D02*
X0223751Y0328323D01*
X0223021Y0326725D02*
X0227000Y0326725D01*
X0227000Y0325126D02*
X0222000Y0325126D01*
X0222616Y0325836D02*
X0222616Y0325836D01*
X0220615Y0323528D02*
X0227000Y0323528D01*
X0227000Y0321929D02*
X0219230Y0321929D01*
X0219111Y0321792D02*
X0219111Y0321792D01*
X0219111Y0321792D01*
X0216837Y0320331D02*
X0227000Y0320331D01*
X0227000Y0318732D02*
X0214041Y0318732D01*
X0214610Y0318899D02*
X0214610Y0318899D01*
X0223522Y0297951D02*
X0227000Y0297951D01*
X0227000Y0296353D02*
X0223522Y0296353D01*
X0223522Y0294754D02*
X0227000Y0294754D01*
X0227000Y0293156D02*
X0222915Y0293156D01*
X0223624Y0291557D02*
X0227000Y0291557D01*
X0227000Y0289959D02*
X0224522Y0289959D01*
X0224522Y0288360D02*
X0227000Y0288360D01*
X0227000Y0286762D02*
X0224522Y0286762D01*
X0224522Y0285163D02*
X0227000Y0285163D01*
X0227000Y0283565D02*
X0224522Y0283565D01*
X0224522Y0281966D02*
X0227000Y0281966D01*
X0227000Y0280368D02*
X0223549Y0280368D01*
X0222990Y0278769D02*
X0227000Y0278769D01*
X0227000Y0277171D02*
X0223522Y0277171D01*
X0223522Y0275572D02*
X0227000Y0275572D01*
X0227000Y0273974D02*
X0223522Y0273974D01*
X0214272Y0273974D02*
X0212672Y0273974D01*
X0212672Y0275572D02*
X0214272Y0275572D01*
X0214272Y0277171D02*
X0212672Y0277171D01*
X0212672Y0278769D02*
X0214272Y0278769D01*
X0181800Y0181000D02*
X0181800Y0179950D01*
X0181100Y0179950D01*
X0181100Y0172050D02*
X0181800Y0172050D01*
X0181800Y0171000D01*
X0136800Y0098000D02*
X0134887Y0098000D01*
X0134635Y0098252D01*
X0136398Y0097598D02*
X0136800Y0098000D01*
X0136398Y0097598D02*
X0136398Y0048000D01*
X0126800Y0080000D02*
X0123800Y0080000D01*
X0118099Y0085701D01*
X0118099Y0091165D01*
X0109343Y0096539D02*
X0107957Y0096539D01*
X0108650Y0091165D02*
X0108650Y0109000D01*
X0102800Y0055457D02*
X0102800Y0045000D01*
X0103202Y0048000D01*
X0108050Y0042190D02*
X0109550Y0042190D01*
X0080224Y0168472D02*
X0076394Y0168472D01*
X0078497Y0170070D02*
X0078625Y0170070D01*
X0042000Y0197245D02*
X0041600Y0197245D01*
X0041600Y0198844D02*
X0042000Y0198844D01*
X0042000Y0200442D02*
X0041600Y0200442D01*
X0039454Y0200442D02*
X0037233Y0200442D01*
X0037600Y0198844D02*
X0037855Y0198844D01*
X0026367Y0200442D02*
X0006600Y0200442D01*
X0006600Y0198844D02*
X0026000Y0198844D01*
X0026000Y0197245D02*
X0006600Y0197245D01*
X0006600Y0195647D02*
X0026000Y0195647D01*
X0026000Y0194048D02*
X0006600Y0194048D01*
X0006600Y0192450D02*
X0026000Y0192450D01*
X0026989Y0190851D02*
X0006600Y0190851D01*
X0006600Y0189253D02*
X0026850Y0189253D01*
X0026000Y0187654D02*
X0006600Y0187654D01*
X0006600Y0186056D02*
X0026000Y0186056D01*
X0026000Y0184457D02*
X0006600Y0184457D01*
X0006600Y0182859D02*
X0026739Y0182859D01*
X0198990Y0073101D02*
X0198990Y0073101D01*
D33*
X0177863Y0066000D02*
X0177863Y0101000D01*
X0165288Y0071000D02*
X0161800Y0071000D01*
X0161800Y0161000D01*
X0156800Y0161000D01*
X0181800Y0161000D01*
X0181800Y0171000D02*
X0157800Y0171000D01*
X0156800Y0181000D02*
X0181800Y0181000D01*
X0181800Y0191000D02*
X0157800Y0191000D01*
X0165288Y0071000D02*
X0165288Y0066000D01*
D34*
X0151800Y0120000D02*
X0145800Y0120000D01*
X0139800Y0127000D02*
X0135036Y0127000D01*
X0134635Y0126598D01*
X0134635Y0129748D02*
X0139800Y0134913D01*
X0139800Y0141000D01*
X0123800Y0157000D01*
X0123800Y0169000D01*
X0121800Y0171000D01*
X0110816Y0171016D01*
X0110816Y0165220D01*
X0112784Y0165220D02*
X0112784Y0144984D01*
X0111800Y0144000D01*
X0111800Y0136835D01*
X0114800Y0136984D02*
X0114950Y0136835D01*
X0114800Y0136984D02*
X0114800Y0142000D01*
X0116721Y0143921D01*
X0116721Y0165220D01*
X0114753Y0165220D02*
X0114753Y0168953D01*
X0114800Y0169000D01*
X0120800Y0169000D01*
X0120800Y0137283D01*
X0121249Y0136835D01*
X0118690Y0137890D02*
X0117800Y0137000D01*
X0117800Y0137134D01*
X0118099Y0136835D01*
X0118690Y0137890D02*
X0118690Y0165220D01*
X0125580Y0172110D02*
X0126690Y0172110D01*
X0126800Y0172000D01*
X0126800Y0158000D01*
X0143800Y0141000D01*
X0143800Y0131000D01*
X0139800Y0127000D01*
X0151800Y0120000D02*
X0156800Y0124000D01*
X0156800Y0146000D01*
X0134800Y0168000D01*
X0134800Y0172000D01*
X0130753Y0176047D01*
X0125580Y0176047D01*
X0114753Y0176047D01*
X0108847Y0181953D01*
X0098020Y0181953D01*
X0089304Y0181953D01*
X0088800Y0182457D01*
X0079800Y0182457D01*
X0079800Y0189543D02*
X0088800Y0189543D01*
X0089343Y0189000D01*
X0090800Y0189000D01*
X0093800Y0186000D01*
X0093800Y0184000D01*
X0093879Y0183921D01*
X0098020Y0183921D01*
X0125580Y0183921D01*
X0125580Y0185890D02*
X0125580Y0195220D01*
X0119800Y0201000D01*
X0097343Y0201000D01*
X0125580Y0179984D02*
X0138241Y0179984D01*
X0139257Y0181000D01*
X0133800Y0178000D02*
X0138800Y0172000D01*
X0138800Y0171000D01*
X0139257Y0171000D01*
X0133800Y0178000D02*
X0130784Y0178016D01*
X0125580Y0178016D01*
X0125580Y0174079D02*
X0129721Y0174079D01*
X0129800Y0174000D01*
X0129800Y0164000D01*
X0139800Y0154000D01*
D35*
X0139800Y0154000D03*
X0133800Y0139000D03*
X0126800Y0146000D03*
X0143800Y0114000D03*
X0144800Y0105000D03*
X0150800Y0134000D03*
X0126800Y0080000D03*
X0118800Y0070000D03*
X0104800Y0069000D03*
X0073800Y0174000D03*
X0082800Y0201000D03*
X0137800Y0286000D03*
X0152800Y0292000D03*
X0148800Y0229000D03*
M02*
